<?xml version="1.0" standalone="no"?>
<!DOCTYPE svg PUBLIC "-//W3C//DTD SVG 1.1//EN" "http://www.w3.org/Graphics/SVG/1.1/DTD/svg11.dtd" >
<svg>
<metadata>
Created by FontForge 20090914 at Wed Dec 31 13:58:53 2014
 By www-data
Copyright (C) 2000, 2007 Hoefler &#38; Frere-Jones. http://www.typography.com
</metadata>
<defs>
<font id="Gotham-Bold" horiz-adv-x="1024" >
  <font-face 
    font-family="Gotham Bold"
    font-weight="400"
    font-stretch="normal"
    units-per-em="2048"
    panose-1="0 0 0 0 0 0 0 0 0 0"
    ascent="1638"
    descent="-410"
    x-height="1098"
    cap-height="1434"
    bbox="-111 -607.999 2447 2083"
    underline-thickness="102"
    underline-position="-102"
    unicode-range="U+0020-U+FB04"
  />
<missing-glyph 
d="M0 -410v2048h1024v-2048h-1024zM145 1536l367 -799l367 799h-734zM102 -156l353 770l-353 770v-1540zM922 1384l-353 -770l353 -770v1540zM512 492l-367 -799h734z" />
    <glyph glyph-name="f_f" unicode="ff" horiz-adv-x="1564" 
d="M975 0v830.999h-129v256h129v70c0 118.667 29.333 207.334 88 266.001c57.333 57.333 141.333 86 252 86c84 0 157.667 -10 221 -30v-258c-48.667 17.333 -95.667 26 -141 26c-75.333 0 -113 -39.667 -113 -119v-43h252v-254h-248v-831h-311zM193 -0.000976562v830.999
h-130v256h130v70c0 118.667 29.333 207.334 88 266.001c57.333 57.333 141 86 251 86c84.667 0 158.667 -10 222 -30v-258c-48.667 17.333 -96 26 -142 26c-74.667 0 -112 -39.667 -112 -119v-43h252v-254h-248v-831h-311z" />
    <glyph glyph-name="fi" unicode="fi" horiz-adv-x="1400" 
d="M193 0v830.999h-130v256h130v70c0 118.667 29.333 207.334 88 266.001c57.333 57.333 141 86 251 86c84.667 0 158.667 -10 222 -30v-258c-48.667 17.333 -96 26 -142 26c-74.667 0 -112 -39.667 -112 -119v-43h252v-254h-248v-831h-311zM936 -0.000976562v1098h311
v-1098h-311zM928 1219v276h327v-276h-327z" />
    <glyph glyph-name="fl" unicode="fl" horiz-adv-x="1400" 
d="M193 0v830.999h-130v256h130v70c0 118.667 29.333 207.334 88 266.001c57.333 57.333 141 86 251 86c84.667 0 158.667 -10 222 -30v-258c-48.667 17.333 -96 26 -142 26c-74.667 0 -112 -39.667 -112 -119v-43h252v-254h-248v-831h-311zM936 -0.000976562v1495h311
v-1495h-311z" />
    <glyph glyph-name="f_f_i" unicode="ffi" horiz-adv-x="2183" 
d="M975 0v830.999h-129v256h129v70c0 118.667 29.333 207.334 88 266.001c57.333 57.333 141.333 86 252 86c84 0 157.667 -10 221 -30v-258c-48.667 17.333 -95.667 26 -141 26c-75.333 0 -113 -39.667 -113 -119v-43h252v-254h-248v-831h-311zM193 -0.000976562v830.999
h-130v256h130v70c0 118.667 29.333 207.334 88 266.001c57.333 57.333 141 86 251 86c84.667 0 158.667 -10 222 -30v-258c-48.667 17.333 -96 26 -142 26c-74.667 0 -112 -39.667 -112 -119v-43h252v-254h-248v-831h-311zM1718 -0.00195312v1098h312v-1098h-312zM1710 1219
v276h328v-276h-328z" />
    <glyph glyph-name="f_f_l" unicode="ffl" horiz-adv-x="2183" 
d="M975 0v830.999h-129v256h129v70c0 118.667 29.333 207.334 88 266.001c57.333 57.333 141.333 86 252 86c84 0 157.667 -10 221 -30v-258c-48.667 17.333 -95.667 26 -141 26c-75.333 0 -113 -39.667 -113 -119v-43h252v-254h-248v-831h-311zM193 -0.000976562v830.999
h-130v256h130v70c0 118.667 29.333 207.334 88 266.001c57.333 57.333 141 86 251 86c84.667 0 158.667 -10 222 -30v-258c-48.667 17.333 -96 26 -142 26c-74.667 0 -112 -39.667 -112 -119v-43h252v-254h-248v-831h-311zM1718 -0.00195312v1495h312v-1495h-312z" />
    <glyph glyph-name=".notdef" 
d="M0 -410v2048h1024v-2048h-1024zM145 1536l367 -799l367 799h-734zM102 -156l353 770l-353 770v-1540zM922 1384l-353 -770l353 -770v1540zM512 492l-367 -799h734z" />
    <glyph glyph-name="space" unicode=" " horiz-adv-x="614" 
 />
    <glyph glyph-name="exclam" unicode="!" horiz-adv-x="663" 
d="M246 487l-96 906v41h364v-41l-96 -906h-172zM166 0v328h332v-328h-332z" />
    <glyph glyph-name="quotedbl" unicode="&#x22;" horiz-adv-x="1064" 
d="M600 780l37 654h344v-11l-223 -643h-158zM117 780l37 654h344v-11l-224 -643h-157z" />
    <glyph glyph-name="numbersign" unicode="#" horiz-adv-x="1433" 
d="M1290 569v-262h-227l-51 -307h-271l52 307h-295l-54 -307h-270l51 307h-153v262h198l54 303h-181v263h226l51 299h270l-51 -299h297l51 299h270l-51 -299h156v-263h-201l-53 -303h182zM588 881l-53 -320h309l53 320h-309z" />
    <glyph glyph-name="dollar" unicode="$" horiz-adv-x="1323" 
d="M573 -201l0.00195312 207c-181.333 24 -342.333 89 -483 195l160 233c117.333 -88.667 228.666 -144 333.999 -166v326c-76.667 20.667 -141.334 43.167 -194.001 67.5s-98.167 53.5 -136.5 87.5s-66.333 73.833 -84 119.5s-26.5 98.834 -26.5 159.501v4
c0 111.333 39 202.833 117 274.5s182.333 114.167 313 127.5v118h213v-125c134 -16.667 261 -66.334 381 -149.001l-137 -240c-86.667 58 -171.334 98.333 -254.001 121v-311c156.667 -42.667 270 -98 340 -166s105 -158.667 105 -272v-4
c0 -112.667 -39.667 -204.667 -119 -276s-184.666 -114 -315.999 -128v-203h-213zM922.002 393c0 34.667 -10.833 63.667 -32.5 87s-59.5 45 -113.5 65v-287c97.333 14 146 57.667 146 131v4zM442.002 1047c0 -34.667 10 -63.001 30 -85.001s57.333 -43 112 -63v279
c-94.667 -11.333 -142 -53.666 -142 -126.999v-4z" />
    <glyph glyph-name="percent" unicode="%" horiz-adv-x="1761" 
d="M438 717c-102 0 -185.167 34.6689 -249.5 104.002s-96.5 155.333 -96.5 258v4c0 103.333 32.667 190.333 98 261s149.333 106 252 106c102 0 185.167 -34.833 249.5 -104.5s96.5 -155.834 96.5 -258.501v-4c0 -102.667 -32.667 -189.334 -98 -260.001
s-149.333 -106 -252 -106zM573 1079v3.99902c0 50 -12.5 92.667 -37.5 128s-57.5 53 -97.5 53c-41.333 0 -73.5 -17 -96.5 -51s-34.5 -76 -34.5 -126v-4c0 -49.333 12.5 -91.666 37.5 -126.999s57.5 -53 97.5 -53c41.333 0 73.5 17.167 96.5 51.5s34.5 75.833 34.5 124.5z
M809 772.001l473 662h244l-574 -772l-473 -662h-243zM1319 -15.999c-102 0 -185.167 34.6689 -249.5 104.002s-96.5 155.333 -96.5 258v4c0 103.333 32.667 190.333 98 261s149.333 106 252 106c102 0 185.167 -34.833 249.5 -104.5s96.5 -155.834 96.5 -258.501v-4
c0 -102.667 -32.667 -189.334 -98 -260.001s-149.333 -106 -252 -106zM1323 170.003c41.333 0 73.5 17.167 96.5 51.5s34.5 75.833 34.5 124.5v4c0 49.333 -12.5 91.666 -37.5 126.999s-57.5 53 -97.5 53c-41.333 0 -73.5 -16.833 -96.5 -50.5s-34.5 -75.5 -34.5 -125.5v-4
c0 -49.333 12.5 -91.666 37.5 -126.999s57.5 -53 97.5 -53z" />
    <glyph glyph-name="ampersand" unicode="&#x26;" horiz-adv-x="1425" 
d="M1137 -29l-166 168.003c-129.333 -106 -269.333 -159 -420 -159c-139.333 0 -254.333 37.667 -345 113s-136 175.333 -136 300v4c0 178 92.667 309.333 278 394c-66.667 93.333 -100 188.666 -100 285.999v4c0 49.333 9.83301 96.666 29.5 141.999s47.5 85.5 83.5 120.5
s81.833 62.833 137.5 83.5s116.834 31 183.501 31c120 0 217.167 -34.333 291.5 -103s111.5 -154.334 111.5 -257.001v-4c0 -171.333 -100.333 -296.333 -301 -375l191 -191c45.333 71.333 91.666 153.333 138.999 246l232 -127c-70 -127.333 -133 -228.333 -189 -303
l211 -211zM621 885.003c65.333 24.667 113.333 51.6699 144 81.0029s46 65.666 46 108.999v4c0 40.667 -12.333 73 -37 97s-57.334 36 -98.001 36c-42 0 -75.667 -13.333 -101 -40s-38 -61.667 -38 -105v-4c0 -30.667 6.33301 -59.334 19 -86.001
s34.334 -57.334 65.001 -92.001zM588 238.006c68 0 136.999 27 206.999 81l-275 279c-88.667 -46 -133 -108.667 -133 -188v-4c0 -50 18.833 -90.5 56.5 -121.5s85.834 -46.5 144.501 -46.5z" />
    <glyph glyph-name="quotesingle" unicode="'" horiz-adv-x="585" 
d="M117 780l37 654h348v-11l-223 -643h-162z" />
    <glyph glyph-name="parenleft" unicode="(" horiz-adv-x="911" 
d="M688 -289c-190.667 103.333 -332.834 226.668 -426.501 370.001s-140.5 312.333 -140.5 507s46.833 363.5 140.5 506.5s235.834 266.167 426.501 369.5l137 -207c-140 -98 -240.833 -198.333 -302.5 -301s-92.5 -225.334 -92.5 -368.001s30.833 -265.5 92.5 -368.5
s162.5 -203.5 302.5 -301.5z" />
    <glyph glyph-name="parenright" unicode=")" horiz-adv-x="911" 
d="M223 -289l-137 206.998c140 98 240.833 198.5 302.5 301.5s92.5 225.833 92.5 368.5s-30.833 265.334 -92.5 368.001s-162.5 203 -302.5 301l137 207c190.667 -103.333 333 -226.5 427 -369.5s141 -311.833 141 -506.5s-47 -363.667 -141 -507
s-236.333 -266.666 -427 -369.999z" />
    <glyph glyph-name="asterisk" unicode="*" horiz-adv-x="880" 
d="M356 762l33 246l-199 -152l-86 148l230 96l-230 96l86 147l199 -151l-33 246h168l-32 -246l198 151l86 -147l-229 -96l229 -96l-86 -148l-198 152l32 -246h-168z" />
    <glyph glyph-name="plus" unicode="+" horiz-adv-x="1310" 
d="M510 211v369h-371v282h371v369h291v-369h370v-282h-370v-369h-291z" />
    <glyph glyph-name="comma" unicode="," horiz-adv-x="585" 
d="M80 -332l-27.001 129c70 6.66699 122.333 27.5 157 62.5s49.334 81.833 44.001 140.5h-127v328h332v-277c0 -131.333 -31.833 -227.5 -95.5 -288.5s-158.167 -92.5 -283.5 -94.5z" />
    <glyph glyph-name="hyphen" unicode="-" horiz-adv-x="835" 
d="M102 485v299h631v-299h-631z" />
    <glyph glyph-name="period" unicode="." horiz-adv-x="585" 
d="M127 0v328h332v-328h-332z" />
    <glyph glyph-name="slash" unicode="/" horiz-adv-x="1085" 
d="M-57 -262l907 1896h264l-907 -1896h-264z" />
    <glyph glyph-name="zero" unicode="0" horiz-adv-x="1495" 
d="M745 -25c-94 0 -180.835 19.002 -260.502 57.002s-146.667 90 -201 156s-96.666 144.167 -126.999 234.5s-45.5 187.166 -45.5 290.499v4c0 138 26.5 263.167 79.5 375.5s128.333 201.333 226 267s208.834 98.5 333.501 98.5c124 0 234.5 -32.5 331.5 -97.5
s171.667 -153.333 224 -265s78.5 -236.5 78.5 -374.5v-4c0 -138 -26.333 -263.333 -79 -376s-128 -201.834 -226 -267.501s-209.333 -98.5 -334 -98.5zM749.998 260.002c93.333 0 168.5 42.501 225.5 127.501s85.5 193.5 85.5 325.5v4c0 131.333 -29.333 240.333 -88 327
s-134.667 130 -228 130s-168.5 -42.333 -225.5 -127s-85.5 -193.334 -85.5 -326.001v-4c0 -132.667 29.167 -242 87.5 -328s134.5 -129 228.5 -129z" />
    <glyph glyph-name="one" unicode="1" horiz-adv-x="864" 
d="M365 0v1124l-250 -61l-66 258l412 123h215v-1444h-311z" />
    <glyph glyph-name="two" unicode="2" horiz-adv-x="1275" 
d="M100 0l0.00195312 250.004l478 391c93.333 77.333 157.833 139.666 193.5 186.999s53.5 99.666 53.5 156.999c0 59.333 -17.5 105.166 -52.5 137.499s-81.5 48.5 -139.5 48.5c-53.333 0 -101.5 -14.833 -144.5 -44.5s-92.5 -78.834 -148.5 -147.501l-221 178
c75.333 103.333 152.666 178.666 231.999 225.999s180 71 302 71c148.667 0 268.167 -40.167 358.5 -120.5s135.5 -187.5 135.5 -321.5v-4c0 -47.333 -5.33301 -91.166 -16 -131.499s-24.834 -76.833 -42.501 -109.5s-43.5 -67.167 -77.5 -103.5s-68.333 -69.5 -103 -99.5
s-80.667 -67 -138 -111l-233 -181h624v-272h-1061z" />
    <glyph glyph-name="three" unicode="3" horiz-adv-x="1271" 
d="M637 -25c-232.667 0 -418.999 82.666 -558.999 247.999l217 207c51.333 -58 104.333 -101.167 159 -129.5s117 -42.5 187 -42.5c60 0 108.833 15.833 146.5 47.5s56.5 73.834 56.5 126.501v4c0 58 -24.667 102.833 -74 134.5s-118.333 47.5 -207 47.5h-131l-49 201
l342 344h-563v271h968v-238l-362 -346c52.667 -8.66699 100.5 -22 143.5 -40s83.333 -42.167 121 -72.5s67.167 -70 88.5 -119s32 -105.5 32 -169.5v-5c0 -137.333 -46.833 -249.833 -140.5 -337.5s-218.834 -131.5 -375.501 -131.5z" />
    <glyph glyph-name="four" unicode="4" horiz-adv-x="1411" 
d="M815 0v309h-700l-52 223l787 912h266v-879h193v-256h-193v-309h-301zM434 565h381v447z" />
    <glyph glyph-name="five" unicode="5" horiz-adv-x="1290" 
d="M625 -25c-208 0 -386.998 71.6641 -536.998 214.997l191 228c57.333 -51.333 113.5 -90.166 168.5 -116.499s112.833 -39.5 173.5 -39.5c74 0 132.333 17.5 175 52.5s64 83.833 64 146.5v4c0 60.667 -23.167 108.167 -69.5 142.5s-107.833 51.5 -184.5 51.5
s-156.334 -17.667 -239.001 -53l-183 121l41 707h881v-277h-610l-17 -248c68 16.667 131 25 189 25c56.667 0 109.667 -5.5 159 -16.5s95.166 -28.333 137.499 -52s78.5 -53.167 108.5 -88.5s53.5 -78.666 70.5 -129.999s25.5 -108.666 25.5 -171.999v-4
c0 -151.333 -49.333 -271.833 -148 -361.5s-230.667 -134.5 -396 -134.5z" />
    <glyph glyph-name="six" unicode="6" horiz-adv-x="1355" 
d="M694 -25c-172.667 0 -310.334 51.334 -413.001 154.001c-55.333 55.333 -97.5 125.666 -126.5 210.999s-43.5 196 -43.5 332v4c0 89.333 8 173 24 251s40.667 149.667 74 215s74.5 121.333 123.5 168s108 83 177 109s145.5 39 229.5 39c92.667 0 173.667 -13 243 -39
s138 -65.667 206 -119l-166 -243c-52 40 -99.5 69 -142.5 87s-93.167 27 -150.5 27c-85.333 0 -152.166 -30.167 -200.499 -90.5s-77.833 -140.5 -88.5 -240.5c44.667 28.667 89.5 51.167 134.5 67.5s99.167 24.5 162.5 24.5c148 0 269 -40 363 -120s141 -192.333 141 -337
v-4c0 -145.333 -52 -264.333 -156 -357s-234.333 -139 -391 -139zM682 246.001c76.667 0 136.834 19.5 180.501 58.5s65.5 89.833 65.5 152.5v4c0 61.333 -22.5 111.5 -67.5 150.5s-105.833 58.5 -182.5 58.5s-136.834 -19 -180.501 -57s-65.5 -88 -65.5 -150v-4
c0 -62 22.5 -113 67.5 -153s105.833 -60 182.5 -60z" />
    <glyph glyph-name="seven" unicode="7" horiz-adv-x="1267" 
d="M172 0l641 1161h-674v273h1032v-238l-643 -1196h-356z" />
    <glyph glyph-name="eight" unicode="8" horiz-adv-x="1290" 
d="M645 -20c-160.667 0 -293 38.002 -397 114.002s-156 175.667 -156 299v4c0 84.667 19.167 154.5 57.5 209.5s96.5 100.5 174.5 136.5c-59.333 36.667 -104.666 79.834 -135.999 129.501s-47 111.167 -47 184.5v4c0 111.333 46.833 204.666 140.5 279.999
s214.834 113 363.501 113c149.333 0 270.666 -37.5 363.999 -112.5s140 -168.5 140 -280.5v-4c0 -73.333 -15.5 -135 -46.5 -185s-76.167 -93 -135.5 -129c77.333 -40.667 135.166 -86.834 173.499 -138.501s57.5 -117.834 57.5 -198.501v-5
c0 -130 -51.5 -232.667 -154.5 -308s-235.833 -113 -398.5 -113zM645 848.002c61.333 0 110.833 16.332 148.5 48.999s56.5 74.334 56.5 125.001v4c0 46 -18.667 85.5 -56 118.5s-87 49.5 -149 49.5s-111.667 -16.167 -149 -48.5s-56 -71.5 -56 -117.5v-4
c0 -50.667 18.833 -92.667 56.5 -126s87.167 -50 148.5 -50zM645 240.001c76 0 136.333 16.833 181 50.5s67 76.167 67 127.5v4c0 54.667 -23 97.667 -69 129s-105.667 47 -179 47s-133 -15.667 -179 -47s-69 -74.333 -69 -129v-4c0 -50.667 22.333 -93 67 -127
s105 -51 181 -51z" />
    <glyph glyph-name="nine" unicode="9" horiz-adv-x="1355" 
d="M618 -25c-98 0 -184.497 14.666 -259.497 43.999s-145.5 71.333 -211.5 126l166 240c53.333 -43.333 104.166 -74.666 152.499 -93.999s102.166 -29 161.499 -29c85.333 0 152.5 29.333 201.5 88s78.833 138 89.5 238c-78 -66 -175 -99 -291 -99
c-156.667 0 -281.167 41.167 -373.5 123.5s-138.5 195.5 -138.5 339.5v4c0 145.333 51 265.333 153 360s233.333 142 394 142c95.333 0 174.166 -12 236.499 -36s121.166 -63.667 176.499 -119c54.667 -54.667 96.667 -125 126 -211s44 -196 44 -330v-4
c0 -156 -23.5 -292.333 -70.5 -409s-118.167 -208.167 -213.5 -274.5s-209.666 -99.5 -342.999 -99.5zM678.003 751.999c76.667 0 136.832 19.8311 180.499 59.498s65.5 90.834 65.5 153.501v4c0 64.667 -22.667 117.334 -68 158.001s-106.666 61 -183.999 61
c-76.667 0 -136.5 -20 -179.5 -60s-64.5 -92.333 -64.5 -157v-4c0 -64.667 22.333 -116.667 67 -156s105.667 -59 183 -59z" />
    <glyph glyph-name="colon" unicode=":" horiz-adv-x="606" 
d="M137 770v328h332v-328h-332zM137 0v328h332v-328h-332z" />
    <glyph glyph-name="semicolon" unicode=";" horiz-adv-x="606" 
d="M137 770v328h332v-328h-332zM90 -332l-27.001 129c70 6.66699 122.333 27.5 157 62.5s49.334 81.833 44.001 140.5h-127v328h332v-277c0 -131.333 -31.833 -227.5 -95.5 -288.5s-158.167 -92.5 -283.5 -94.5z" />
    <glyph glyph-name="less" unicode="&#x3c;" horiz-adv-x="1310" 
d="M1130 145l-991 435v282l991 434v-288l-692 -285l692 -285v-293z" />
    <glyph glyph-name="equal" unicode="=" horiz-adv-x="1310" 
d="M150 846v282h1011v-282h-1011zM150 313v283h1011v-283h-1011z" />
    <glyph glyph-name="greater" unicode="&#x3e;" horiz-adv-x="1310" 
d="M180 145v289l692 285l-692 285v292l991 -434v-282z" />
    <glyph glyph-name="question" unicode="?" horiz-adv-x="1114" 
d="M403 487l-47 331.999l11 10c125.333 4.66699 216.333 22.834 273 54.501s85 75.834 85 132.501v4c0 46 -16.5 81.667 -49.5 107s-79.167 38 -138.5 38c-111.333 0 -214 -47 -308 -141l-188 207c134 147.333 301.333 221 502 221c150 0 270 -37.167 360 -111.5
s135 -178.5 135 -312.5v-4c0 -50.667 -7 -96.834 -21 -138.501s-32.833 -77 -56.5 -106s-53 -54.833 -88 -77.5s-71.667 -41 -110 -55s-80.833 -25.667 -127.5 -35l-23 -125h-209zM336 -0.000976562v328h332v-328h-332z" />
    <glyph glyph-name="at" unicode="@" horiz-adv-x="2007" 
d="M1022 -332c-86 0 -169.169 10.832 -249.502 32.499s-153.833 51.834 -220.5 90.501s-127.667 85.5 -183 140.5s-102 115.167 -140 180.5s-67.5 136.333 -88.5 213s-31.5 155.334 -31.5 236.001c0 120.667 23.333 236 70 346s109.834 205.333 189.501 286s175 145 286 193
s228.167 72 351.5 72c122 0 238.667 -22.667 350 -68s206.333 -105.166 285 -179.499s141.167 -160.833 187.5 -259.5s69.5 -200 69.5 -304c0 -83.333 -10.667 -158 -32 -224s-50.5 -119.833 -87.5 -161.5s-80 -73.5 -129 -95.5s-101.833 -33 -158.5 -33
c-138 0 -242.333 41 -313 123c-91.333 -82 -192.666 -123 -303.999 -123c-107.333 0 -196.5 36 -267.5 108s-106.5 167.667 -106.5 287c0 94 21.5 180.667 64.5 260s99.5 141.5 169.5 186.5s144.667 67.5 224 67.5c120.667 0 215 -46.333 283 -139l23 109l241 -39l-96 -551
c-4 -20 -6 -41.333 -6 -64c0 -38 13.333 -69 40 -93s63 -36 109 -36c75.333 0 137.5 36.833 186.5 110.5s73.5 176.167 73.5 307.5c0 94 -20.667 185.167 -62 273.5s-97.166 166 -167.499 233s-156 120.833 -257 161.5s-207.5 61 -319.5 61
c-90.667 0 -177.834 -13.833 -261.501 -41.5s-158.5 -66.5 -224.5 -116.5s-123.5 -108.5 -172.5 -175.5s-86.667 -141.833 -113 -224.5s-39.5 -168.334 -39.5 -257.001c0 -111.333 20.667 -216.833 62 -316.5s98 -185.834 170 -258.501s159.5 -130.167 262.5 -172.5
s213.833 -63.5 332.5 -63.5c98 0 186.167 11.167 264.5 33.5s157.5 56.833 237.5 103.5l41 -65c-168.667 -102.667 -349.667 -154 -543 -154zM945.998 343.999c65.333 0 122.334 28.499 171.001 85.499s73 126.833 73 209.5c0 58 -17.833 104.5 -53.5 139.5
s-81.5 52.5 -137.5 52.5c-67.333 0 -125 -27.667 -173 -83s-72 -123.666 -72 -204.999c0 -62 17.667 -110.667 53 -146s81.666 -53 138.999 -53z" />
    <glyph glyph-name="A" unicode="A" horiz-adv-x="1617" 
d="M49 0l615 1444h290l615 -1444h-330l-131 322h-606l-131 -322h-322zM614 600h381l-190 465z" />
    <glyph glyph-name="B" unicode="B" horiz-adv-x="1478" 
d="M172 0l-0.000976562 1434h666c164.667 0 289.334 -42.333 374.001 -127c66 -66 99 -147.333 99 -244v-4c0 -135.333 -63 -238.333 -189 -309c88.667 -33.333 155.667 -77.5 201 -132.5s68 -128.5 68 -220.5v-4c0 -128 -48 -225.5 -144 -292.5s-227 -100.5 -393 -100.5
h-682zM478.999 854l291 0.000976562c151.333 0 227 50.667 227 152v4c0 47.333 -17.667 83.666 -53 108.999s-86.333 38 -153 38h-312v-303zM478.999 276.001l375 0.000976562c71.333 0 126.333 13 165 39s58 65 58 117v4c0 49.333 -19.167 87.666 -57.5 114.999
s-96.833 41 -175.5 41h-365v-316z" />
    <glyph glyph-name="C" unicode="C" horiz-adv-x="1511" 
d="M844 -25c-138 0 -263.334 32.667 -376.001 98s-200.667 154.333 -264 267s-95 237 -95 373v4c0 135.333 31.333 259.333 94 372s151.334 202.334 266.001 269.001s243.667 100 387 100c126.667 0 234.334 -19 323.001 -57s169.334 -92.667 242.001 -164l-200 -231
c-58.667 52.667 -117.334 92.667 -176.001 120s-122.334 41 -191.001 41c-119.333 0 -218.5 -43.167 -297.5 -129.5s-118.5 -191.833 -118.5 -316.5v-4c0 -125.333 39.167 -231.833 117.5 -319.5s177.833 -131.5 298.5 -131.5c76 0 142 13.667 198 41
s115.667 69.666 179 126.999l201 -203c-79.333 -85.333 -164.5 -149.333 -255.5 -192s-201.833 -64 -332.5 -64z" />
    <glyph glyph-name="D" unicode="D" horiz-adv-x="1601" 
d="M172 0v1434h559c110.667 0 213.667 -18.333 309 -55s176 -86.667 242 -150s117.667 -138.833 155 -226.5s56 -181.5 56 -281.5v-4c0 -100 -18.667 -194 -56 -282s-89 -164 -155 -228s-146.667 -114.5 -242 -151.5s-198.333 -55.5 -309 -55.5h-559zM487 285
l244 0.000976562c128.667 0 232.834 39.5 312.501 118.5s119.5 182.167 119.5 309.5v4c0 127.333 -39.833 231.166 -119.5 311.499s-183.834 120.5 -312.501 120.5h-244v-864z" />
    <glyph glyph-name="E" unicode="E" horiz-adv-x="1372" 
d="M172 0v1434h1081v-281h-768v-291h676v-280h-676v-301h779v-281h-1092z" />
    <glyph glyph-name="F" unicode="F" horiz-adv-x="1343" 
d="M172 0v1434h1092v-287h-777v-305h684v-287h-684v-555h-315z" />
    <glyph glyph-name="G" unicode="G" horiz-adv-x="1605" 
d="M862 -25c-110 0 -211.833 18.668 -305.5 56.001s-173.167 88.666 -238.5 153.999s-116.5 143.5 -153.5 234.5s-55.5 188.833 -55.5 293.5v4c0 100.667 19 196.5 57 287.5s89.833 169.833 155.5 236.5s145.334 119.5 239.001 158.5s193.5 58.5 299.5 58.5
c124 0 229 -16 315 -48s168.667 -81.333 248 -148l-198 -240c-60.667 50 -118.834 86.667 -174.501 110s-122.5 35 -200.5 35c-114 0 -211.167 -43.667 -291.5 -131s-120.5 -192.333 -120.5 -315v-4c0 -131.333 40.667 -240 122 -326s185.333 -129 312 -129
c117.333 0 216.333 28.667 297 86v205h-317v272h623v-622c-178.667 -152 -383 -228 -613 -228z" />
    <glyph glyph-name="H" unicode="H" horiz-adv-x="1556" 
d="M172 0v1434h315v-568h582v568h315v-1434h-315v575h-582v-575h-315z" />
    <glyph glyph-name="I" unicode="I" horiz-adv-x="688" 
d="M186 0v1434h316v-1434h-316z" />
    <glyph glyph-name="J" unicode="J" horiz-adv-x="1155" 
d="M498 -20c-192.667 0 -349 71.668 -469 215.001l198 221c43.333 -48 85.833 -84 127.5 -108s86.5 -36 134.5 -36c61.333 0 108.833 19.5 142.5 58.5s50.5 98.833 50.5 179.5v924h324v-938c0 -164.667 -45.333 -292.334 -136 -383.001
c-88.667 -88.667 -212.667 -133 -372 -133z" />
    <glyph glyph-name="K" unicode="K" horiz-adv-x="1495" 
d="M172 0v1434h315v-627l582 627h381l-584 -609l611 -825h-379l-445 610l-166 -172v-438h-315z" />
    <glyph glyph-name="L" unicode="L" horiz-adv-x="1267" 
d="M172 0v1434h315v-1147h715v-287h-1030z" />
    <glyph glyph-name="M" unicode="M" horiz-adv-x="1777" 
d="M172 0v1434h340l377 -607l377 607h340v-1434h-314v936l-403 -612h-8l-400 606v-930h-309z" />
    <glyph glyph-name="N" unicode="N" horiz-adv-x="1617" 
d="M172 0v1434h291l672 -883v883h311v-1434h-268l-695 911v-911h-311z" />
    <glyph glyph-name="O" unicode="O" horiz-adv-x="1740" 
d="M868 -25c-108 0 -209.5 19.332 -304.5 57.999s-175.5 91.167 -241.5 157.5s-118 144.833 -156 235.5s-57 186.334 -57 287.001v4c0 100.667 19.167 196.5 57.5 287.5s90.833 169.833 157.5 236.5s147.667 119.5 243 158.5s197 58.5 305 58.5c144 0 274.333 -33 391 -99
s207.334 -155.167 272.001 -267.5s97 -235.833 97 -370.5v-4c0 -100.667 -19.333 -196.5 -58 -287.5s-91.334 -169.833 -158.001 -236.5s-147.667 -119.667 -243 -159s-197 -59 -305 -59zM872 265.999c82.667 0 157.164 20.166 223.497 60.499s117.5 94.5 153.5 162.5
s54 142.667 54 224v4c0 124.667 -41.167 230.834 -123.5 318.501s-186.166 131.5 -311.499 131.5c-82.667 0 -157 -20 -223 -60s-117 -94 -153 -162s-54 -142.667 -54 -224v-4c0 -81.333 18.333 -156.333 55 -225s88.334 -123.5 155.001 -164.5s141.334 -61.5 224.001 -61.5
z" />
    <glyph glyph-name="P" unicode="P" horiz-adv-x="1368" 
d="M172 0l-0.000976562 1434h586c168.667 0 302.334 -45.5 401.001 -136.5s148 -210.833 148 -359.5v-4c0 -80.667 -15 -153.334 -45 -218.001s-71.5 -117.667 -124.5 -159s-114.333 -72.833 -184 -94.5s-145.167 -32.5 -226.5 -32.5h-240v-430h-315zM486.999 711.001h250
c77.333 0 138.333 20.333 183 61s67 92.667 67 156v4c0 69.333 -22.667 122.833 -68 160.5s-108 56.5 -188 56.5h-244v-438z" />
    <glyph glyph-name="Q" unicode="Q" horiz-adv-x="1740" 
d="M1653 180l-201.001 -223.001l-158 141c-127.333 -82 -269.333 -123 -426 -123c-108 0 -209.5 19.333 -304.5 58s-175.5 91.167 -241.5 157.5s-118 144.833 -156 235.5s-57 186.334 -57 287.001v4c0 100.667 19.167 196.5 57.5 287.5s90.833 169.833 157.5 236.5
s147.667 119.5 243 158.5s197 58.5 305 58.5c144 0 274.333 -33 391 -99s207.334 -155.167 272.001 -267.5s97 -235.833 97 -370.5v-4c0 -148.667 -42.333 -286 -127 -412zM871.999 265.999c73.333 0 136.33 12.999 188.997 38.999l-234 199l201 225l236 -213
c26 59.333 39 125 39 197v4c0 124.667 -41.167 230.834 -123.5 318.501s-186.166 131.5 -311.499 131.5c-82.667 0 -157 -20 -223 -60s-117 -94 -153 -162s-54 -142.667 -54 -224v-4c0 -81.333 18.333 -156.333 55 -225s88.334 -123.5 155.001 -164.5
s141.334 -61.5 224.001 -61.5z" />
    <glyph glyph-name="R" unicode="R" horiz-adv-x="1480" 
d="M172 0l0.000976562 1434h655c181.333 0 320.666 -48.667 417.999 -146c82 -82 123 -191 123 -327v-5c0 -111.333 -27.333 -204.333 -82 -279s-129.667 -129.667 -225 -165l350 -512h-369l-307 459h-248v-459h-315zM487.001 737h320c76 0 135.333 18.5 178 55.5
s64 86.167 64 147.5v4c0 66.667 -21.833 117.5 -65.5 152.5s-104.5 52.5 -182.5 52.5h-314v-412z" />
    <glyph glyph-name="S" unicode="S" horiz-adv-x="1310" 
d="M682 -20c-110.667 0 -218.668 19.335 -324.001 58.002s-200 95.667 -284 171l186 223c141.333 -116 284 -174 428 -174c64.667 0 115.334 12 152.001 36s55 57 55 99v4c0 28 -7.33301 51.333 -22 70s-42.834 37.167 -84.501 55.5s-102.5 37.5 -182.5 57.5
c-45.333 11.333 -84.5 22.166 -117.5 32.499s-67.167 22.666 -102.5 36.999s-65 29.166 -89 44.499s-47.167 33.666 -69.5 54.999s-40.166 44.833 -53.499 70.5s-23.833 55.167 -31.5 88.5s-11.5 70 -11.5 110v4c0 129.333 46.833 233.666 140.5 312.999
s214.167 119 361.5 119c204 0 381.333 -60.667 532 -182l-164 -238c-136.667 94.667 -260.667 142 -372 142c-58.667 0 -104.167 -11.667 -136.5 -35s-48.5 -53.333 -48.5 -90v-4c0 -46 20 -81 60 -105s123.333 -52 250 -84c76.667 -20 141.5 -41.5 194.5 -64.5
s99.833 -51.167 140.5 -84.5s70.667 -73.166 90 -119.499s29 -100.166 29 -161.499v-4c0 -139.333 -48.167 -248.166 -144.5 -326.499s-223.5 -117.5 -381.5 -117.5z" />
    <glyph glyph-name="T" unicode="T" horiz-adv-x="1327" 
d="M506 0v1143h-436v291h1187v-291h-436v-1143h-315z" />
    <glyph glyph-name="U" unicode="U" horiz-adv-x="1548" 
d="M770 -23c-196 0 -348.333 54.168 -457 162.501s-163 266.5 -163 474.5v820h315v-811c0 -115.333 27 -203.333 81 -264s130 -91 228 -91s174 29.333 228 88s81 144 81 256v822h316v-809c0 -212.667 -55.5 -373.834 -166.5 -483.501s-265.167 -164.5 -462.5 -164.5z" />
    <glyph glyph-name="V" unicode="V" horiz-adv-x="1536" 
d="M629 -10l-580 1444h348l375 -1010l375 1010h340l-580 -1444h-278z" />
    <glyph glyph-name="W" unicode="W" horiz-adv-x="2297" 
d="M551 -10l-490 1444h338l297 -971l322 975h270l322 -975l297 971h329l-489 -1444h-274l-324 938l-324 -938h-274z" />
    <glyph glyph-name="X" unicode="X" horiz-adv-x="1499" 
d="M63 0l500 729l-479 705h369l299 -465l305 465h358l-479 -701l500 -733h-369l-322 492l-323 -492h-359z" />
    <glyph glyph-name="Y" unicode="Y" horiz-adv-x="1466" 
d="M575 0v565l-550 869h368l342 -576l348 576h359l-551 -863v-571h-316z" />
    <glyph glyph-name="Z" unicode="Z" horiz-adv-x="1449" 
d="M129 0v240l789 917h-764v277h1169v-240l-788 -918h788v-276h-1194z" />
    <glyph glyph-name="bracketleft" unicode="[" horiz-adv-x="952" 
d="M170 -266v1700h661v-244h-362v-1213h362v-243h-661z" />
    <glyph glyph-name="backslash" unicode="\" horiz-adv-x="1085" 
d="M879 -262l-908 1896h265l907 -1896h-264z" />
    <glyph glyph-name="bracketright" unicode="]" horiz-adv-x="952" 
d="M121 -266v243h362v1213h-362v244h661v-1700h-661z" />
    <glyph glyph-name="asciicircum" unicode="^" 
d="M102 1010l304 424h212l304 -424h-226l-186 239l-186 -239h-222z" />
    <glyph glyph-name="underscore" unicode="_" horiz-adv-x="1228" 
d="M-4 -328v238h1237v-238h-1237z" />
    <glyph glyph-name="grave" unicode="`" 
d="M492 1219l-267 245l269 117l227 -362h-229z" />
    <glyph glyph-name="a" unicode="a" horiz-adv-x="1212" 
d="M451 -20c-108 0 -197.833 29.6689 -269.5 89.002s-107.5 141.333 -107.5 246v4c0 116 39.833 203.5 119.5 262.5s187.167 88.5 322.5 88.5c92 0 181.333 -15 268 -45v18c0 65.333 -19.833 115.166 -59.5 149.499s-98.167 51.5 -175.5 51.5c-94 0 -195 -20 -303 -60
l-78 238c66.667 29.333 132.667 51.333 198 66s141.333 22 228 22c165.333 0 289 -41 371 -123c78.667 -78.667 118 -195.334 118 -350.001v-637h-301v119c-84 -92.667 -194.333 -139 -331 -139zM545 195.002c72 0 130.5 17.832 175.5 53.499s67.5 81.834 67.5 138.501v55
c-58 27.333 -124 41 -198 41c-67.333 0 -120 -13 -158 -39s-57 -63.333 -57 -112v-4c0 -41.333 15.667 -73.833 47 -97.5s72.333 -35.5 123 -35.5z" />
    <glyph glyph-name="b" unicode="b" horiz-adv-x="1382" 
d="M793 -20c-136.667 0 -250.667 54.333 -342 163v-143h-312v1495h312v-555c88.667 118.667 202.667 178 342 178c64.667 0 126.667 -12.5 186 -37.5s112.333 -60.833 159 -107.5s84 -106.5 112 -179.5s42 -153.833 42 -242.5v-4c0 -88.667 -13.667 -169.5 -41 -242.5
s-64.333 -132.833 -111 -179.5s-99.667 -82.5 -159 -107.5s-122 -37.5 -188 -37.5zM713 244c74.667 0 138 27.9971 190 83.9971s78 129 78 219v4c0 88.667 -26 161.334 -78 218.001s-115.333 85 -190 85c-74 0 -137 -28.167 -189 -84.5s-78 -129.166 -78 -218.499v-4
c0 -89.333 26 -162.166 78 -218.499s115 -84.5 189 -84.5z" />
    <glyph glyph-name="c" unicode="c" horiz-adv-x="1169" 
d="M657 -25c-108 0 -205.831 25.498 -293.498 76.498s-155.834 119.833 -204.501 206.5s-73 181.667 -73 285v4c0 104 24.333 199.333 73 286s117.334 155.834 206.001 207.501s187.667 77.5 297 77.5c99.333 0 183.666 -15.5 252.999 -46.5s131 -76.833 185 -137.5
l-191 -205c-38.667 40.667 -77 71 -115 91s-83 30 -135 30c-76.667 0 -140.167 -29.167 -190.5 -87.5s-75.5 -128.833 -75.5 -211.5v-4c0 -86 25.667 -158 77 -216s118.666 -87 201.999 -87c49.333 0 93.333 9.66699 132 29s78.667 48.333 120 87l182 -184
c-59.333 -65.333 -123.5 -115.166 -192.5 -149.499s-154.5 -51.5 -256.5 -51.5z" />
    <glyph glyph-name="d" unicode="d" horiz-adv-x="1382" 
d="M590 -20c-64.667 0 -126.668 12.5 -186.001 37.5s-112.5 60.833 -159.5 107.5s-84.5 106.5 -112.5 179.5s-42 153.833 -42 242.5v4c0 88.667 13.833 169.5 41.5 242.5s64.834 132.833 111.501 179.5s99.667 82.5 159 107.5s122 37.5 188 37.5c136 0 250 -54.667 342 -164
v541h311v-1495h-311v158c-88.667 -118.667 -202.667 -178 -342 -178zM669.999 244c74 0 136.833 28.1689 188.5 84.502s77.5 129.166 77.5 218.499v4c0 89.333 -25.833 162.166 -77.5 218.499s-114.5 84.5 -188.5 84.5c-74.667 0 -138.167 -28.167 -190.5 -84.5
s-78.5 -129.166 -78.5 -218.499v-4c0 -88.667 26.167 -161.334 78.5 -218.001s115.833 -85 190.5 -85z" />
    <glyph glyph-name="e" unicode="e" horiz-adv-x="1255" 
d="M659 -25c-166 0 -303.001 52.998 -411.001 158.998s-162 242.333 -162 409v4c0 104 22.833 199.333 68.5 286s110.167 155.834 193.5 207.501s177 77.5 281 77.5c88.667 0 167.834 -16.333 237.501 -49s125.667 -77 168 -133s74.333 -119.167 96 -189.5
s32.5 -145.166 32.5 -224.499c0 -16 -1.33301 -43.333 -4 -82h-764c15.333 -70 46.5 -123.333 93.5 -160s105.5 -55 175.5 -55c52 0 98.5 8.83301 139.5 26.5s83.167 46.5 126.5 86.5l178 -158c-110 -136.667 -259.667 -205 -449 -205zM390.999 634.998h468.998
c-9.33301 71.333 -34.166 128 -74.499 170s-92.5 63 -156.5 63c-63.333 0 -115.666 -20.833 -156.999 -62.5s-68.333 -98.5 -81 -170.5z" />
    <glyph glyph-name="f" unicode="f" horiz-adv-x="782" 
d="M193 0v830.999h-130v256h130v70c0 118.667 29.333 207.334 88 266.001c57.333 57.333 141 86 251 86c84.667 0 158.667 -10 222 -30v-258c-48.667 17.333 -96 26 -142 26c-74.667 0 -112 -39.667 -112 -119v-43h252v-254h-248v-831h-311z" />
    <glyph glyph-name="g" unicode="g" horiz-adv-x="1382" 
d="M631 -332c-180 0 -342.001 38.3359 -486.001 115.003l107 233c119.333 -66.667 243 -100 371 -100c208.667 0 313 99.667 313 299v53c-49.333 -59.333 -101.666 -103.833 -156.999 -133.5s-122.333 -44.5 -201 -44.5c-64.667 0 -126.167 11.667 -184.5 35
s-110.166 56.166 -155.499 98.499s-81.333 96.166 -108 161.499s-40 137.666 -40 216.999v4c0 79.333 13.5 151.833 40.5 217.5s63.333 119.667 109 162s97.667 75 156 98s119.166 34.5 182.499 34.5c78.667 0 145.334 -14.167 200.001 -42.5s106 -68.833 154 -121.5v144
h311v-850c0 -195.333 -46.333 -339.333 -139 -432c-98.667 -98.667 -256.334 -148 -473.001 -148zM667.999 348.003c76.667 0 140.5 23.833 191.5 71.5s76.5 108.5 76.5 182.5v4c0 74 -25.5 134.833 -76.5 182.5s-114.833 71.5 -191.5 71.5s-140.334 -23.667 -191.001 -71
s-76 -108.333 -76 -183v-4c0 -75.333 25.333 -136.5 76 -183.5s114.334 -70.5 191.001 -70.5z" />
    <glyph glyph-name="h" unicode="h" horiz-adv-x="1275" 
d="M139 0l-0.000976562 1495h312v-553c42.667 54.667 88.834 97.667 138.501 129s110.5 47 182.5 47c117.333 0 208.833 -36.167 274.5 -108.5s98.5 -171.833 98.5 -298.5v-711h-311v612c0 72.667 -16.5 128.167 -49.5 166.5s-79.5 57.5 -139.5 57.5
c-60.667 0 -108.167 -19.167 -142.5 -57.5s-51.5 -93.833 -51.5 -166.5v-612h-312z" />
    <glyph glyph-name="i" unicode="i" horiz-adv-x="618" 
d="M145 1219v276h328v-276h-328zM154 0v1098h311v-1098h-311z" />
    <glyph glyph-name="j" unicode="j" horiz-adv-x="618" 
d="M145 1219v276h328v-276h-328zM113 -334c-47.333 0 -92.667 4 -136 12v244c24.667 -4 46.667 -6 66 -6c74 0 111 42.333 111 127v1055h311v-1080c0 -234.667 -117.333 -352 -352 -352z" />
    <glyph glyph-name="k" unicode="k" horiz-adv-x="1212" 
d="M139 0v1495h312v-797l364 400h373l-418 -432l432 -666h-356l-287 449l-108 -115v-334h-312z" />
    <glyph glyph-name="l" unicode="l" horiz-adv-x="618" 
d="M154 0v1495h311v-1495h-311z" />
    <glyph glyph-name="m" unicode="m" horiz-adv-x="1945" 
d="M139 0v1098h312v-156c42.667 54.667 89.167 97.667 139.5 129s111.5 47 183.5 47c71.333 0 133.5 -15 186.5 -45s93.833 -73 122.5 -129c98.667 116 219 174 361 174c116.667 0 207.667 -34.5 273 -103.5s98 -168.833 98 -299.5v-715h-312v612
c0 73.333 -15.667 129 -47 167s-76.333 57 -135 57c-59.333 0 -105.5 -19.167 -138.5 -57.5s-49.5 -93.833 -49.5 -166.5v-612h-312v612c0 73.333 -15.667 129 -47 167s-76.333 57 -135 57c-59.333 0 -105.5 -19.167 -138.5 -57.5s-49.5 -93.833 -49.5 -166.5v-612h-312z
" />
    <glyph glyph-name="n" unicode="n" horiz-adv-x="1275" 
d="M139 0l-0.000976562 1098h312v-156c42.667 54.667 88.834 97.667 138.501 129s110.5 47 182.5 47c117.333 0 208.833 -36.167 274.5 -108.5s98.5 -171.833 98.5 -298.5v-711h-311v612c0 72.667 -16.5 128.167 -49.5 166.5s-79.5 57.5 -139.5 57.5
c-60.667 0 -108.167 -19.167 -142.5 -57.5s-51.5 -93.833 -51.5 -166.5v-612h-312z" />
    <glyph glyph-name="o" unicode="o" horiz-adv-x="1359" 
d="M678 -25c-111.333 0 -212.333 25.3311 -303 75.998s-161.5 119.334 -212.5 206.001s-76.5 182 -76.5 286v4c0 78 15.167 152 45.5 222s71.666 130.667 123.999 182s115.5 92 189.5 122s153 45 237 45c111.333 0 212.333 -25.167 303 -75.5s161.5 -118.833 212.5 -205.5
s76.5 -182 76.5 -286v-4c0 -104 -25.667 -199.667 -77 -287s-122.666 -156.666 -213.999 -207.999s-193 -77 -305 -77zM682 243.998c86 0 155 28.833 207 86.5s78 128.5 78 212.5v4c0 83.333 -27.167 154.666 -81.5 213.999s-123.5 89 -207.5 89
c-86 0 -155 -28.833 -207 -86.5s-78 -128.5 -78 -212.5v-4c0 -83.333 27.167 -154.666 81.5 -213.999s123.5 -89 207.5 -89z" />
    <glyph glyph-name="p" unicode="p" horiz-adv-x="1382" 
d="M139 -328v1426h312v-158c88.667 118.667 202.667 178 342 178c64.667 0 126.667 -12.5 186 -37.5s112.333 -60.833 159 -107.5s84 -106.5 112 -179.5s42 -153.833 42 -242.5v-4c0 -88.667 -13.667 -169.5 -41 -242.5s-64.333 -132.833 -111 -179.5
s-99.667 -82.5 -159 -107.5s-122 -37.5 -188 -37.5c-136.667 0 -250.667 54.333 -342 163v-471h-312zM713 244c74.667 0 138 27.9971 190 83.9971s78 129 78 219v4c0 88.667 -26 161.334 -78 218.001s-115.333 85 -190 85c-74 0 -137 -28.167 -189 -84.5
s-78 -129.166 -78 -218.499v-4c0 -89.333 26 -162.166 78 -218.499s115 -84.5 189 -84.5z" />
    <glyph glyph-name="q" unicode="q" horiz-adv-x="1382" 
d="M932 -328l-0.000976562 486c-88.667 -118.667 -202.667 -178 -342 -178c-64.667 0 -126.667 12.5 -186 37.5s-112.5 60.833 -159.5 107.5s-84.5 106.5 -112.5 179.5s-42 153.833 -42 242.5v4c0 88.667 13.833 169.5 41.5 242.5s64.834 132.833 111.501 179.5
s99.667 82.5 159 107.5s122 37.5 188 37.5c136 0 250 -54.667 342 -164v144h311v-1426h-311zM669.999 244c74 0 136.833 28.1689 188.5 84.502s77.5 129.166 77.5 218.499v4c0 89.333 -25.833 162.166 -77.5 218.499s-114.5 84.5 -188.5 84.5
c-74.667 0 -138.167 -28.167 -190.5 -84.5s-78.5 -129.166 -78.5 -218.499v-4c0 -88.667 26.167 -161.334 78.5 -218.001s115.833 -85 190.5 -85z" />
    <glyph glyph-name="r" unicode="r" horiz-adv-x="856" 
d="M139 0v1098h312v-221c69.333 168 186 248.333 350 241v-325h-17c-106 0 -188 -32.333 -246 -97s-87 -161.334 -87 -290.001v-406h-312z" />
    <glyph glyph-name="s" unicode="s" horiz-adv-x="1028" 
d="M524 -20c-80.667 0 -161.832 13.665 -243.499 40.998s-157.5 68.666 -227.5 123.999l133 205c120.667 -87.333 236 -131 346 -131c44 0 77 7.33301 99 22s33 34.667 33 60v4c0 7.33301 -1.16699 14.333 -3.5 21s-6.16602 12.834 -11.499 18.501
s-10.833 10.834 -16.5 15.501s-13.667 9.33398 -24 14.001l-27.5 12c-8 3.33301 -18.833 7.33301 -32.5 12s-25.167 8.33398 -34.5 11.001l-38.5 11.5c-16.333 5 -29.5 8.83301 -39.5 11.5c-36 10.667 -67.333 21.167 -94 31.5s-55.5 24.666 -86.5 42.999
s-56.5 38.5 -76.5 60.5s-36.667 49.833 -50 83.5s-20 70.834 -20 111.501v4c0 108 38.167 193 114.5 255s171.833 93 286.5 93c69.333 0 140.166 -11.167 212.499 -33.5s138.166 -53.5 197.499 -93.5l-119 -215c-117.333 68 -216.333 102 -297 102c-36.667 0 -65 -7 -85 -21
s-30 -32 -30 -54v-4c0 -17.333 9.5 -33.5 28.5 -48.5s40 -27 63 -36s55.833 -20.833 98.5 -35.5c14.667 -4.66699 25.667 -8.33398 33 -11.001c36.667 -12 68.167 -23.333 94.5 -34s55.666 -25.5 87.999 -44.5s58.333 -39.167 78 -60.5s36.5 -48.166 50.5 -80.499
s21 -67.833 21 -106.5v-4c0 -116.667 -38.667 -204.834 -116 -264.501s-178.666 -89.5 -303.999 -89.5z" />
    <glyph glyph-name="t" unicode="t" horiz-adv-x="849" 
d="M510 -18c-102.667 0 -181.667 24.833 -237 74.5s-83 134.5 -83 254.5v520h-131v267h131v280h312v-280h258v-267h-258v-469c0 -36 8 -62.667 24 -80s41.333 -26 76 -26c56 0 107.333 13 154 39v-250c-71.333 -42 -153.333 -63 -246 -63z" />
    <glyph glyph-name="u" unicode="u" horiz-adv-x="1275" 
d="M504 -20c-117.333 0 -208.832 36.167 -274.499 108.5s-98.5 171.833 -98.5 298.5v711h311v-613c0 -72.667 16.5 -128 49.5 -166s79.5 -57 139.5 -57c60.667 0 108.167 19.167 142.5 57.5s51.5 93.5 51.5 165.5v613h312v-1098h-312v156
c-42.667 -54.667 -88.834 -97.667 -138.501 -129s-110.5 -47 -182.5 -47z" />
    <glyph glyph-name="v" unicode="v" horiz-adv-x="1228" 
d="M473 -8l-432 1106h330l245 -736l248 736h324l-432 -1106h-283z" />
    <glyph glyph-name="w" unicode="w" horiz-adv-x="1763" 
d="M387 -8l-338 1106h316l176 -666l207 670h268l209 -672l180 668h309l-342 -1106h-280l-211 674l-215 -674h-279z" />
    <glyph glyph-name="x" unicode="x" horiz-adv-x="1196" 
d="M815 0l-221 342l-221 -342h-326l385 557l-371 541h334l205 -322l207 322h326l-371 -537l387 -561h-334z" />
    <glyph glyph-name="y" unicode="y" horiz-adv-x="1228" 
d="M401 -334c-98 0 -189.998 25.334 -275.998 76.001l104 225c47.333 -28.667 91.666 -43 132.999 -43c26.667 0 48.167 5.16699 64.5 15.5s31.166 29.166 44.499 56.499l-430 1102h330l250 -748l239 748h324l-422 -1125c-42.667 -112.667 -90.5 -192 -143.5 -238
s-125.5 -69 -217.5 -69z" />
    <glyph glyph-name="z" unicode="z" horiz-adv-x="1153" 
d="M102 0v219l568 627h-549v252h936v-219l-570 -627h570v-252h-955z" />
    <glyph glyph-name="braceleft" unicode="{" horiz-adv-x="1003" 
d="M852 -289c-92.667 16 -170.336 36.3281 -233.003 60.9951s-111.834 54.334 -147.501 89.001s-61 72.334 -76 113.001s-22.5 88.334 -22.5 143.001c0 10 1 33 3 69s3 60 3 72c0 78.667 -17.167 133.5 -51.5 164.5s-92.166 46.5 -173.499 46.5h-54v238h54
c81.333 0 139.166 15.5 173.499 46.5s51.5 85.833 51.5 164.5c0 12 -1 36 -3 72s-3 59 -3 69c0 54.667 7.5 102.334 22.5 143.001s40.333 78.167 76 112.5s84.834 63.833 147.501 88.5s140.334 45 233.001 61l55 -207c-54 -15.333 -97.5 -30.5 -130.5 -45.5
s-58.333 -32.5 -76 -52.5s-29.334 -40.667 -35.001 -62s-8.5 -49 -8.5 -83c0 -13.333 1.16699 -38.333 3.5 -75s3.5 -62.334 3.5 -77.001c0 -72.667 -17.667 -130.667 -53 -174s-88.666 -76.666 -159.999 -99.999c70.667 -23.333 123.834 -56.833 159.501 -100.5
s53.5 -101.834 53.5 -174.501c0 -14.667 -1.16699 -40.167 -3.5 -76.5s-3.5 -61.166 -3.5 -74.499c0 -34 2.83301 -61.667 8.5 -83s17.334 -42.166 35.001 -62.499s43 -38 76 -53s76.5 -30.167 130.5 -45.5z" />
    <glyph glyph-name="bar" unicode="|" horiz-adv-x="716" 
d="M236 -262v1896h245v-1896h-245z" />
    <glyph glyph-name="braceright" unicode="}" horiz-adv-x="1003" 
d="M152 -289l-56.002 207.005c54 15.333 97.5 30.5 130.5 45.5s58.333 32.667 76 53s29.334 41.166 35.001 62.499s8.5 49 8.5 83c0 13.333 -1 38.166 -3 74.499s-3 61.833 -3 76.5c0 72.667 17.833 130.834 53.5 174.501s88.834 77.167 159.501 100.5
c-71.333 23.333 -124.666 56.666 -159.999 99.999s-53 101.333 -53 174c0 14.667 1 40.334 3 77.001s3 61.667 3 75c0 34 -2.83301 61.667 -8.5 83s-17.334 42 -35.001 62s-43 37.5 -76 52.5s-76.5 30.167 -130.5 45.5l56 207c92.667 -16 170.334 -36.333 233.001 -61
s111.834 -54.167 147.501 -88.5s61 -71.833 76 -112.5s22.5 -88.334 22.5 -143.001c0 -10 -1 -33 -3 -69s-3 -60 -3 -72c0 -78.667 17.167 -133.5 51.5 -164.5s92.166 -46.5 173.499 -46.5h53v-238h-53c-81.333 0 -139.166 -15.5 -173.499 -46.5s-51.5 -85.833 -51.5 -164.5
c0 -12 1 -36 3 -72s3 -59 3 -69c0 -54.667 -7.5 -102.334 -22.5 -143.001s-40.333 -78.334 -76 -113.001s-84.834 -64.334 -147.501 -89.001s-140.334 -45 -233.001 -61z" />
    <glyph glyph-name="asciitilde" unicode="~" horiz-adv-x="1044" 
d="M266 459l-166.001 51c26 94 58 164.667 96 212s90.667 71 158 71c36 0 74.5 -6.66699 115.5 -20s78.5 -26.666 112.5 -39.999s60.667 -20 80 -20c29.333 0 52 7.66699 68 23s32 41 48 77l166 -51c-26 -94 -58 -164.667 -96 -212s-90.667 -71 -158 -71
c-36 0 -74.333 6.66699 -115 20s-78 26.666 -112 39.999s-60.667 20 -80 20c-29.333 0 -52.166 -7.66699 -68.499 -23s-32.5 -41 -48.5 -77z" />
    <glyph glyph-name="uni00A0" unicode="&#xa0;" horiz-adv-x="614" 
 />
    <glyph glyph-name="exclamdown" unicode="&#xa1;" horiz-adv-x="663" 
d="M166 1106v328h332v-328h-332zM150 0v41l96 905h172l96 -905v-41h-364z" />
    <glyph glyph-name="cent" unicode="&#xa2;" horiz-adv-x="1189" 
d="M639 -12l-213.001 0.00195312l39 200c-109.333 40.667 -198.166 109.5 -266.499 206.5s-102.5 206.5 -102.5 328.5v4c0 104 24.5 199.5 73.5 286.5s117.5 156.167 205.5 207.5s186.333 77 295 77h12l29 148h213l-37 -180c88.667 -30.667 163 -81.334 223 -152.001
l-184 -199c-33.333 33.333 -67 58.666 -101 75.999l-110 -565c74.667 10.667 147.667 49 219 115l176 -179c-119.333 -134 -265.333 -202.667 -438 -206zM396.999 727.002c0 -58.667 11.333 -111.333 34 -158s55 -82.667 97 -108l111 567
c-70 -4.66699 -127.833 -35.667 -173.5 -93s-68.5 -125.333 -68.5 -204v-4z" />
    <glyph glyph-name="sterling" unicode="&#xa3;" horiz-adv-x="1318" 
d="M123 0l0.000976562 207l156 51v289h-156v260h156v166c0 152 40.667 268.667 122 350c87.333 87.333 208.333 131 363 131c107.333 0 197.333 -20.667 270 -62s136.334 -99 191.001 -173l-240 -193c-36.667 47.333 -71.334 81.666 -104.001 102.999
s-70.334 32 -113.001 32c-48 0 -87 -15 -117 -45c-35.333 -35.333 -53 -85.666 -53 -150.999v-158h467v-260h-467v-275h623v-272h-1098z" />
    <glyph glyph-name="yen" unicode="&#xa5;" horiz-adv-x="1404" 
d="M174 537v221h293l-438 676h362l314 -531l319 531h352l-440 -676h295v-221h-377v-127h377v-222h-377v-188h-303v188h-377v222h377v127h-377z" />
    <glyph glyph-name="section" unicode="&#xa7;" horiz-adv-x="1294" 
d="M666 -20c-200 0 -359.333 64.668 -478 194.001l168 168c98.667 -90 199 -135 301 -135c44.667 0 78.5 6.66699 101.5 20s34.5 31.333 34.5 54v4c0 24 -15.5 43.833 -46.5 59.5s-90.833 33.167 -179.5 52.5c-164.667 36.667 -281.5 77.667 -350.5 123
s-103.5 106 -103.5 182v5c0 113.333 60.667 193 182 239c-57.333 46 -86 108.333 -86 187v4c0 98 37.333 175.333 112 232s177.334 85 308.001 85c199.333 0 358.333 -64.667 477 -194l-168 -168c-98.667 90 -199 135 -301 135c-42.667 0 -75.834 -6.66699 -99.501 -20
s-35.5 -31.333 -35.5 -54v-4c0 -23.333 14.5 -43 43.5 -59s89.5 -34 181.5 -54c166 -36.667 283.333 -77.334 352 -122.001s103 -105.667 103 -183v-4c0 -114 -61 -194 -183 -240c27.333 -21.333 48.5 -48.5 63.5 -81.5s22.5 -67.833 22.5 -104.5v-4
c0 -97.333 -36.833 -174.5 -110.5 -231.5s-176.5 -85.5 -308.5 -85.5zM797 592.001c32.667 0 59.5 8 80.5 24s31.5 38 31.5 66v4c0 25.333 -16.167 47 -48.5 65s-85.166 36 -158.499 54c-96.667 24.667 -164.667 37 -204 37c-32.667 0 -59.667 -8 -81 -24s-32 -38 -32 -66
v-4c0 -25.333 16.167 -47 48.5 -65s85.166 -36 158.499 -54c96.667 -24.667 165 -37 205 -37z" />
    <glyph glyph-name="dieresis" unicode="&#xa8;" 
d="M575 1219v276h299v-276h-299zM150 1219v276h299v-276h-299z" />
    <glyph glyph-name="copyright" unicode="&#xa9;" horiz-adv-x="1699" 
d="M848 -25c-102 0 -198.833 19.667 -290.5 59s-170.167 92.166 -235.5 158.499s-117.166 144.833 -155.499 235.5s-57.5 185.667 -57.5 285v4c0 99.333 19.333 194.5 58 285.5s91 169.833 157 236.5s145 119.834 237 159.501s189 59.5 291 59.5s198.833 -19.667 290.5 -59
s170.167 -92 235.5 -158s117.166 -144.333 155.499 -235s57.5 -185.667 57.5 -285v-4c0 -99.333 -19.333 -194.5 -58 -285.5s-91 -170 -157 -237s-145 -120.333 -237 -160s-189 -59.5 -291 -59.5zM848 57c92 0 178.835 17.502 260.502 52.502s151.334 82.167 209.001 141.5
s103.334 129.5 137.001 210.5s50.5 166.167 50.5 255.5v4c0 119.333 -28.167 229 -84.5 329s-134.666 179.333 -234.999 238s-211.5 88 -333.5 88c-92 0 -178.833 -17.5 -260.5 -52.5s-151.334 -82 -209.001 -141s-103.334 -129 -137.001 -210s-50.5 -166.167 -50.5 -255.5
v-4c0 -89.333 16.667 -174.333 50 -255s78.666 -150.334 135.999 -209.001s126.666 -105.334 207.999 -140.001s167.666 -52 258.999 -52zM858.002 319.002c-114.667 0 -210.499 39 -287.499 117s-115.5 173.667 -115.5 287v4c0 114 38.5 210.5 115.5 289.5
s174.833 118.5 293.5 118.5c70.667 0 130.167 -10.333 178.5 -31s92.833 -50.667 133.5 -90l-113 -131c-65.333 58.667 -131.666 88 -198.999 88c-64.667 0 -118.334 -23.5 -161.001 -70.5s-64 -104.167 -64 -171.5v-4c0 -66.667 21.167 -123.667 63.5 -171
s96.166 -71 161.499 -71c40.667 0 76 7.5 106 22.5s62.333 38.167 97 69.5l115 -114c-44 -47.333 -91 -82.833 -141 -106.5s-111 -35.5 -183 -35.5z" />
    <glyph glyph-name="ordfeminine" unicode="&#xaa;" horiz-adv-x="798" 
d="M313 817c-60 0 -109.498 16.334 -148.498 49.001s-58.5 77.667 -58.5 135v5c0 63.333 22 111.166 66 143.499s103.333 48.5 178 48.5c49.333 0 98.666 -8 147.999 -24v10c0 35.333 -11.167 62.5 -33.5 81.5s-54.833 28.5 -97.5 28.5c-52 0 -107.333 -10.667 -166 -32
l-43 129c71.333 32.667 149 49 233 49c91.333 0 159.666 -22.667 204.999 -68c44 -44 66 -108 66 -192v-351h-166v66c-45.333 -52 -106.333 -78 -183 -78zM100.002 567.001v135h570v-135h-570zM365.002 936.001c40 0 72.501 10 97.501 30s37.5 45.333 37.5 76v31
c-39.333 15.333 -76.333 23 -111 23c-36.667 0 -65.334 -7.16699 -86.001 -21.5s-31 -34.5 -31 -60.5v-4c0 -22.667 8.5 -40.667 25.5 -54s39.5 -20 67.5 -20z" />
    <glyph glyph-name="guillemotleft" unicode="&#xab;" horiz-adv-x="1320" 
d="M985 82l-344 459v16l344 459l238 -115l-267 -350l267 -350zM428 82l-344 459v16l344 459l238 -115l-267 -350l267 -350z" />
    <glyph glyph-name="registered" unicode="&#xae;" horiz-adv-x="753" 
d="M377 737c-100 0 -184.501 35 -253.501 105s-103.5 154 -103.5 252v2c0 98 34.833 182.167 104.5 252.5s153.834 105.5 252.501 105.5c100 0 184.333 -34.833 253 -104.5s103 -153.5 103 -251.5v-2c0 -98 -34.667 -182.333 -104 -253s-153.333 -106 -252 -106z
M376.999 776c88 0 162.499 31.333 223.499 94s91.5 138 91.5 226v2c0 88 -30.167 162.833 -90.5 224.5s-135.166 92.5 -224.499 92.5c-88.667 0 -163.5 -31.333 -224.5 -94s-91.5 -137.667 -91.5 -225v-2c0 -88 30.333 -163 91 -225s135.667 -93 225 -93zM220.998 913
v377.001h180c48 0 86.333 -10.5 115 -31.5s43 -52.833 43 -95.5c0 -28.667 -7 -53.334 -21 -74.001s-33 -35.667 -57 -45l90 -131h-122l-76 113h-45v-113h-107zM327.998 1110h67c18 0 32.167 4 42.5 12s15.5 19 15.5 33c0 30 -19.333 45 -58 45h-67v-90z" />
    <glyph glyph-name="macron" unicode="&#xaf;" 
d="M143 1229v215h738v-215h-738z" />
    <glyph glyph-name="degree" unicode="&#xb0;" horiz-adv-x="983" 
d="M492 754c-61.333 0 -119.333 15.5 -174 46.5s-98.5 73.167 -131.5 126.5s-49.5 110.333 -49.5 171v4c0 60.667 16.5 117.667 49.5 171s76.833 95.5 131.5 126.5s112.667 46.5 174 46.5c93.333 0 175.666 -34.167 246.999 -102.5s107 -148.833 107 -241.5v-4
c0 -92.667 -35.667 -173.167 -107 -241.5s-153.666 -102.5 -246.999 -102.5zM492 907c53.333 0 98 18.833 134 56.5s54 82.5 54 134.5v4c0 52 -18 96.667 -54 134s-80.667 56 -134 56s-98.166 -18.667 -134.499 -56s-54.5 -82 -54.5 -134v-4
c0 -52 18.167 -96.833 54.5 -134.5s81.166 -56.5 134.499 -56.5z" />
    <glyph glyph-name="plusminus" unicode="&#xb1;" horiz-adv-x="1310" 
d="M1161 776l-368 2l2 -362h-279l2 362l-368 -2v271l368 -3l-2 363h279l-2 -363l368 3v-271zM1161 0h-1011v258h1011v-258z" />
    <glyph glyph-name="acute" unicode="&#xb4;" 
d="M303 1219l227 362l269 -117l-267 -245h-229z" />
    <glyph glyph-name="paragraph" unicode="&#xb6;" horiz-adv-x="1208" 
d="M721 0v471h-49c-116.667 0 -219.5 17.333 -308.5 52s-159.833 88.5 -212.5 161.5s-79 160.833 -79 263.5v4c0 148.667 51.667 266.167 155 352.5s240 129.5 410 129.5h399v-1434h-315z" />
    <glyph glyph-name="periodcentered" unicode="&#xb7;" horiz-adv-x="585" 
d="M127 471v328h332v-328h-332z" />
    <glyph glyph-name="cedilla" unicode="&#xb8;" 
d="M502 -354l-260 108l196 287h224z" />
    <glyph glyph-name="ordmasculine" unicode="&#xba;" horiz-adv-x="798" 
d="M397 815c-89.333 0 -163.834 30 -223.501 90s-89.5 133.667 -89.5 221v4c0 87.333 30.5 161.5 91.5 222.5s136.167 91.5 225.5 91.5s164 -30 224 -90s90 -133.667 90 -221v-5c0 -87.333 -30.667 -161.333 -92 -222s-136.666 -91 -225.999 -91zM103.999 567v135h590v-135
h-590zM400.999 963c44 0 79.333 15.832 106 47.499s40 70.167 40 115.5v4c0 45.333 -14 84.333 -42 117s-64 49 -108 49c-43.333 0 -78.333 -15.833 -105 -47.5s-40 -70.167 -40 -115.5v-5c0 -45.333 13.833 -84.166 41.5 -116.499s63.5 -48.5 107.5 -48.5z" />
    <glyph glyph-name="guillemotright" unicode="&#xbb;" horiz-adv-x="1320" 
d="M893 82l-238 115l267 350l-267 350l238 119l344 -459v-16zM336 82l-238 115l267 350l-267 350l238 119l344 -459v-16z" />
    <glyph glyph-name="questiondown" unicode="&#xbf;" horiz-adv-x="1114" 
d="M446 1106v328h332v-328h-332zM571 -18c-150 0 -269.998 37.166 -359.998 111.499s-135 178.5 -135 312.5v4c0 62.667 10.167 118.167 30.5 166.5s49.666 88.333 87.999 120s80.5 57.334 126.5 77.001s98.667 35.5 158 47.5l23 125h209l47 -332l-10 -10
c-125.333 -4.66699 -216.5 -22.667 -273.5 -54s-85.5 -75.333 -85.5 -132v-4c0 -46 16.667 -81.833 50 -107.5s79.666 -38.5 138.999 -38.5c110 0 212.333 47.333 307 142l188 -207c-134 -147.333 -301.333 -221 -502 -221z" />
    <glyph glyph-name="Agrave" unicode="&#xc0;" horiz-adv-x="1617" 
d="M49 0l615 1444h290l615 -1444h-330l-131 322h-606l-131 -322h-322zM614 600h381l-190 465zM688 1888l248 -321h-238l-278 205z" />
    <glyph glyph-name="Aacute" unicode="&#xc1;" horiz-adv-x="1617" 
d="M49 0l615 1444h290l615 -1444h-330l-131 322h-606l-131 -322h-322zM614 600h381l-190 465zM682 1567l248 321l268 -116l-278 -205h-238z" />
    <glyph glyph-name="Acircumflex" unicode="&#xc2;" horiz-adv-x="1617" 
d="M49 0l615 1444h290l615 -1444h-330l-131 322h-606l-131 -322h-322zM614 600h381l-190 465zM399 1556l263 302h294l263 -302h-250l-162 115l-162 -115h-246z" />
    <glyph glyph-name="Atilde" unicode="&#xc3;" horiz-adv-x="1617" 
d="M49 0l615 1444h290l615 -1444h-330l-131 322h-606l-131 -322h-322zM614 600h381l-190 465zM555 1546l-166 50.999c25.333 93.333 57.5 163.833 96.5 211.5s92.167 71.5 159.5 71.5c36 0 75.5 -6.66699 118.5 -20s82.5 -26.666 118.5 -39.999s63.667 -20 83 -20
c29.333 0 52.333 7.83301 69 23.5s33 41.5 49 77.5l166 -52c-25.333 -93.333 -57.5 -163.666 -96.5 -210.999s-92.167 -71 -159.5 -71c-36 0 -75.333 6.66699 -118 20s-82 26.666 -118 39.999s-63.667 20 -83 20c-30 0 -53.333 -7.83301 -70 -23.5s-33 -41.5 -49 -77.5z" />
    <glyph glyph-name="Adieresis" unicode="&#xc4;" horiz-adv-x="1617" 
d="M49 0l615 1444h290l615 -1444h-330l-131 322h-606l-131 -322h-322zM614 600h381l-190 465zM883 1567v260h299v-260h-299zM436 1567v260h299v-260h-299z" />
    <glyph glyph-name="Aring" unicode="&#xc5;" horiz-adv-x="1617" 
d="M555 1520c0 65.333 24.833 119.166 74.5 161.499s109.5 63.5 179.5 63.5s129.833 -21.167 179.5 -63.5s74.5 -96.166 74.5 -161.499c0 -63.333 -24 -116.666 -72 -159.999l578 -1360h-330l-131 322h-606l-131 -322h-322l578 1360c-48 41.333 -72 94.666 -72 159.999z
M614 600h381l-190 465zM680 1520c0 -32 12 -59.167 36 -81.5s55 -33.5 93 -33.5s69 11.167 93 33.5s36 49.5 36 81.5s-12 59 -36 81s-55 33 -93 33s-69 -11 -93 -33s-36 -49 -36 -81z" />
    <glyph glyph-name="AE" unicode="&#xc6;" horiz-adv-x="2140" 
d="M18 0l773 1434h1230v-281h-716v-291h624v-280h-624v-301h727v-281h-1041v322h-481l-170 -322h-322zM657 600h334v561h-37z" />
    <glyph glyph-name="Ccedilla" unicode="&#xc7;" horiz-adv-x="1511" 
d="M764 -354l-260.001 108.001l164 242c-165.333 37.333 -299.833 122.166 -403.5 254.499s-155.5 286.5 -155.5 462.5v4c0 135.333 31.333 259.333 94 372s151.334 202.334 266.001 269.001s243.667 100 387 100c126.667 0 234.334 -19 323.001 -57
s169.334 -92.667 242.001 -164l-200 -231c-58.667 52.667 -117.334 92.667 -176.001 120s-122.334 41 -191.001 41c-119.333 0 -218.5 -43.167 -297.5 -129.5s-118.5 -191.833 -118.5 -316.5v-4c0 -125.333 39.167 -231.833 117.5 -319.5s177.833 -131.5 298.5 -131.5
c76 0 142 13.667 198 41s115.667 69.666 179 126.999l201 -203c-73.333 -78.667 -151.833 -139.167 -235.5 -181.5s-183.5 -66.5 -299.5 -72.5z" />
    <glyph glyph-name="Egrave" unicode="&#xc8;" horiz-adv-x="1372" 
d="M172 0v1434h1081v-281h-768v-291h676v-280h-676v-301h779v-281h-1092zM596 1868l248 -322h-238l-278 205z" />
    <glyph glyph-name="Eacute" unicode="&#xc9;" horiz-adv-x="1372" 
d="M172 0v1434h1081v-281h-768v-291h676v-280h-676v-301h779v-281h-1092zM590 1546l248 322l268 -117l-279 -205h-237z" />
    <glyph glyph-name="Ecircumflex" unicode="&#xca;" horiz-adv-x="1372" 
d="M172 0v1434h1081v-281h-768v-291h676v-280h-676v-301h779v-281h-1092zM307 1546l262 301h295l262 -301h-249l-162 115l-162 -115h-246z" />
    <glyph glyph-name="Edieresis" unicode="&#xcb;" horiz-adv-x="1372" 
d="M172 0v1434h1081v-281h-768v-291h676v-280h-676v-301h779v-281h-1092zM791 1546v260h299v-260h-299zM344 1546v260h299v-260h-299z" />
    <glyph glyph-name="Igrave" unicode="&#xcc;" horiz-adv-x="688" 
d="M186 0v1434h316v-1434h-316zM223 1868l248 -322h-238l-278 205z" />
    <glyph glyph-name="Iacute" unicode="&#xcd;" horiz-adv-x="688" 
d="M186 0v1434h316v-1434h-316zM217 1546l248 322l268 -117l-278 -205h-238z" />
    <glyph glyph-name="Icircumflex" unicode="&#xce;" horiz-adv-x="688" 
d="M186 0v1434h316v-1434h-316zM-66 1546l263 301h295l262 -301h-250l-162 115l-162 -115h-246z" />
    <glyph glyph-name="Idieresis" unicode="&#xcf;" horiz-adv-x="688" 
d="M186 0v1434h316v-1434h-316zM418 1546v260h299v-260h-299zM-29 1546v260h299v-260h-299z" />
    <glyph glyph-name="Eth" unicode="&#xd0;" horiz-adv-x="1662" 
d="M233 0v582h-153v278h153v574h560c110.667 0 213.5 -18.333 308.5 -55s175.5 -86.667 241.5 -150s117.667 -138.833 155 -226.5s56 -181.5 56 -281.5v-4c0 -100 -18.667 -194 -56 -282s-89 -164 -155 -228s-146.5 -114.5 -241.5 -151.5s-197.833 -55.5 -308.5 -55.5h-560z
M545 285l248 0.000976562c128.667 0 232.834 39.5 312.501 118.5s119.5 182.167 119.5 309.5v4c0 127.333 -39.833 231.166 -119.5 311.499s-183.834 120.5 -312.501 120.5h-248v-289h311v-278h-311v-297z" />
    <glyph glyph-name="Ntilde" unicode="&#xd1;" horiz-adv-x="1617" 
d="M172 0v1434h291l672 -883v883h311v-1434h-268l-695 911v-911h-311zM555 1526l-166 51c25.333 93.333 57.5 163.833 96.5 211.5s92.167 71.5 159.5 71.5c36 0 75.5 -6.66699 118.5 -20s82.5 -26.666 118.5 -39.999s63.667 -20 83 -20c30 0 53.167 7.66699 69.5 23
s32.5 41 48.5 77l166 -51c-25.333 -93.333 -57.5 -163.833 -96.5 -211.5s-92.167 -71.5 -159.5 -71.5c-36 0 -75.333 6.66699 -118 20s-82 26.666 -118 39.999s-63.667 20 -83 20c-30 0 -53.5 -7.83301 -70.5 -23.5s-33.167 -41.167 -48.5 -76.5z" />
    <glyph glyph-name="Ograve" unicode="&#xd2;" horiz-adv-x="1740" 
d="M868 -25c-108 0 -209.5 19.332 -304.5 57.999s-175.5 91.167 -241.5 157.5s-118 144.833 -156 235.5s-57 186.334 -57 287.001v4c0 100.667 19.167 196.5 57.5 287.5s90.833 169.833 157.5 236.5s147.667 119.5 243 158.5s197 58.5 305 58.5c144 0 274.333 -33 391 -99
s207.334 -155.167 272.001 -267.5s97 -235.833 97 -370.5v-4c0 -100.667 -19.333 -196.5 -58 -287.5s-91.334 -169.833 -158.001 -236.5s-147.667 -119.667 -243 -159s-197 -59 -305 -59zM872 265.999c82.667 0 157.164 20.166 223.497 60.499s117.5 94.5 153.5 162.5
s54 142.667 54 224v4c0 124.667 -41.167 230.834 -123.5 318.501s-186.166 131.5 -311.499 131.5c-82.667 0 -157 -20 -223 -60s-117 -94 -153 -162s-54 -142.667 -54 -224v-4c0 -81.333 18.333 -156.333 55 -225s88.334 -123.5 155.001 -164.5s141.334 -61.5 224.001 -61.5
zM749.997 1888l247 -321h-237l-279 205z" />
    <glyph glyph-name="Oacute" unicode="&#xd3;" horiz-adv-x="1740" 
d="M868 -25c-108 0 -209.5 19.332 -304.5 57.999s-175.5 91.167 -241.5 157.5s-118 144.833 -156 235.5s-57 186.334 -57 287.001v4c0 100.667 19.167 196.5 57.5 287.5s90.833 169.833 157.5 236.5s147.667 119.5 243 158.5s197 58.5 305 58.5c144 0 274.333 -33 391 -99
s207.334 -155.167 272.001 -267.5s97 -235.833 97 -370.5v-4c0 -100.667 -19.333 -196.5 -58 -287.5s-91.334 -169.833 -158.001 -236.5s-147.667 -119.667 -243 -159s-197 -59 -305 -59zM872 265.999c82.667 0 157.164 20.166 223.497 60.499s117.5 94.5 153.5 162.5
s54 142.667 54 224v4c0 124.667 -41.167 230.834 -123.5 318.501s-186.166 131.5 -311.499 131.5c-82.667 0 -157 -20 -223 -60s-117 -94 -153 -162s-54 -142.667 -54 -224v-4c0 -81.333 18.333 -156.333 55 -225s88.334 -123.5 155.001 -164.5s141.334 -61.5 224.001 -61.5
zM742.997 1567l248 321l269 -116l-279 -205h-238z" />
    <glyph glyph-name="Ocircumflex" unicode="&#xd4;" horiz-adv-x="1740" 
d="M868 -25c-108 0 -209.5 19.332 -304.5 57.999s-175.5 91.167 -241.5 157.5s-118 144.833 -156 235.5s-57 186.334 -57 287.001v4c0 100.667 19.167 196.5 57.5 287.5s90.833 169.833 157.5 236.5s147.667 119.5 243 158.5s197 58.5 305 58.5c144 0 274.333 -33 391 -99
s207.334 -155.167 272.001 -267.5s97 -235.833 97 -370.5v-4c0 -100.667 -19.333 -196.5 -58 -287.5s-91.334 -169.833 -158.001 -236.5s-147.667 -119.667 -243 -159s-197 -59 -305 -59zM872 265.999c82.667 0 157.164 20.166 223.497 60.499s117.5 94.5 153.5 162.5
s54 142.667 54 224v4c0 124.667 -41.167 230.834 -123.5 318.501s-186.166 131.5 -311.499 131.5c-82.667 0 -157 -20 -223 -60s-117 -94 -153 -162s-54 -142.667 -54 -224v-4c0 -81.333 18.333 -156.333 55 -225s88.334 -123.5 155.001 -164.5s141.334 -61.5 224.001 -61.5
zM460.997 1567l262 301h295l262 -301h-250l-162 114l-161 -114h-246z" />
    <glyph glyph-name="Otilde" unicode="&#xd5;" horiz-adv-x="1740" 
d="M868 -25c-108 0 -209.5 19.332 -304.5 57.999s-175.5 91.167 -241.5 157.5s-118 144.833 -156 235.5s-57 186.334 -57 287.001v4c0 100.667 19.167 196.5 57.5 287.5s90.833 169.833 157.5 236.5s147.667 119.5 243 158.5s197 58.5 305 58.5c144 0 274.333 -33 391 -99
s207.334 -155.167 272.001 -267.5s97 -235.833 97 -370.5v-4c0 -100.667 -19.333 -196.5 -58 -287.5s-91.334 -169.833 -158.001 -236.5s-147.667 -119.667 -243 -159s-197 -59 -305 -59zM872 265.999c82.667 0 157.164 20.166 223.497 60.499s117.5 94.5 153.5 162.5
s54 142.667 54 224v4c0 124.667 -41.167 230.834 -123.5 318.501s-186.166 131.5 -311.499 131.5c-82.667 0 -157 -20 -223 -60s-117 -94 -153 -162s-54 -142.667 -54 -224v-4c0 -81.333 18.333 -156.333 55 -225s88.334 -123.5 155.001 -164.5s141.334 -61.5 224.001 -61.5
zM615.997 1546l-165 50.999c25.333 93.333 57.5 163.833 96.5 211.5s92.167 71.5 159.5 71.5c36 0 75.333 -6.66699 118 -20s82 -26.666 118 -39.999s63.667 -20 83 -20c30 0 53.333 7.83301 70 23.5s33 41.5 49 77.5l166 -52
c-25.333 -93.333 -57.5 -163.666 -96.5 -210.999s-92.167 -71 -159.5 -71c-36 0 -75.5 6.66699 -118.5 20s-82.5 26.666 -118.5 39.999s-63.667 20 -83 20c-30 0 -53.333 -7.83301 -70 -23.5s-33 -41.5 -49 -77.5z" />
    <glyph glyph-name="Odieresis" unicode="&#xd6;" horiz-adv-x="1740" 
d="M868 -25c-108 0 -209.5 19.332 -304.5 57.999s-175.5 91.167 -241.5 157.5s-118 144.833 -156 235.5s-57 186.334 -57 287.001v4c0 100.667 19.167 196.5 57.5 287.5s90.833 169.833 157.5 236.5s147.667 119.5 243 158.5s197 58.5 305 58.5c144 0 274.333 -33 391 -99
s207.334 -155.167 272.001 -267.5s97 -235.833 97 -370.5v-4c0 -100.667 -19.333 -196.5 -58 -287.5s-91.334 -169.833 -158.001 -236.5s-147.667 -119.667 -243 -159s-197 -59 -305 -59zM872 265.999c82.667 0 157.164 20.166 223.497 60.499s117.5 94.5 153.5 162.5
s54 142.667 54 224v4c0 124.667 -41.167 230.834 -123.5 318.501s-186.166 131.5 -311.499 131.5c-82.667 0 -157 -20 -223 -60s-117 -94 -153 -162s-54 -142.667 -54 -224v-4c0 -81.333 18.333 -156.333 55 -225s88.334 -123.5 155.001 -164.5s141.334 -61.5 224.001 -61.5
zM943.997 1567v260h299v-260h-299zM497.997 1567v260h299v-260h-299z" />
    <glyph glyph-name="multiply" unicode="&#xd7;" horiz-adv-x="1310" 
d="M971 211l-318 326l-317 -326l-191 190l326 318l-326 317l195 195l317 -326l318 326l190 -191l-325 -317l325 -317z" />
    <glyph glyph-name="Oslash" unicode="&#xd8;" horiz-adv-x="1740" 
d="M1348 1444l301.001 0.000976562l-201 -234c58.667 -65.333 104 -139.833 136 -223.5s48 -172.167 48 -265.5v-4c0 -100.667 -19.333 -196.5 -58 -287.5s-91.334 -169.833 -158.001 -236.5s-147.667 -119.667 -243 -159s-197 -59 -305 -59
c-146 0 -277.667 34.333 -395 103l-80 -88h-301l201 233c-58.667 64.667 -104 139.167 -136 223.5s-48 173.166 -48 266.499v4c0 100.667 19.167 196.5 57.5 287.5s90.833 169.833 157.5 236.5s147.667 119.5 243 158.5s197 58.5 305 58.5c142 0 274 -34 396 -102z
M872.001 260.001c126 0 230.333 43.999 313 131.999s124 195 124 321v4c0 90.667 -24 175.334 -72 254.001l-567 -662c62 -32.667 129.333 -49 202 -49zM432.001 717c0 -94 24 -178.667 72 -254l567 661c-63.333 33.333 -131 50 -203 50c-126 0 -230.167 -44 -312.5 -132
s-123.5 -195 -123.5 -321v-4z" />
    <glyph glyph-name="Ugrave" unicode="&#xd9;" horiz-adv-x="1548" 
d="M770 -23c-196 0 -348.333 54.168 -457 162.501s-163 266.5 -163 474.5v820h315v-811c0 -115.333 27 -203.333 81 -264s130 -91 228 -91s174 29.333 228 88s81 144 81 256v822h316v-809c0 -212.667 -55.5 -373.834 -166.5 -483.501s-265.167 -164.5 -462.5 -164.5z
M653 1868l248 -322h-237l-279 205z" />
    <glyph glyph-name="Uacute" unicode="&#xda;" horiz-adv-x="1548" 
d="M770 -23c-196 0 -348.333 54.168 -457 162.501s-163 266.5 -163 474.5v820h315v-811c0 -115.333 27 -203.333 81 -264s130 -91 228 -91s174 29.333 228 88s81 144 81 256v822h316v-809c0 -212.667 -55.5 -373.834 -166.5 -483.501s-265.167 -164.5 -462.5 -164.5z
M647 1546l248 322l268 -117l-278 -205h-238z" />
    <glyph glyph-name="Ucircumflex" unicode="&#xdb;" horiz-adv-x="1548" 
d="M770 -23c-196 0 -348.333 54.168 -457 162.501s-163 266.5 -163 474.5v820h315v-811c0 -115.333 27 -203.333 81 -264s130 -91 228 -91s174 29.333 228 88s81 144 81 256v822h316v-809c0 -212.667 -55.5 -373.834 -166.5 -483.501s-265.167 -164.5 -462.5 -164.5z
M365 1546l262 301h295l262 -301h-250l-162 115l-162 -115h-245z" />
    <glyph glyph-name="Udieresis" unicode="&#xdc;" horiz-adv-x="1548" 
d="M770 -23c-196 0 -348.333 54.168 -457 162.501s-163 266.5 -163 474.5v820h315v-811c0 -115.333 27 -203.333 81 -264s130 -91 228 -91s174 29.333 228 88s81 144 81 256v822h316v-809c0 -212.667 -55.5 -373.834 -166.5 -483.501s-265.167 -164.5 -462.5 -164.5z
M848 1546v260h299v-260h-299zM401 1546v260h299v-260h-299z" />
    <glyph glyph-name="Yacute" unicode="&#xdd;" horiz-adv-x="1466" 
d="M575 0v565l-550 869h368l342 -576l348 576h359l-551 -863v-571h-316zM606 1546l248 322l268 -117l-278 -205h-238z" />
    <glyph glyph-name="Thorn" unicode="&#xde;" horiz-adv-x="1378" 
d="M172 0l-0.000976562 1434h315v-209h271c168.667 0 302.334 -45.5 401.001 -136.5s148 -210.833 148 -359.5v-4c0 -80.667 -15 -153.334 -45 -218.001s-71.5 -117.667 -124.5 -159s-114.333 -72.833 -184 -94.5s-145.167 -32.5 -226.5 -32.5h-240v-221h-315z
M486.999 502.001h250c77.333 0 138.333 20.333 183 61s67 92.667 67 156v4c0 69.333 -22.667 122.833 -68 160.5s-108 56.5 -188 56.5h-244v-438z" />
    <glyph glyph-name="germandbls" unicode="&#xdf;" horiz-adv-x="1269" 
d="M612 -4l-0.00195312 232.999c84.667 4 149.5 22 194.5 54s67.5 77 67.5 135v4c0 53.333 -24 97.166 -72 131.499s-111.333 56.833 -190 67.5v204c120.667 76 181 160.667 181 254v4c0 50.667 -14.833 90.667 -44.5 120s-69.5 44 -119.5 44
c-53.333 0 -96.666 -18.667 -129.999 -56s-50 -87 -50 -149v-1042h-310v1030c0 150 45.333 267.333 136 352s213.334 127 368.001 127c142 0 253.667 -37.333 335 -112s122 -169.667 122 -285v-4c0 -55.333 -9 -105.166 -27 -149.499s-39.5 -79.5 -64.5 -105.5
s-56.833 -52.333 -95.5 -79c179.333 -77.333 269 -198 269 -362v-4c0 -135.333 -51.5 -239.666 -154.5 -312.999s-241.5 -106.333 -415.5 -99z" />
    <glyph glyph-name="agrave" unicode="&#xe0;" horiz-adv-x="1212" 
d="M451 -20c-108 0 -197.833 29.6689 -269.5 89.002s-107.5 141.333 -107.5 246v4c0 116 39.833 203.5 119.5 262.5s187.167 88.5 322.5 88.5c92 0 181.333 -15 268 -45v18c0 65.333 -19.833 115.166 -59.5 149.499s-98.167 51.5 -175.5 51.5c-94 0 -195 -20 -303 -60
l-78 238c66.667 29.333 132.667 51.333 198 66s141.333 22 228 22c165.333 0 289 -41 371 -123c78.667 -78.667 118 -195.334 118 -350.001v-637h-301v119c-84 -92.667 -194.333 -139 -331 -139zM545 195.002c72 0 130.5 17.832 175.5 53.499s67.5 81.834 67.5 138.501v55
c-58 27.333 -124 41 -198 41c-67.333 0 -120 -13 -158 -39s-57 -63.333 -57 -112v-4c0 -41.333 15.667 -73.833 47 -97.5s72.333 -35.5 123 -35.5zM504 1219l-266 245l268 117l227 -362h-229z" />
    <glyph glyph-name="aacute" unicode="&#xe1;" horiz-adv-x="1212" 
d="M451 -20c-108 0 -197.833 29.6689 -269.5 89.002s-107.5 141.333 -107.5 246v4c0 116 39.833 203.5 119.5 262.5s187.167 88.5 322.5 88.5c92 0 181.333 -15 268 -45v18c0 65.333 -19.833 115.166 -59.5 149.499s-98.167 51.5 -175.5 51.5c-94 0 -195 -20 -303 -60
l-78 238c66.667 29.333 132.667 51.333 198 66s141.333 22 228 22c165.333 0 289 -41 371 -123c78.667 -78.667 118 -195.334 118 -350.001v-637h-301v119c-84 -92.667 -194.333 -139 -331 -139zM545 195.002c72 0 130.5 17.832 175.5 53.499s67.5 81.834 67.5 138.501v55
c-58 27.333 -124 41 -198 41c-67.333 0 -120 -13 -158 -39s-57 -63.333 -57 -112v-4c0 -41.333 15.667 -73.833 47 -97.5s72.333 -35.5 123 -35.5zM487 1219l228 362l268 -117l-266 -245h-230z" />
    <glyph glyph-name="acircumflex" unicode="&#xe2;" horiz-adv-x="1212" 
d="M451 -20c-108 0 -197.833 29.6689 -269.5 89.002s-107.5 141.333 -107.5 246v4c0 116 39.833 203.5 119.5 262.5s187.167 88.5 322.5 88.5c92 0 181.333 -15 268 -45v18c0 65.333 -19.833 115.166 -59.5 149.499s-98.167 51.5 -175.5 51.5c-94 0 -195 -20 -303 -60
l-78 238c66.667 29.333 132.667 51.333 198 66s141.333 22 228 22c165.333 0 289 -41 371 -123c78.667 -78.667 118 -195.334 118 -350.001v-637h-301v119c-84 -92.667 -194.333 -139 -331 -139zM545 195.002c72 0 130.5 17.832 175.5 53.499s67.5 81.834 67.5 138.501v55
c-58 27.333 -124 41 -198 41c-67.333 0 -120 -13 -158 -39s-57 -63.333 -57 -112v-4c0 -41.333 15.667 -73.833 47 -97.5s72.333 -35.5 123 -35.5zM211 1219l252 321h295l252 -321h-240l-162 135l-162 -135h-235z" />
    <glyph glyph-name="atilde" unicode="&#xe3;" horiz-adv-x="1212" 
d="M451 -20c-108 0 -197.833 29.6689 -269.5 89.002s-107.5 141.333 -107.5 246v4c0 116 39.833 203.5 119.5 262.5s187.167 88.5 322.5 88.5c92 0 181.333 -15 268 -45v18c0 65.333 -19.833 115.166 -59.5 149.499s-98.167 51.5 -175.5 51.5c-94 0 -195 -20 -303 -60
l-78 238c66.667 29.333 132.667 51.333 198 66s141.333 22 228 22c165.333 0 289 -41 371 -123c78.667 -78.667 118 -195.334 118 -350.001v-637h-301v119c-84 -92.667 -194.333 -139 -331 -139zM545 195.002c72 0 130.5 17.832 175.5 53.499s67.5 81.834 67.5 138.501v55
c-58 27.333 -124 41 -198 41c-67.333 0 -120 -13 -158 -39s-57 -63.333 -57 -112v-4c0 -41.333 15.667 -73.833 47 -97.5s72.333 -35.5 123 -35.5zM365 1198l-166.001 50.999c26 94 58 164.667 96 212s90.667 71 158 71c36 0 74.333 -6.66699 115 -20
s78 -26.666 112 -39.999s60.667 -20 80 -20c29.333 0 52.166 7.66699 68.499 23s32.5 41 48.5 77l165 -51c-25.333 -94 -57.166 -164.5 -95.499 -211.5s-91.166 -70.5 -158.499 -70.5c-36 0 -74.333 6.5 -115 19.5s-78 26.167 -112 39.5s-60.667 20 -80 20
c-29.333 0 -52 -7.66699 -68 -23s-32 -41 -48 -77z" />
    <glyph glyph-name="adieresis" unicode="&#xe4;" horiz-adv-x="1212" 
d="M451 -20c-108 0 -197.833 29.6689 -269.5 89.002s-107.5 141.333 -107.5 246v4c0 116 39.833 203.5 119.5 262.5s187.167 88.5 322.5 88.5c92 0 181.333 -15 268 -45v18c0 65.333 -19.833 115.166 -59.5 149.499s-98.167 51.5 -175.5 51.5c-94 0 -195 -20 -303 -60
l-78 238c66.667 29.333 132.667 51.333 198 66s141.333 22 228 22c165.333 0 289 -41 371 -123c78.667 -78.667 118 -195.334 118 -350.001v-637h-301v119c-84 -92.667 -194.333 -139 -331 -139zM545 195.002c72 0 130.5 17.832 175.5 53.499s67.5 81.834 67.5 138.501v55
c-58 27.333 -124 41 -198 41c-67.333 0 -120 -13 -158 -39s-57 -63.333 -57 -112v-4c0 -41.333 15.667 -73.833 47 -97.5s72.333 -35.5 123 -35.5zM674 1219v276h299v-276h-299zM248 1219v276h299v-276h-299z" />
    <glyph glyph-name="aring" unicode="&#xe5;" horiz-adv-x="1212" 
d="M451 -20c-108 0 -197.833 29.6689 -269.5 89.002s-107.5 141.333 -107.5 246v4c0 116 39.833 203.5 119.5 262.5s187.167 88.5 322.5 88.5c92 0 181.333 -15 268 -45v18c0 65.333 -19.833 115.166 -59.5 149.499s-98.167 51.5 -175.5 51.5c-94 0 -195 -20 -303 -60
l-78 238c66.667 29.333 132.667 51.333 198 66s141.333 22 228 22c165.333 0 289 -41 371 -123c78.667 -78.667 118 -195.334 118 -350.001v-637h-301v119c-84 -92.667 -194.333 -139 -331 -139zM545 195.002c72 0 130.5 17.832 175.5 53.499s67.5 81.834 67.5 138.501v55
c-58 27.333 -124 41 -198 41c-67.333 0 -120 -13 -158 -39s-57 -63.333 -57 -112v-4c0 -41.333 15.667 -73.833 47 -97.5s72.333 -35.5 123 -35.5zM362 1454c0 66.667 24.167 123.334 72.5 170.001s106.833 70 175.5 70s127.167 -23.333 175.5 -70
s72.5 -103.334 72.5 -170.001s-24.167 -123.334 -72.5 -170.001s-106.833 -70 -175.5 -70s-127.167 23.333 -175.5 70s-72.5 103.334 -72.5 170.001zM475 1454c0 -37.333 13.167 -69.166 39.5 -95.499s58.166 -39.5 95.499 -39.5s69.166 13.167 95.499 39.5
s39.5 58.166 39.5 95.499s-13.167 69.166 -39.5 95.499s-58.166 39.5 -95.499 39.5s-69.166 -13.167 -95.499 -39.5s-39.5 -58.166 -39.5 -95.499z" />
    <glyph glyph-name="ae" unicode="&#xe6;" horiz-adv-x="1947" 
d="M487 -20c-122 0 -221.333 29.833 -298 89.5s-115 141.5 -115 245.5v4c0 116 39.833 203.5 119.5 262.5s187.167 88.5 322.5 88.5c92 0 181.333 -15 268 -45v18c0 65.333 -19.833 115.166 -59.5 149.499s-98.167 51.5 -175.5 51.5c-94 0 -195 -20 -303 -60l-78 238
c66.667 29.333 132.667 51.333 198 66s141.333 22 228 22c172.667 0 297 -46.333 373 -139c96 98 216.667 147 362 147c86 0 163.167 -16.333 231.5 -49s123.5 -77 165.5 -133s74 -119.167 96 -189.5s33 -145.166 33 -224.499c0 -16 -1.33301 -43.333 -4 -82h-764
c15.333 -70 46.5 -123.333 93.5 -160s105.5 -55 175.5 -55c52 0 98.5 8.83301 139.5 26.5s83.167 46.5 126.5 86.5l178 -158c-110 -136.667 -259.333 -205 -448 -205c-83.333 0 -161 14.5 -233 43.5s-133.667 69.833 -185 122.5c-146 -107.333 -295 -161 -447 -161z
M1083 635h468.998c-9.33301 71.333 -34.166 128 -74.499 170s-92.5 63 -156.5 63c-63.333 0 -115.666 -20.833 -156.999 -62.5s-68.333 -98.5 -81 -170.5zM544.998 199c98 0 191.333 34.666 280 103.999c-20.667 49.333 -33.667 96.333 -39 141c-60 26 -125.333 39 -196 39
c-67.333 0 -120 -13 -158 -39s-57 -63.333 -57 -112v-4c0 -39.333 16.167 -70.666 48.5 -93.999s72.833 -35 121.5 -35z" />
    <glyph glyph-name="ccedilla" unicode="&#xe7;" horiz-adv-x="1169" 
d="M575 -354l-259.999 108l168 246c-119.333 35.333 -215.333 102.666 -288 201.999s-109 213 -109 341v4c0 104 24.333 199.333 73 286s117.334 155.834 206.001 207.501s187.667 77.5 297 77.5c99.333 0 183.666 -15.5 252.999 -46.5s131 -76.833 185 -137.5l-191 -205
c-38.667 40.667 -77 71 -115 91s-83 30 -135 30c-76.667 0 -140.167 -29.167 -190.5 -87.5s-75.5 -128.833 -75.5 -211.5v-4c0 -86 25.667 -158 77 -216s118.666 -87 201.999 -87c49.333 0 93.333 9.66699 132 29s78.667 48.333 120 87l182 -184
c-54 -60 -111.667 -106.833 -173 -140.5s-136 -53.167 -224 -58.5z" />
    <glyph glyph-name="egrave" unicode="&#xe8;" horiz-adv-x="1255" 
d="M659 -25c-166 0 -303.001 52.998 -411.001 158.998s-162 242.333 -162 409v4c0 104 22.833 199.333 68.5 286s110.167 155.834 193.5 207.501s177 77.5 281 77.5c88.667 0 167.834 -16.333 237.501 -49s125.667 -77 168 -133s74.333 -119.167 96 -189.5
s32.5 -145.166 32.5 -224.499c0 -16 -1.33301 -43.333 -4 -82h-764c15.333 -70 46.5 -123.333 93.5 -160s105.5 -55 175.5 -55c52 0 98.5 8.83301 139.5 26.5s83.167 46.5 126.5 86.5l178 -158c-110 -136.667 -259.667 -205 -449 -205zM390.999 634.998h468.998
c-9.33301 71.333 -34.166 128 -74.499 170s-92.5 63 -156.5 63c-63.333 0 -115.666 -20.833 -156.999 -62.5s-68.333 -98.5 -81 -170.5zM517.997 1219l-266 245l268 117l228 -362h-230z" />
    <glyph glyph-name="eacute" unicode="&#xe9;" horiz-adv-x="1255" 
d="M659 -25c-166 0 -303.001 52.998 -411.001 158.998s-162 242.333 -162 409v4c0 104 22.833 199.333 68.5 286s110.167 155.834 193.5 207.501s177 77.5 281 77.5c88.667 0 167.834 -16.333 237.501 -49s125.667 -77 168 -133s74.333 -119.167 96 -189.5
s32.5 -145.166 32.5 -224.499c0 -16 -1.33301 -43.333 -4 -82h-764c15.333 -70 46.5 -123.333 93.5 -160s105.5 -55 175.5 -55c52 0 98.5 8.83301 139.5 26.5s83.167 46.5 126.5 86.5l178 -158c-110 -136.667 -259.667 -205 -449 -205zM390.999 634.998h468.998
c-9.33301 71.333 -34.166 128 -74.499 170s-92.5 63 -156.5 63c-63.333 0 -115.666 -20.833 -156.999 -62.5s-68.333 -98.5 -81 -170.5zM501.997 1219l227 362l268 -117l-266 -245h-229z" />
    <glyph glyph-name="ecircumflex" unicode="&#xea;" horiz-adv-x="1255" 
d="M659 -25c-166 0 -303.001 52.998 -411.001 158.998s-162 242.333 -162 409v4c0 104 22.833 199.333 68.5 286s110.167 155.834 193.5 207.501s177 77.5 281 77.5c88.667 0 167.834 -16.333 237.501 -49s125.667 -77 168 -133s74.333 -119.167 96 -189.5
s32.5 -145.166 32.5 -224.499c0 -16 -1.33301 -43.333 -4 -82h-764c15.333 -70 46.5 -123.333 93.5 -160s105.5 -55 175.5 -55c52 0 98.5 8.83301 139.5 26.5s83.167 46.5 126.5 86.5l178 -158c-110 -136.667 -259.667 -205 -449 -205zM390.999 634.998h468.998
c-9.33301 71.333 -34.166 128 -74.499 170s-92.5 63 -156.5 63c-63.333 0 -115.666 -20.833 -156.999 -62.5s-68.333 -98.5 -81 -170.5zM224.997 1219l252 321h295l252 -321h-240l-161 135l-162 -135h-236z" />
    <glyph glyph-name="edieresis" unicode="&#xeb;" horiz-adv-x="1255" 
d="M659 -25c-166 0 -303.001 52.998 -411.001 158.998s-162 242.333 -162 409v4c0 104 22.833 199.333 68.5 286s110.167 155.834 193.5 207.501s177 77.5 281 77.5c88.667 0 167.834 -16.333 237.501 -49s125.667 -77 168 -133s74.333 -119.167 96 -189.5
s32.5 -145.166 32.5 -224.499c0 -16 -1.33301 -43.333 -4 -82h-764c15.333 -70 46.5 -123.333 93.5 -160s105.5 -55 175.5 -55c52 0 98.5 8.83301 139.5 26.5s83.167 46.5 126.5 86.5l178 -158c-110 -136.667 -259.667 -205 -449 -205zM390.999 634.998h468.998
c-9.33301 71.333 -34.166 128 -74.499 170s-92.5 63 -156.5 63c-63.333 0 -115.666 -20.833 -156.999 -62.5s-68.333 -98.5 -81 -170.5zM687.997 1219v276h299v-276h-299zM261.997 1219v276h299v-276h-299z" />
    <glyph glyph-name="igrave" unicode="&#xec;" horiz-adv-x="618" 
d="M154 0v1098h311v-1098h-311zM203 1219l-266 245l268 117l227 -362h-229z" />
    <glyph glyph-name="iacute" unicode="&#xed;" horiz-adv-x="618" 
d="M154 0v1098h311v-1098h-311zM186 1219l228 362l268 -117l-266 -245h-230z" />
    <glyph glyph-name="icircumflex" unicode="&#xee;" horiz-adv-x="618" 
d="M154 0v1098h311v-1098h-311zM-90 1219l252 321h295l252 -321h-240l-162 135l-162 -135h-235z" />
    <glyph glyph-name="idieresis" unicode="&#xef;" horiz-adv-x="618" 
d="M154 0v1098h311v-1098h-311zM373 1219v276h299v-276h-299zM-53 1219v276h299v-276h-299z" />
    <glyph glyph-name="eth" unicode="&#xf0;" horiz-adv-x="1361" 
d="M1102 1337l-152 -39c214.667 -225.333 322 -458 322 -698v-4c0 -84 -13.5 -163.333 -40.5 -238s-65.333 -140.5 -115 -197.5s-112.334 -102.167 -188.001 -135.5s-159.167 -50 -250.5 -50c-111.333 0 -212.333 25.5 -303 76.5s-161.5 121 -212.5 210
s-76.5 188.167 -76.5 297.5v4c0 97.333 21.5 186.666 64.5 267.999s101.833 145.5 176.5 192.5s156.667 70.5 246 70.5c48.667 0 91.834 -5.66699 129.501 -17s78.5 -29.666 122.5 -54.999c-46 67.333 -103.333 134.333 -172 201l-254 -64l-53 164l156 39
c-42.667 34 -102 78.333 -178 133h411l70 -57l246 61zM682 244c86.667 0 155.834 28.167 207.501 84.5s77.5 126.5 77.5 210.5v4c0 82.667 -27.167 153.167 -81.5 211.5s-123.5 87.5 -207.5 87.5c-86.667 0 -155.834 -28.167 -207.501 -84.5s-77.5 -126.5 -77.5 -210.5v-4
c0 -82.667 27.167 -153.167 81.5 -211.5s123.5 -87.5 207.5 -87.5z" />
    <glyph glyph-name="ntilde" unicode="&#xf1;" horiz-adv-x="1275" 
d="M139 0l-0.000976562 1098h312v-156c42.667 54.667 88.834 97.667 138.501 129s110.5 47 182.5 47c117.333 0 208.833 -36.167 274.5 -108.5s98.5 -171.833 98.5 -298.5v-711h-311v612c0 72.667 -16.5 128.167 -49.5 166.5s-79.5 57.5 -139.5 57.5
c-60.667 0 -108.167 -19.167 -142.5 -57.5s-51.5 -93.833 -51.5 -166.5v-612h-312zM394.999 1198l-166.003 50.999c26 94 58 164.667 96 212s90.667 71 158 71c36 0 74.5 -6.66699 115.5 -20s78.5 -26.666 112.5 -39.999s60.667 -20 80 -20c29.333 0 52 7.66699 68 23
s32 41 48 77l166 -51c-25.333 -94 -57.166 -164.5 -95.499 -211.5s-91.166 -70.5 -158.499 -70.5c-36 0 -74.333 6.5 -115 19.5s-78 26.167 -112 39.5s-60.667 20 -80 20c-29.333 0 -52.166 -7.66699 -68.499 -23s-32.5 -41 -48.5 -77z" />
    <glyph glyph-name="ograve" unicode="&#xf2;" horiz-adv-x="1359" 
d="M678 -25c-111.333 0 -212.333 25.3311 -303 75.998s-161.5 119.334 -212.5 206.001s-76.5 182 -76.5 286v4c0 78 15.167 152 45.5 222s71.666 130.667 123.999 182s115.5 92 189.5 122s153 45 237 45c111.333 0 212.333 -25.167 303 -75.5s161.5 -118.833 212.5 -205.5
s76.5 -182 76.5 -286v-4c0 -104 -25.667 -199.667 -77 -287s-122.666 -156.666 -213.999 -207.999s-193 -77 -305 -77zM682 243.998c86 0 155 28.833 207 86.5s78 128.5 78 212.5v4c0 83.333 -27.167 154.666 -81.5 213.999s-123.5 89 -207.5 89
c-86 0 -155 -28.833 -207 -86.5s-78 -128.5 -78 -212.5v-4c0 -83.333 27.167 -154.666 81.5 -213.999s123.5 -89 207.5 -89zM573 1219l-266 245l268 117l228 -362h-230z" />
    <glyph glyph-name="oacute" unicode="&#xf3;" horiz-adv-x="1359" 
d="M678 -25c-111.333 0 -212.333 25.3311 -303 75.998s-161.5 119.334 -212.5 206.001s-76.5 182 -76.5 286v4c0 78 15.167 152 45.5 222s71.666 130.667 123.999 182s115.5 92 189.5 122s153 45 237 45c111.333 0 212.333 -25.167 303 -75.5s161.5 -118.833 212.5 -205.5
s76.5 -182 76.5 -286v-4c0 -104 -25.667 -199.667 -77 -287s-122.666 -156.666 -213.999 -207.999s-193 -77 -305 -77zM682 243.998c86 0 155 28.833 207 86.5s78 128.5 78 212.5v4c0 83.333 -27.167 154.666 -81.5 213.999s-123.5 89 -207.5 89
c-86 0 -155 -28.833 -207 -86.5s-78 -128.5 -78 -212.5v-4c0 -83.333 27.167 -154.666 81.5 -213.999s123.5 -89 207.5 -89zM557 1219l227 362l269 -117l-267 -245h-229z" />
    <glyph glyph-name="ocircumflex" unicode="&#xf4;" horiz-adv-x="1359" 
d="M678 -25c-111.333 0 -212.333 25.3311 -303 75.998s-161.5 119.334 -212.5 206.001s-76.5 182 -76.5 286v4c0 78 15.167 152 45.5 222s71.666 130.667 123.999 182s115.5 92 189.5 122s153 45 237 45c111.333 0 212.333 -25.167 303 -75.5s161.5 -118.833 212.5 -205.5
s76.5 -182 76.5 -286v-4c0 -104 -25.667 -199.667 -77 -287s-122.666 -156.666 -213.999 -207.999s-193 -77 -305 -77zM682 243.998c86 0 155 28.833 207 86.5s78 128.5 78 212.5v4c0 83.333 -27.167 154.666 -81.5 213.999s-123.5 89 -207.5 89
c-86 0 -155 -28.833 -207 -86.5s-78 -128.5 -78 -212.5v-4c0 -83.333 27.167 -154.666 81.5 -213.999s123.5 -89 207.5 -89zM281 1219l251 321h295l252 -321h-239l-162 135l-162 -135h-235z" />
    <glyph glyph-name="otilde" unicode="&#xf5;" horiz-adv-x="1359" 
d="M678 -25c-111.333 0 -212.333 25.3311 -303 75.998s-161.5 119.334 -212.5 206.001s-76.5 182 -76.5 286v4c0 78 15.167 152 45.5 222s71.666 130.667 123.999 182s115.5 92 189.5 122s153 45 237 45c111.333 0 212.333 -25.167 303 -75.5s161.5 -118.833 212.5 -205.5
s76.5 -182 76.5 -286v-4c0 -104 -25.667 -199.667 -77 -287s-122.666 -156.666 -213.999 -207.999s-193 -77 -305 -77zM682 243.998c86 0 155 28.833 207 86.5s78 128.5 78 212.5v4c0 83.333 -27.167 154.666 -81.5 213.999s-123.5 89 -207.5 89
c-86 0 -155 -28.833 -207 -86.5s-78 -128.5 -78 -212.5v-4c0 -83.333 27.167 -154.666 81.5 -213.999s123.5 -89 207.5 -89zM434 1198l-166.002 50.999c26 94 58 164.667 96 212s90.667 71 158 71c36 0 74.333 -6.66699 115 -20s78 -26.666 112 -39.999s60.667 -20 80 -20
c29.333 0 52.166 7.66699 68.499 23s32.5 41 48.5 77l166 -51c-25.333 -94 -57.166 -164.5 -95.499 -211.5s-91.166 -70.5 -158.499 -70.5c-36 0 -74.333 6.5 -115 19.5s-78 26.167 -112 39.5s-60.667 20 -80 20c-29.333 0 -52.166 -7.66699 -68.499 -23
s-32.5 -41 -48.5 -77z" />
    <glyph glyph-name="odieresis" unicode="&#xf6;" horiz-adv-x="1359" 
d="M678 -25c-111.333 0 -212.333 25.3311 -303 75.998s-161.5 119.334 -212.5 206.001s-76.5 182 -76.5 286v4c0 78 15.167 152 45.5 222s71.666 130.667 123.999 182s115.5 92 189.5 122s153 45 237 45c111.333 0 212.333 -25.167 303 -75.5s161.5 -118.833 212.5 -205.5
s76.5 -182 76.5 -286v-4c0 -104 -25.667 -199.667 -77 -287s-122.666 -156.666 -213.999 -207.999s-193 -77 -305 -77zM682 243.998c86 0 155 28.833 207 86.5s78 128.5 78 212.5v4c0 83.333 -27.167 154.666 -81.5 213.999s-123.5 89 -207.5 89
c-86 0 -155 -28.833 -207 -86.5s-78 -128.5 -78 -212.5v-4c0 -83.333 27.167 -154.666 81.5 -213.999s123.5 -89 207.5 -89zM743 1219v276h299v-276h-299zM317 1219v276h299v-276h-299z" />
    <glyph glyph-name="divide" unicode="&#xf7;" horiz-adv-x="1310" 
d="M496 1014v295h319v-295h-319zM1171 590h-1032v262h1032v-262zM496 133v295h319v-295h-319z" />
    <glyph glyph-name="oslash" unicode="&#xf8;" horiz-adv-x="1359" 
d="M1032 1108l272.999 -0.000976562l-166 -190c90 -104.667 135 -227 135 -367v-4c0 -104 -25.667 -199.667 -77 -287s-122.666 -156.666 -213.999 -207.999s-193 -77 -305 -77c-104.667 0 -203 24 -295 72l-55 -57h-273l164 188c-88.667 103.333 -133 225 -133 365v4
c0 78 15.167 152 45.5 222s71.666 130.667 123.999 182s115.5 92 189.5 122s153 45 237 45c106.667 0 204.334 -23.667 293.001 -71zM384.999 546.999c0 -49.333 11 -98.667 33 -148l377 435c-40 16 -79 24 -117 24c-89.333 0 -160.5 -29.667 -213.5 -89
s-79.5 -132 -79.5 -218v-4zM681.999 235.998c89.333 0 160.5 29.667 213.5 89s79.5 132 79.5 218v4c0 52.667 -11.667 101.667 -35 147l-375 -436c36.667 -14.667 75.667 -22 117 -22z" />
    <glyph glyph-name="ugrave" unicode="&#xf9;" horiz-adv-x="1275" 
d="M504 -20c-117.333 0 -208.832 36.167 -274.499 108.5s-98.5 171.833 -98.5 298.5v711h311v-613c0 -72.667 16.5 -128 49.5 -166s79.5 -57 139.5 -57c60.667 0 108.167 19.167 142.5 57.5s51.5 93.5 51.5 165.5v613h312v-1098h-312v156
c-42.667 -54.667 -88.834 -97.667 -138.501 -129s-110.5 -47 -182.5 -47zM526.001 1219l-266 245l268 117l228 -362h-230z" />
    <glyph glyph-name="uacute" unicode="&#xfa;" horiz-adv-x="1275" 
d="M504 -20c-117.333 0 -208.832 36.167 -274.499 108.5s-98.5 171.833 -98.5 298.5v711h311v-613c0 -72.667 16.5 -128 49.5 -166s79.5 -57 139.5 -57c60.667 0 108.167 19.167 142.5 57.5s51.5 93.5 51.5 165.5v613h312v-1098h-312v156
c-42.667 -54.667 -88.834 -97.667 -138.501 -129s-110.5 -47 -182.5 -47zM510.001 1219l227 362l269 -117l-267 -245h-229z" />
    <glyph glyph-name="ucircumflex" unicode="&#xfb;" horiz-adv-x="1275" 
d="M504 -20c-117.333 0 -208.832 36.167 -274.499 108.5s-98.5 171.833 -98.5 298.5v711h311v-613c0 -72.667 16.5 -128 49.5 -166s79.5 -57 139.5 -57c60.667 0 108.167 19.167 142.5 57.5s51.5 93.5 51.5 165.5v613h312v-1098h-312v156
c-42.667 -54.667 -88.834 -97.667 -138.501 -129s-110.5 -47 -182.5 -47zM233.001 1219l252 321h295l252 -321h-239l-162 135l-162 -135h-236z" />
    <glyph glyph-name="udieresis" unicode="&#xfc;" horiz-adv-x="1275" 
d="M504 -20c-117.333 0 -208.832 36.167 -274.499 108.5s-98.5 171.833 -98.5 298.5v711h311v-613c0 -72.667 16.5 -128 49.5 -166s79.5 -57 139.5 -57c60.667 0 108.167 19.167 142.5 57.5s51.5 93.5 51.5 165.5v613h312v-1098h-312v156
c-42.667 -54.667 -88.834 -97.667 -138.501 -129s-110.5 -47 -182.5 -47zM696.001 1219v276h299v-276h-299zM270.001 1219v276h299v-276h-299z" />
    <glyph glyph-name="yacute" unicode="&#xfd;" horiz-adv-x="1228" 
d="M401 -334c-98 0 -189.998 25.334 -275.998 76.001l104 225c47.333 -28.667 91.666 -43 132.999 -43c26.667 0 48.167 5.16699 64.5 15.5s31.166 29.166 44.499 56.499l-430 1102h330l250 -748l239 748h324l-422 -1125c-42.667 -112.667 -90.5 -192 -143.5 -238
s-125.5 -69 -217.5 -69zM489.002 1219l228 362l268 -117l-266 -245h-230z" />
    <glyph glyph-name="thorn" unicode="&#xfe;" horiz-adv-x="1382" 
d="M139 -328v1823h312v-555c88.667 118.667 202.667 178 342 178c64.667 0 126.667 -12.5 186 -37.5s112.333 -60.833 159 -107.5s84 -106.5 112 -179.5s42 -153.833 42 -242.5v-4c0 -88.667 -13.667 -169.5 -41 -242.5s-64.333 -132.833 -111 -179.5
s-99.667 -82.5 -159 -107.5s-122 -37.5 -188 -37.5c-136.667 0 -250.667 54.333 -342 163v-471h-312zM713 244c74.667 0 138 27.9971 190 83.9971s78 129 78 219v4c0 88.667 -26 161.334 -78 218.001s-115.333 85 -190 85c-74 0 -137 -28.167 -189 -84.5
s-78 -129.166 -78 -218.499v-4c0 -89.333 26 -162.166 78 -218.499s115 -84.5 189 -84.5z" />
    <glyph glyph-name="ydieresis" unicode="&#xff;" horiz-adv-x="1228" 
d="M401 -334c-98 0 -189.998 25.334 -275.998 76.001l104 225c47.333 -28.667 91.666 -43 132.999 -43c26.667 0 48.167 5.16699 64.5 15.5s31.166 29.166 44.499 56.499l-430 1102h330l250 -748l239 748h324l-422 -1125c-42.667 -112.667 -90.5 -192 -143.5 -238
s-125.5 -69 -217.5 -69zM676.002 1219v276h299v-276h-299zM250.002 1219v276h299v-276h-299z" />
    <glyph glyph-name="Amacron" unicode="&#x100;" horiz-adv-x="1617" 
d="M49 0l615 1444h290l615 -1444h-330l-131 322h-606l-131 -322h-322zM614 600h381l-190 465zM420 1577v219h778v-219h-778z" />
    <glyph glyph-name="amacron" unicode="&#x101;" horiz-adv-x="1212" 
d="M451 -20c-108 0 -197.833 29.6689 -269.5 89.002s-107.5 141.333 -107.5 246v4c0 116 39.833 203.5 119.5 262.5s187.167 88.5 322.5 88.5c92 0 181.333 -15 268 -45v18c0 65.333 -19.833 115.166 -59.5 149.499s-98.167 51.5 -175.5 51.5c-94 0 -195 -20 -303 -60
l-78 238c66.667 29.333 132.667 51.333 198 66s141.333 22 228 22c165.333 0 289 -41 371 -123c78.667 -78.667 118 -195.334 118 -350.001v-637h-301v119c-84 -92.667 -194.333 -139 -331 -139zM545 195.002c72 0 130.5 17.832 175.5 53.499s67.5 81.834 67.5 138.501v55
c-58 27.333 -124 41 -198 41c-67.333 0 -120 -13 -158 -39s-57 -63.333 -57 -112v-4c0 -41.333 15.667 -73.833 47 -97.5s72.333 -35.5 123 -35.5zM242 1229v215h737v-215h-737z" />
    <glyph glyph-name="Abreve" unicode="&#x102;" horiz-adv-x="1617" 
d="M49 0l615 1444h290l615 -1444h-330l-131 322h-606l-131 -322h-322zM614 600h381l-190 465zM809 1563c-110.667 0 -201.002 26.667 -271.002 80s-109.333 128.333 -118 225h213c26.667 -67.333 85.334 -101 176.001 -101s149.334 33.667 176.001 101h213
c-8.66699 -96.667 -48 -171.667 -118 -225s-160.333 -80 -271 -80z" />
    <glyph glyph-name="abreve" unicode="&#x103;" horiz-adv-x="1212" 
d="M451 -20c-108 0 -197.833 29.6689 -269.5 89.002s-107.5 141.333 -107.5 246v4c0 116 39.833 203.5 119.5 262.5s187.167 88.5 322.5 88.5c92 0 181.333 -15 268 -45v18c0 65.333 -19.833 115.166 -59.5 149.499s-98.167 51.5 -175.5 51.5c-94 0 -195 -20 -303 -60
l-78 238c66.667 29.333 132.667 51.333 198 66s141.333 22 228 22c165.333 0 289 -41 371 -123c78.667 -78.667 118 -195.334 118 -350.001v-637h-301v119c-84 -92.667 -194.333 -139 -331 -139zM545 195.002c72 0 130.5 17.832 175.5 53.499s67.5 81.834 67.5 138.501v55
c-58 27.333 -124 41 -198 41c-67.333 0 -120 -13 -158 -39s-57 -63.333 -57 -112v-4c0 -41.333 15.667 -73.833 47 -97.5s72.333 -35.5 123 -35.5zM610 1214c-109.333 0 -198.668 28.667 -268.001 86s-108.333 137.333 -117 240h209c28 -82 86.667 -123 176 -123
s148 41 176 123h209c-8.66699 -102.667 -47.667 -182.667 -117 -240s-158.666 -86 -267.999 -86z" />
    <glyph glyph-name="Aogonek" unicode="&#x104;" horiz-adv-x="1617" 
d="M1583 -336c-113.333 -16 -202.667 -6.83496 -268 27.498s-98 82.5 -98 144.5c0 51.333 22.333 106 67 164h-45l-131 322h-606l-131 -322h-322l615 1444h290l615 -1444h-78c-34 -39.333 -51 -77.666 -51 -114.999c0 -29.333 12.5 -51.166 37.5 -65.499
s60.167 -20.5 105.5 -18.5v-137zM613.999 599.998h381l-190 465z" />
    <glyph glyph-name="aogonek" unicode="&#x105;" horiz-adv-x="1212" 
d="M1090 -336c-113.333 -16 -202.832 -6.83398 -268.499 27.499s-98.5 82.5 -98.5 144.5c0 50.667 22.667 105.334 68 164.001h-9v119c-84 -92.667 -194.333 -139 -331 -139c-108 0 -197.833 29.667 -269.5 89s-107.5 141.333 -107.5 246v4c0 116 39.833 203.5 119.5 262.5
s187.167 88.5 322.5 88.5c92 0 181.333 -15 268 -45v18c0 65.333 -19.833 115.166 -59.5 149.499s-98.167 51.5 -175.5 51.5c-94 0 -195 -20 -303 -60l-78 238c66.667 29.333 132.667 51.333 198 66s141.333 22 228 22c165.333 0 289 -41 371 -123
c78.667 -78.667 118 -195.334 118 -350.001v-637h-86c-34 -39.333 -51 -77.666 -51 -114.999c0 -29.333 12.667 -51.166 38 -65.499s60.666 -20.5 105.999 -18.5v-137zM545.001 194.999c72 0 130.5 17.832 175.5 53.499s67.5 81.834 67.5 138.501v55
c-58 27.333 -124 41 -198 41c-67.333 0 -120 -13 -158 -39s-57 -63.333 -57 -112v-4c0 -41.333 15.667 -73.833 47 -97.5s72.333 -35.5 123 -35.5z" />
    <glyph glyph-name="Cacute" unicode="&#x106;" horiz-adv-x="1511" 
d="M844 -25c-138 0 -263.334 32.667 -376.001 98s-200.667 154.333 -264 267s-95 237 -95 373v4c0 135.333 31.333 259.333 94 372s151.334 202.334 266.001 269.001s243.667 100 387 100c126.667 0 234.334 -19 323.001 -57s169.334 -92.667 242.001 -164l-200 -231
c-58.667 52.667 -117.334 92.667 -176.001 120s-122.334 41 -191.001 41c-119.333 0 -218.5 -43.167 -297.5 -129.5s-118.5 -191.833 -118.5 -316.5v-4c0 -125.333 39.167 -231.833 117.5 -319.5s177.833 -131.5 298.5 -131.5c76 0 142 13.667 198 41
s115.667 69.666 179 126.999l201 -203c-79.333 -85.333 -164.5 -149.333 -255.5 -192s-201.833 -64 -332.5 -64zM701.999 1567l248 321l269 -116l-279 -205h-238z" />
    <glyph glyph-name="cacute" unicode="&#x107;" horiz-adv-x="1169" 
d="M657 -25c-108 0 -205.831 25.498 -293.498 76.498s-155.834 119.833 -204.501 206.5s-73 181.667 -73 285v4c0 104 24.333 199.333 73 286s117.334 155.834 206.001 207.501s187.667 77.5 297 77.5c99.333 0 183.666 -15.5 252.999 -46.5s131 -76.833 185 -137.5
l-191 -205c-38.667 40.667 -77 71 -115 91s-83 30 -135 30c-76.667 0 -140.167 -29.167 -190.5 -87.5s-75.5 -128.833 -75.5 -211.5v-4c0 -86 25.667 -158 77 -216s118.666 -87 201.999 -87c49.333 0 93.333 9.66699 132 29s78.667 48.333 120 87l182 -184
c-59.333 -65.333 -123.5 -115.166 -192.5 -149.499s-154.5 -51.5 -256.5 -51.5zM526.002 1219l228 362l268 -117l-266 -245h-230z" />
    <glyph glyph-name="Cdotaccent" unicode="&#x10a;" horiz-adv-x="1511" 
d="M844 -25c-138 0 -263.334 32.667 -376.001 98s-200.667 154.333 -264 267s-95 237 -95 373v4c0 135.333 31.333 259.333 94 372s151.334 202.334 266.001 269.001s243.667 100 387 100c126.667 0 234.334 -19 323.001 -57s169.334 -92.667 242.001 -164l-200 -231
c-58.667 52.667 -117.334 92.667 -176.001 120s-122.334 41 -191.001 41c-119.333 0 -218.5 -43.167 -297.5 -129.5s-118.5 -191.833 -118.5 -316.5v-4c0 -125.333 39.167 -231.833 117.5 -319.5s177.833 -131.5 298.5 -131.5c76 0 142 13.667 198 41
s115.667 69.666 179 126.999l201 -203c-79.333 -85.333 -164.5 -149.333 -255.5 -192s-201.833 -64 -332.5 -64zM675.999 1567v260h307v-260h-307z" />
    <glyph glyph-name="cdotaccent" unicode="&#x10b;" horiz-adv-x="1169" 
d="M657 -25c-108 0 -205.831 25.498 -293.498 76.498s-155.834 119.833 -204.501 206.5s-73 181.667 -73 285v4c0 104 24.333 199.333 73 286s117.334 155.834 206.001 207.501s187.667 77.5 297 77.5c99.333 0 183.666 -15.5 252.999 -46.5s131 -76.833 185 -137.5
l-191 -205c-38.667 40.667 -77 71 -115 91s-83 30 -135 30c-76.667 0 -140.167 -29.167 -190.5 -87.5s-75.5 -128.833 -75.5 -211.5v-4c0 -86 25.667 -158 77 -216s118.666 -87 201.999 -87c49.333 0 93.333 9.66699 132 29s78.667 48.333 120 87l182 -184
c-59.333 -65.333 -123.5 -115.166 -192.5 -149.499s-154.5 -51.5 -256.5 -51.5zM496.002 1219v276h307v-276h-307z" />
    <glyph glyph-name="Ccaron" unicode="&#x10c;" horiz-adv-x="1511" 
d="M844 -25c-138 0 -263.334 32.667 -376.001 98s-200.667 154.333 -264 267s-95 237 -95 373v4c0 135.333 31.333 259.333 94 372s151.334 202.334 266.001 269.001s243.667 100 387 100c126.667 0 234.334 -19 323.001 -57s169.334 -92.667 242.001 -164l-200 -231
c-58.667 52.667 -117.334 92.667 -176.001 120s-122.334 41 -191.001 41c-119.333 0 -218.5 -43.167 -297.5 -129.5s-118.5 -191.833 -118.5 -316.5v-4c0 -125.333 39.167 -231.833 117.5 -319.5s177.833 -131.5 298.5 -131.5c76 0 142 13.667 198 41
s115.667 69.666 179 126.999l201 -203c-79.333 -85.333 -164.5 -149.333 -255.5 -192s-201.833 -64 -332.5 -64zM1239 1868l-262 -301h-295l-262 301h250l161 -115l162 115h246z" />
    <glyph glyph-name="ccaron" unicode="&#x10d;" horiz-adv-x="1169" 
d="M657 -25c-108 0 -205.831 25.498 -293.498 76.498s-155.834 119.833 -204.501 206.5s-73 181.667 -73 285v4c0 104 24.333 199.333 73 286s117.334 155.834 206.001 207.501s187.667 77.5 297 77.5c99.333 0 183.666 -15.5 252.999 -46.5s131 -76.833 185 -137.5
l-191 -205c-38.667 40.667 -77 71 -115 91s-83 30 -135 30c-76.667 0 -140.167 -29.167 -190.5 -87.5s-75.5 -128.833 -75.5 -211.5v-4c0 -86 25.667 -158 77 -216s118.666 -87 201.999 -87c49.333 0 93.333 9.66699 132 29s78.667 48.333 120 87l182 -184
c-59.333 -65.333 -123.5 -115.166 -192.5 -149.499s-154.5 -51.5 -256.5 -51.5zM1049 1540l-252 -321h-295l-252 321h239l162 -135l162 135h236z" />
    <glyph glyph-name="Dcaron" unicode="&#x10e;" horiz-adv-x="1601" 
d="M172 0v1434h559c110.667 0 213.667 -18.333 309 -55s176 -86.667 242 -150s117.667 -138.833 155 -226.5s56 -181.5 56 -281.5v-4c0 -100 -18.667 -194 -56 -282s-89 -164 -155 -228s-146.667 -114.5 -242 -151.5s-198.333 -55.5 -309 -55.5h-559zM487 285
l244 0.000976562c128.667 0 232.834 39.5 312.501 118.5s119.5 182.167 119.5 309.5v4c0 127.333 -39.833 231.166 -119.5 311.499s-183.834 120.5 -312.501 120.5h-244v-864zM1184 1847l-262 -301h-295l-262 301h249l162 -114l162 114h246z" />
    <glyph glyph-name="dcaron" unicode="&#x10f;" horiz-adv-x="1382" 
d="M590 -20c-64.667 0 -126.668 12.5 -186.001 37.5s-112.5 60.833 -159.5 107.5s-84.5 106.5 -112.5 179.5s-42 153.833 -42 242.5v4c0 88.667 13.833 169.5 41.5 242.5s64.834 132.833 111.501 179.5s99.667 82.5 159 107.5s122 37.5 188 37.5c136 0 250 -54.667 342 -164
v541h311v-1495h-311v158c-88.667 -118.667 -202.667 -178 -342 -178zM669.999 244c74 0 136.833 28.1689 188.5 84.502s77.5 129.166 77.5 218.499v4c0 89.333 -25.833 162.166 -77.5 218.499s-114.5 84.5 -188.5 84.5c-74.667 0 -138.167 -28.167 -190.5 -84.5
s-78.5 -129.166 -78.5 -218.499v-4c0 -88.667 26.167 -161.334 78.5 -218.001s115.833 -85 190.5 -85zM1346 1069l20 426h223v-6l-121 -420h-122z" />
    <glyph glyph-name="Dcroat" unicode="&#x110;" horiz-adv-x="1662" 
d="M233 0v582h-153v278h153v574h560c110.667 0 213.5 -18.333 308.5 -55s175.5 -86.667 241.5 -150s117.667 -138.833 155 -226.5s56 -181.5 56 -281.5v-4c0 -100 -18.667 -194 -56 -282s-89 -164 -155 -228s-146.5 -114.5 -241.5 -151.5s-197.833 -55.5 -308.5 -55.5h-560z
M545 285l248 0.000976562c128.667 0 232.834 39.5 312.501 118.5s119.5 182.167 119.5 309.5v4c0 127.333 -39.833 231.166 -119.5 311.499s-183.834 120.5 -312.501 120.5h-248v-289h311v-278h-311v-297z" />
    <glyph glyph-name="dcroat" unicode="&#x111;" horiz-adv-x="1382" 
d="M614 1214l-0.000976562 175h318v106h311v-106h139v-175h-139v-1214h-311v158c-88.667 -118.667 -202.667 -178 -342 -178c-64.667 0 -126.667 12.5 -186 37.5s-112.5 60.833 -159.5 107.5s-84.5 106.5 -112.5 179.5s-42 153.833 -42 242.5v4
c0 88.667 13.833 169.5 41.5 242.5s64.834 132.833 111.501 179.5s99.667 82.5 159 107.5s122 37.5 188 37.5c136 0 250 -54.667 342 -164v260h-318zM669.999 244c74 0 136.833 28.1689 188.5 84.502s77.5 129.166 77.5 218.499v4c0 89.333 -25.833 162.166 -77.5 218.499
s-114.5 84.5 -188.5 84.5c-74.667 0 -138.167 -28.167 -190.5 -84.5s-78.5 -129.166 -78.5 -218.499v-4c0 -88.667 26.167 -161.334 78.5 -218.001s115.833 -85 190.5 -85z" />
    <glyph glyph-name="Emacron" unicode="&#x112;" horiz-adv-x="1372" 
d="M172 0v1434h1081v-281h-768v-291h676v-280h-676v-301h779v-281h-1092zM328 1556v220h778v-220h-778z" />
    <glyph glyph-name="emacron" unicode="&#x113;" horiz-adv-x="1255" 
d="M659 -25c-166 0 -303.001 52.998 -411.001 158.998s-162 242.333 -162 409v4c0 104 22.833 199.333 68.5 286s110.167 155.834 193.5 207.501s177 77.5 281 77.5c88.667 0 167.834 -16.333 237.501 -49s125.667 -77 168 -133s74.333 -119.167 96 -189.5
s32.5 -145.166 32.5 -224.499c0 -16 -1.33301 -43.333 -4 -82h-764c15.333 -70 46.5 -123.333 93.5 -160s105.5 -55 175.5 -55c52 0 98.5 8.83301 139.5 26.5s83.167 46.5 126.5 86.5l178 -158c-110 -136.667 -259.667 -205 -449 -205zM390.999 634.998h468.998
c-9.33301 71.333 -34.166 128 -74.499 170s-92.5 63 -156.5 63c-63.333 0 -115.666 -20.833 -156.999 -62.5s-68.333 -98.5 -81 -170.5zM255.997 1229v215h737v-215h-737z" />
    <glyph glyph-name="Ebreve" unicode="&#x114;" horiz-adv-x="1372" 
d="M172 0v1434h1081v-281h-768v-291h676v-280h-676v-301h779v-281h-1092zM717 1542c-110.667 0 -200.996 26.667 -270.996 80s-109.333 128.333 -118 225h213c13.333 -33.333 33.666 -58.333 60.999 -75s65.666 -25 114.999 -25s87.666 8.33301 114.999 25
s47.666 41.667 60.999 75h213c-8.66699 -96.667 -48 -171.667 -118 -225s-160.333 -80 -271 -80z" />
    <glyph glyph-name="ebreve" unicode="&#x115;" horiz-adv-x="1255" 
d="M659 -25c-166 0 -303.001 52.998 -411.001 158.998s-162 242.333 -162 409v4c0 104 22.833 199.333 68.5 286s110.167 155.834 193.5 207.501s177 77.5 281 77.5c88.667 0 167.834 -16.333 237.501 -49s125.667 -77 168 -133s74.333 -119.167 96 -189.5
s32.5 -145.166 32.5 -224.499c0 -16 -1.33301 -43.333 -4 -82h-764c15.333 -70 46.5 -123.333 93.5 -160s105.5 -55 175.5 -55c52 0 98.5 8.83301 139.5 26.5s83.167 46.5 126.5 86.5l178 -158c-110 -136.667 -259.667 -205 -449 -205zM390.999 634.998h468.998
c-9.33301 71.333 -34.166 128 -74.499 170s-92.5 63 -156.5 63c-63.333 0 -115.666 -20.833 -156.999 -62.5s-68.333 -98.5 -81 -170.5zM624.997 1214c-109.333 0 -198.668 28.667 -268.001 86s-108.333 137.333 -117 240h209c28 -82 86.667 -123 176 -123s148 41 176 123
h209c-8.66699 -102.667 -47.667 -182.667 -117 -240s-158.666 -86 -267.999 -86z" />
    <glyph glyph-name="Edotaccent" unicode="&#x116;" horiz-adv-x="1372" 
d="M172 0v1434h1081v-281h-768v-291h676v-280h-676v-301h779v-281h-1092zM563 1546v260h307v-260h-307z" />
    <glyph glyph-name="edotaccent" unicode="&#x117;" horiz-adv-x="1255" 
d="M659 -25c-166 0 -303.001 52.998 -411.001 158.998s-162 242.333 -162 409v4c0 104 22.833 199.333 68.5 286s110.167 155.834 193.5 207.501s177 77.5 281 77.5c88.667 0 167.834 -16.333 237.501 -49s125.667 -77 168 -133s74.333 -119.167 96 -189.5
s32.5 -145.166 32.5 -224.499c0 -16 -1.33301 -43.333 -4 -82h-764c15.333 -70 46.5 -123.333 93.5 -160s105.5 -55 175.5 -55c52 0 98.5 8.83301 139.5 26.5s83.167 46.5 126.5 86.5l178 -158c-110 -136.667 -259.667 -205 -449 -205zM390.999 634.998h468.998
c-9.33301 71.333 -34.166 128 -74.499 170s-92.5 63 -156.5 63c-63.333 0 -115.666 -20.833 -156.999 -62.5s-68.333 -98.5 -81 -170.5zM470.997 1219v276h307v-276h-307z" />
    <glyph glyph-name="Eogonek" unicode="&#x118;" horiz-adv-x="1372" 
d="M172 0l0.000976562 1434h1081v-281h-768v-291h676v-280h-676v-301h779v-281h-93c-34 -39.333 -51 -77.666 -51 -114.999c0 -29.333 12.667 -51.166 38 -65.499s60.666 -20.5 105.999 -18.5v-137c-113.333 -16 -202.833 -6.83301 -268.5 27.5s-98.5 82.5 -98.5 144.5
c0 50.667 22.667 105.334 68 164.001h-793z" />
    <glyph glyph-name="eogonek" unicode="&#x119;" horiz-adv-x="1255" 
d="M391 635h468.998c-9.33301 71.333 -34.166 128 -74.499 170s-92.5 63 -156.5 63c-63.333 0 -115.666 -20.833 -156.999 -62.5s-68.333 -98.5 -81 -170.5zM982.998 53c-62.667 -58.667 -94 -111.002 -94 -157.002c0 -67.333 47.667 -99 143 -95v-137
c-112 -15.333 -201 -6.33301 -267 27s-99 78.333 -99 135c0 46.667 21.667 98 65 154c-30 -3.33301 -54 -5 -72 -5c-166 0 -303 53 -411 159s-162 242.333 -162 409v4c0 104 22.833 199.333 68.5 286s110.167 155.834 193.5 207.501s177 77.5 281 77.5
c88.667 0 167.834 -16.333 237.501 -49s125.667 -77 168 -133s74.333 -119.167 96 -189.5s32.5 -145.166 32.5 -224.499c0 -16 -1.33301 -43.333 -4 -82h-764c15.333 -70 46.5 -123.333 93.5 -160s105.5 -55 175.5 -55c52 0 98.5 8.83301 139.5 26.5s83.167 46.5 126.5 86.5
l178 -158c-38.667 -44 -80.334 -86.333 -125.001 -127z" />
    <glyph glyph-name="Ecaron" unicode="&#x11a;" horiz-adv-x="1372" 
d="M172 0v1434h1081v-281h-768v-291h676v-280h-676v-301h779v-281h-1092zM1126 1847l-262 -301h-295l-262 301h250l162 -114l162 114h245z" />
    <glyph glyph-name="ecaron" unicode="&#x11b;" horiz-adv-x="1255" 
d="M659 -25c-166 0 -303.001 52.998 -411.001 158.998s-162 242.333 -162 409v4c0 104 22.833 199.333 68.5 286s110.167 155.834 193.5 207.501s177 77.5 281 77.5c88.667 0 167.834 -16.333 237.501 -49s125.667 -77 168 -133s74.333 -119.167 96 -189.5
s32.5 -145.166 32.5 -224.499c0 -16 -1.33301 -43.333 -4 -82h-764c15.333 -70 46.5 -123.333 93.5 -160s105.5 -55 175.5 -55c52 0 98.5 8.83301 139.5 26.5s83.167 46.5 126.5 86.5l178 -158c-110 -136.667 -259.667 -205 -449 -205zM390.999 634.998h468.998
c-9.33301 71.333 -34.166 128 -74.499 170s-92.5 63 -156.5 63c-63.333 0 -115.666 -20.833 -156.999 -62.5s-68.333 -98.5 -81 -170.5zM1024 1540l-252 -321h-295l-252 321h240l162 -135l161 135h236z" />
    <glyph glyph-name="Gbreve" unicode="&#x11e;" horiz-adv-x="1605" 
d="M862 -25c-110 0 -211.833 18.668 -305.5 56.001s-173.167 88.666 -238.5 153.999s-116.5 143.5 -153.5 234.5s-55.5 188.833 -55.5 293.5v4c0 100.667 19 196.5 57 287.5s89.833 169.833 155.5 236.5s145.334 119.5 239.001 158.5s193.5 58.5 299.5 58.5
c124 0 229 -16 315 -48s168.667 -81.333 248 -148l-198 -240c-60.667 50 -118.834 86.667 -174.501 110s-122.5 35 -200.5 35c-114 0 -211.167 -43.667 -291.5 -131s-120.5 -192.333 -120.5 -315v-4c0 -131.333 40.667 -240 122 -326s185.333 -129 312 -129
c117.333 0 216.333 28.667 297 86v205h-317v272h623v-622c-178.667 -152 -383 -228 -613 -228zM844 1563c-110.667 0 -201.002 26.667 -271.002 80s-109.333 128.333 -118 225h213c26.667 -67.333 85.334 -101 176.001 -101s149.334 33.667 176.001 101h213
c-8.66699 -96.667 -48 -171.667 -118 -225s-160.333 -80 -271 -80z" />
    <glyph glyph-name="gbreve" unicode="&#x11f;" horiz-adv-x="1382" 
d="M631 -332c-180 0 -342.001 38.3359 -486.001 115.003l107 233c119.333 -66.667 243 -100 371 -100c208.667 0 313 99.667 313 299v53c-49.333 -59.333 -101.666 -103.833 -156.999 -133.5s-122.333 -44.5 -201 -44.5c-64.667 0 -126.167 11.667 -184.5 35
s-110.166 56.166 -155.499 98.499s-81.333 96.166 -108 161.499s-40 137.666 -40 216.999v4c0 79.333 13.5 151.833 40.5 217.5s63.333 119.667 109 162s97.667 75 156 98s119.166 34.5 182.499 34.5c78.667 0 145.334 -14.167 200.001 -42.5s106 -68.833 154 -121.5v144
h311v-850c0 -195.333 -46.333 -339.333 -139 -432c-98.667 -98.667 -256.334 -148 -473.001 -148zM667.999 348.003c76.667 0 140.5 23.833 191.5 71.5s76.5 108.5 76.5 182.5v4c0 74 -25.5 134.833 -76.5 182.5s-114.833 71.5 -191.5 71.5s-140.334 -23.667 -191.001 -71
s-76 -108.333 -76 -183v-4c0 -75.333 25.333 -136.5 76 -183.5s114.334 -70.5 191.001 -70.5zM706.999 1214c-109.333 0 -198.668 28.667 -268.001 86s-108.333 137.333 -117 240h208c28 -82 87 -123 177 -123c89.333 0 148 41 176 123h209
c-8.66699 -102.667 -47.667 -182.667 -117 -240s-158.666 -86 -267.999 -86z" />
    <glyph glyph-name="Gdotaccent" unicode="&#x120;" horiz-adv-x="1605" 
d="M862 -25c-110 0 -211.833 18.668 -305.5 56.001s-173.167 88.666 -238.5 153.999s-116.5 143.5 -153.5 234.5s-55.5 188.833 -55.5 293.5v4c0 100.667 19 196.5 57 287.5s89.833 169.833 155.5 236.5s145.334 119.5 239.001 158.5s193.5 58.5 299.5 58.5
c124 0 229 -16 315 -48s168.667 -81.333 248 -148l-198 -240c-60.667 50 -118.834 86.667 -174.501 110s-122.5 35 -200.5 35c-114 0 -211.167 -43.667 -291.5 -131s-120.5 -192.333 -120.5 -315v-4c0 -131.333 40.667 -240 122 -326s185.333 -129 312 -129
c117.333 0 216.333 28.667 297 86v205h-317v272h623v-622c-178.667 -152 -383 -228 -613 -228zM690 1567v260h307v-260h-307z" />
    <glyph glyph-name="gdotaccent" unicode="&#x121;" horiz-adv-x="1382" 
d="M631 -332c-180 0 -342.001 38.3359 -486.001 115.003l107 233c119.333 -66.667 243 -100 371 -100c208.667 0 313 99.667 313 299v53c-49.333 -59.333 -101.666 -103.833 -156.999 -133.5s-122.333 -44.5 -201 -44.5c-64.667 0 -126.167 11.667 -184.5 35
s-110.166 56.166 -155.499 98.499s-81.333 96.166 -108 161.499s-40 137.666 -40 216.999v4c0 79.333 13.5 151.833 40.5 217.5s63.333 119.667 109 162s97.667 75 156 98s119.166 34.5 182.499 34.5c78.667 0 145.334 -14.167 200.001 -42.5s106 -68.833 154 -121.5v144
h311v-850c0 -195.333 -46.333 -339.333 -139 -432c-98.667 -98.667 -256.334 -148 -473.001 -148zM667.999 348.003c76.667 0 140.5 23.833 191.5 71.5s76.5 108.5 76.5 182.5v4c0 74 -25.5 134.833 -76.5 182.5s-114.833 71.5 -191.5 71.5s-140.334 -23.667 -191.001 -71
s-76 -108.333 -76 -183v-4c0 -75.333 25.333 -136.5 76 -183.5s114.334 -70.5 191.001 -70.5zM552.999 1219v276h307v-276h-307z" />
    <glyph glyph-name="Gcommaaccent" unicode="&#x122;" horiz-adv-x="1605" 
d="M862 -25c-110 0 -211.833 18.668 -305.5 56.001s-173.167 88.666 -238.5 153.999s-116.5 143.5 -153.5 234.5s-55.5 188.833 -55.5 293.5v4c0 100.667 19 196.5 57 287.5s89.833 169.833 155.5 236.5s145.334 119.5 239.001 158.5s193.5 58.5 299.5 58.5
c124 0 229 -16 315 -48s168.667 -81.333 248 -148l-198 -240c-60.667 50 -118.834 86.667 -174.501 110s-122.5 35 -200.5 35c-114 0 -211.167 -43.667 -291.5 -131s-120.5 -192.333 -120.5 -315v-4c0 -131.333 40.667 -240 122 -326s185.333 -129 312 -129
c117.333 0 216.333 28.667 297 86v205h-317v272h623v-622c-178.667 -152 -383 -228 -613 -228zM694 -607.999l-15.999 94c110 10 162 59 156 147h-132v236h283v-199c0 -96 -24.333 -165.833 -73 -209.5s-121.334 -66.5 -218.001 -68.5z" />
    <glyph glyph-name="gcommaaccent" unicode="&#x123;" horiz-adv-x="1382" 
d="M631 -332c-180 0 -342.001 38.3359 -486.001 115.003l107 233c119.333 -66.667 243 -100 371 -100c208.667 0 313 99.667 313 299v53c-49.333 -59.333 -101.666 -103.833 -156.999 -133.5s-122.333 -44.5 -201 -44.5c-64.667 0 -126.167 11.667 -184.5 35
s-110.166 56.166 -155.499 98.499s-81.333 96.166 -108 161.499s-40 137.666 -40 216.999v4c0 79.333 13.5 151.833 40.5 217.5s63.333 119.667 109 162s97.667 75 156 98s119.166 34.5 182.499 34.5c78.667 0 145.334 -14.167 200.001 -42.5s106 -68.833 154 -121.5v144
h311v-850c0 -195.333 -46.333 -339.333 -139 -432c-98.667 -98.667 -256.334 -148 -473.001 -148zM667.999 348.003c76.667 0 140.5 23.833 191.5 71.5s76.5 108.5 76.5 182.5v4c0 74 -25.5 134.833 -76.5 182.5s-114.833 71.5 -191.5 71.5s-140.334 -23.667 -191.001 -71
s-76 -108.333 -76 -183v-4c0 -75.333 25.333 -136.5 76 -183.5s114.334 -70.5 191.001 -70.5zM849.999 1696l15.999 -94c-109.333 -10 -161 -59.333 -155 -148h131v-235h-283v198c0 96 24.333 166 73 210s121.334 67 218.001 69z" />
    <glyph glyph-name="Hbar" unicode="&#x126;" horiz-adv-x="1556" 
d="M29 1049v215h143v170h315v-170h582v170h315v-170h144v-215h-144v-1049h-315v575h-582v-575h-315v1049h-143zM487 866h582v187h-582v-187z" />
    <glyph glyph-name="hbar" unicode="&#x127;" horiz-adv-x="1275" 
d="M768 1214h-317.001v-272c42.667 54.667 88.834 97.667 138.501 129s110.5 47 182.5 47c117.333 0 208.833 -36.167 274.5 -108.5s98.5 -171.833 98.5 -298.5v-711h-311v612c0 72.667 -16.5 128.167 -49.5 166.5s-79.5 57.5 -139.5 57.5
c-60.667 0 -108.167 -19.167 -142.5 -57.5s-51.5 -93.833 -51.5 -166.5v-612h-312v1214h-139v175h139v106h312v-106h317v-175z" />
    <glyph glyph-name="Imacron" unicode="&#x12a;" horiz-adv-x="688" 
d="M186 0v1434h316v-1434h-316zM-45 1556v220h778v-220h-778z" />
    <glyph glyph-name="imacron" unicode="&#x12b;" horiz-adv-x="618" 
d="M154 0v1098h311v-1098h-311zM-59 1229v215h737v-215h-737z" />
    <glyph glyph-name="Ibreve" unicode="&#x12c;" horiz-adv-x="688" 
d="M186 0v1434h316v-1434h-316zM344 1542c-110.667 0 -200.996 26.667 -270.996 80s-109.333 128.333 -118 225h213c13.333 -33.333 33.666 -58.333 60.999 -75s65.666 -25 114.999 -25s87.666 8.33301 114.999 25s47.666 41.667 60.999 75h213
c-8.66699 -96.667 -48 -171.667 -118 -225s-160.333 -80 -271 -80z" />
    <glyph glyph-name="ibreve" unicode="&#x12d;" horiz-adv-x="618" 
d="M154 0v1098h311v-1098h-311zM309 1214c-109.333 0 -198.668 28.667 -268.001 86s-108.333 137.333 -117 240h209c28 -82 86.667 -123 176 -123s148 41 176 123h209c-8.66699 -102.667 -47.667 -182.667 -117 -240s-158.666 -86 -267.999 -86z" />
    <glyph glyph-name="Iogonek" unicode="&#x12e;" horiz-adv-x="688" 
d="M186 0l0.000976562 1434h316v-1434h-60c-34 -39.333 -51 -77.666 -51 -114.999c0 -29.333 12.667 -51.166 38 -65.499s60.666 -20.5 105.999 -18.5v-137c-113.333 -16 -202.833 -6.83301 -268.5 27.5s-98.5 82.5 -98.5 144.5c0 50.667 22.667 105.334 68 164.001h-50z
" />
    <glyph glyph-name="iogonek" unicode="&#x12f;" horiz-adv-x="618" 
d="M154 0l0.000976562 1098h311v-1098h-57c-34.667 -40 -52 -78.333 -52 -115c0 -29.333 12.667 -51.166 38 -65.499s60.666 -20.5 105.999 -18.5v-137c-113.333 -16 -202.833 -6.83301 -268.5 27.5s-98.5 82.5 -98.5 144.5c0 50.667 22.667 105.334 68 164.001h-47z
M145.001 1219v276h328v-276h-328z" />
    <glyph glyph-name="Idotaccent" unicode="&#x130;" horiz-adv-x="688" 
d="M186 0v1434h316v-1434h-316zM190 1546v260h308v-260h-308z" />
    <glyph glyph-name="dotlessi" unicode="&#x131;" horiz-adv-x="618" 
d="M154 0v1098h311v-1098h-311z" />
    <glyph glyph-name="Kcommaaccent" unicode="&#x136;" horiz-adv-x="1495" 
d="M172 0v1434h315v-627l582 627h381l-584 -609l611 -825h-379l-445 610l-166 -172v-438h-315zM600 -588l-15.999 94c109.333 10 161 59.333 155 148h-131v235h283v-198c0 -96 -24.333 -166 -73 -210s-121.334 -67 -218.001 -69z" />
    <glyph glyph-name="kcommaaccent" unicode="&#x137;" horiz-adv-x="1212" 
d="M139 0v1495h312v-797l364 400h373l-418 -432l432 -666h-356l-287 449l-108 -115v-334h-312zM479 -598l-15.999 94c109.333 10 161 59.333 155 148h-131v235h283v-198c0 -96 -24.333 -166 -73 -210s-121.334 -67 -218.001 -69z" />
    <glyph glyph-name="Lacute" unicode="&#x139;" horiz-adv-x="1267" 
d="M172 0v1434h315v-1147h715v-287h-1030zM244 1546l248 322l268 -117l-279 -205h-237z" />
    <glyph glyph-name="lacute" unicode="&#x13a;" horiz-adv-x="618" 
d="M154 0v1495h311v-1495h-311zM190 1577l248 321l269 -116l-279 -205h-238z" />
    <glyph glyph-name="Lcommaaccent" unicode="&#x13b;" horiz-adv-x="1267" 
d="M172 0v1434h315v-1147h715v-287h-1030zM537 -598l-17.001 94.001c54 4.66699 94.333 19.667 121 45s38.334 59.666 35.001 102.999h-131v235h282v-198c0 -96 -24.167 -166 -72.5 -210s-120.833 -67 -217.5 -69z" />
    <glyph glyph-name="lcommaaccent" unicode="&#x13c;" horiz-adv-x="618" 
d="M154 0v1495h311v-1495h-311zM160 -598l-17 94.001c54 4.66699 94.333 19.667 121 45s38.334 59.666 35.001 102.999h-131v235h283v-198c0 -96 -24.333 -166 -73 -210s-121.334 -67 -218.001 -69z" />
    <glyph glyph-name="Lcaron" unicode="&#x13d;" horiz-adv-x="1267" 
d="M172 0v1434h315v-1147h715v-287h-1030zM629 1008l20 426h223v-7l-120 -419h-123z" />
    <glyph glyph-name="lcaron" unicode="&#x13e;" horiz-adv-x="618" 
d="M154 0v1495h311v-1495h-311zM567 1069l21 426h223v-6l-121 -420h-123z" />
    <glyph glyph-name="Ldot" unicode="&#x13f;" horiz-adv-x="1267" 
d="M842 645v277h295v-277h-295zM172 0v1434h315v-1147h715v-287h-1030z" />
    <glyph glyph-name="ldot" unicode="&#x140;" horiz-adv-x="802" 
d="M588 647v256h246v-256h-246zM154 0v1495h311v-1495h-311z" />
    <glyph glyph-name="Lslash" unicode="&#x141;" horiz-adv-x="1329" 
d="M850 770l-305 -135v-348h719v-287h-1031v498l-153 -68v295l153 68v641h312v-504l305 135v-295z" />
    <glyph glyph-name="lslash" unicode="&#x142;" horiz-adv-x="741" 
d="M680 772l-156 -78v-694h-307v541l-156 -76v293l156 76v661h307v-508l156 78v-293z" />
    <glyph glyph-name="Nacute" unicode="&#x143;" horiz-adv-x="1617" 
d="M172 0v1434h291l672 -883v883h311v-1434h-268l-695 911v-911h-311zM682 1546l248 322l268 -117l-278 -205h-238z" />
    <glyph glyph-name="nacute" unicode="&#x144;" horiz-adv-x="1275" 
d="M139 0l-0.000976562 1098h312v-156c42.667 54.667 88.834 97.667 138.501 129s110.5 47 182.5 47c117.333 0 208.833 -36.167 274.5 -108.5s98.5 -171.833 98.5 -298.5v-711h-311v612c0 72.667 -16.5 128.167 -49.5 166.5s-79.5 57.5 -139.5 57.5
c-60.667 0 -108.167 -19.167 -142.5 -57.5s-51.5 -93.833 -51.5 -166.5v-612h-312zM517.999 1219l227 362l269 -117l-266 -245h-230z" />
    <glyph glyph-name="Ncommaaccent" unicode="&#x145;" horiz-adv-x="1617" 
d="M172 0v1434h291l672 -883v883h311v-1434h-268l-695 911v-911h-311zM659 -588l-16 94.001c54 4.66699 94.333 19.667 121 45s38.334 59.666 35.001 102.999h-131v235h282v-198c0 -96 -24.333 -166 -73 -210s-121.334 -67 -218.001 -69z" />
    <glyph glyph-name="ncommaaccent" unicode="&#x146;" horiz-adv-x="1275" 
d="M139 0l-0.000976562 1098h312v-156c42.667 54.667 88.834 97.667 138.501 129s110.5 47 182.5 47c117.333 0 208.833 -36.167 274.5 -108.5s98.5 -171.833 98.5 -298.5v-711h-311v612c0 72.667 -16.5 128.167 -49.5 166.5s-79.5 57.5 -139.5 57.5
c-60.667 0 -108.167 -19.167 -142.5 -57.5s-51.5 -93.833 -51.5 -166.5v-612h-312zM491.999 -598l-17.001 94.001c54 4.66699 94.333 19.667 121 45s38.334 59.666 35.001 102.999h-131v235h282v-198c0 -96 -24.167 -166 -72.5 -210s-120.833 -67 -217.5 -69z" />
    <glyph glyph-name="Ncaron" unicode="&#x147;" horiz-adv-x="1617" 
d="M172 0v1434h291l672 -883v883h311v-1434h-268l-695 911v-911h-311zM1219 1847l-263 -301h-294l-263 301h250l162 -114l162 114h246z" />
    <glyph glyph-name="ncaron" unicode="&#x148;" horiz-adv-x="1275" 
d="M139 0l-0.000976562 1098h312v-156c42.667 54.667 88.834 97.667 138.501 129s110.5 47 182.5 47c117.333 0 208.833 -36.167 274.5 -108.5s98.5 -171.833 98.5 -298.5v-711h-311v612c0 72.667 -16.5 128.167 -49.5 166.5s-79.5 57.5 -139.5 57.5
c-60.667 0 -108.167 -19.167 -142.5 -57.5s-51.5 -93.833 -51.5 -166.5v-612h-312zM1040 1540l-252 -321h-294l-252 321h239l162 -135l162 135h235z" />
    <glyph glyph-name="Omacron" unicode="&#x14c;" horiz-adv-x="1740" 
d="M868 -25c-108 0 -209.5 19.332 -304.5 57.999s-175.5 91.167 -241.5 157.5s-118 144.833 -156 235.5s-57 186.334 -57 287.001v4c0 100.667 19.167 196.5 57.5 287.5s90.833 169.833 157.5 236.5s147.667 119.5 243 158.5s197 58.5 305 58.5c144 0 274.333 -33 391 -99
s207.334 -155.167 272.001 -267.5s97 -235.833 97 -370.5v-4c0 -100.667 -19.333 -196.5 -58 -287.5s-91.334 -169.833 -158.001 -236.5s-147.667 -119.667 -243 -159s-197 -59 -305 -59zM872 265.999c82.667 0 157.164 20.166 223.497 60.499s117.5 94.5 153.5 162.5
s54 142.667 54 224v4c0 124.667 -41.167 230.834 -123.5 318.501s-186.166 131.5 -311.499 131.5c-82.667 0 -157 -20 -223 -60s-117 -94 -153 -162s-54 -142.667 -54 -224v-4c0 -81.333 18.333 -156.333 55 -225s88.334 -123.5 155.001 -164.5s141.334 -61.5 224.001 -61.5
zM480.997 1577v219h779v-219h-779z" />
    <glyph glyph-name="omacron" unicode="&#x14d;" horiz-adv-x="1359" 
d="M678 -25c-111.333 0 -212.333 25.3311 -303 75.998s-161.5 119.334 -212.5 206.001s-76.5 182 -76.5 286v4c0 78 15.167 152 45.5 222s71.666 130.667 123.999 182s115.5 92 189.5 122s153 45 237 45c111.333 0 212.333 -25.167 303 -75.5s161.5 -118.833 212.5 -205.5
s76.5 -182 76.5 -286v-4c0 -104 -25.667 -199.667 -77 -287s-122.666 -156.666 -213.999 -207.999s-193 -77 -305 -77zM682 243.998c86 0 155 28.833 207 86.5s78 128.5 78 212.5v4c0 83.333 -27.167 154.666 -81.5 213.999s-123.5 89 -207.5 89
c-86 0 -155 -28.833 -207 -86.5s-78 -128.5 -78 -212.5v-4c0 -83.333 27.167 -154.666 81.5 -213.999s123.5 -89 207.5 -89zM311 1229v215h738v-215h-738z" />
    <glyph glyph-name="Obreve" unicode="&#x14e;" horiz-adv-x="1740" 
d="M868 -25c-108 0 -209.5 19.332 -304.5 57.999s-175.5 91.167 -241.5 157.5s-118 144.833 -156 235.5s-57 186.334 -57 287.001v4c0 100.667 19.167 196.5 57.5 287.5s90.833 169.833 157.5 236.5s147.667 119.5 243 158.5s197 58.5 305 58.5c144 0 274.333 -33 391 -99
s207.334 -155.167 272.001 -267.5s97 -235.833 97 -370.5v-4c0 -100.667 -19.333 -196.5 -58 -287.5s-91.334 -169.833 -158.001 -236.5s-147.667 -119.667 -243 -159s-197 -59 -305 -59zM872 265.999c82.667 0 157.164 20.166 223.497 60.499s117.5 94.5 153.5 162.5
s54 142.667 54 224v4c0 124.667 -41.167 230.834 -123.5 318.501s-186.166 131.5 -311.499 131.5c-82.667 0 -157 -20 -223 -60s-117 -94 -153 -162s-54 -142.667 -54 -224v-4c0 -81.333 18.333 -156.333 55 -225s88.334 -123.5 155.001 -164.5s141.334 -61.5 224.001 -61.5
zM869.997 1563c-110.667 0 -201.001 26.667 -271.001 80s-109.333 128.333 -118 225h213c26.667 -67.333 85.334 -101 176.001 -101c91.333 0 150.333 33.667 177 101h213c-8.66699 -96.667 -48.167 -171.667 -118.5 -225s-160.833 -80 -271.5 -80z" />
    <glyph glyph-name="obreve" unicode="&#x14f;" horiz-adv-x="1359" 
d="M678 -25c-111.333 0 -212.333 25.3311 -303 75.998s-161.5 119.334 -212.5 206.001s-76.5 182 -76.5 286v4c0 78 15.167 152 45.5 222s71.666 130.667 123.999 182s115.5 92 189.5 122s153 45 237 45c111.333 0 212.333 -25.167 303 -75.5s161.5 -118.833 212.5 -205.5
s76.5 -182 76.5 -286v-4c0 -104 -25.667 -199.667 -77 -287s-122.666 -156.666 -213.999 -207.999s-193 -77 -305 -77zM682 243.998c86 0 155 28.833 207 86.5s78 128.5 78 212.5v4c0 83.333 -27.167 154.666 -81.5 213.999s-123.5 89 -207.5 89
c-86 0 -155 -28.833 -207 -86.5s-78 -128.5 -78 -212.5v-4c0 -83.333 27.167 -154.666 81.5 -213.999s123.5 -89 207.5 -89zM680 1214c-109.333 0 -198.668 28.667 -268.001 86s-108.333 137.333 -117 240h209c28 -82 86.667 -123 176 -123s148 41 176 123h209
c-8.66699 -102.667 -47.667 -182.667 -117 -240s-158.666 -86 -267.999 -86z" />
    <glyph glyph-name="Ohungarumlaut" unicode="&#x150;" horiz-adv-x="1740" 
d="M868 -25c-108 0 -209.5 19.332 -304.5 57.999s-175.5 91.167 -241.5 157.5s-118 144.833 -156 235.5s-57 186.334 -57 287.001v4c0 100.667 19.167 196.5 57.5 287.5s90.833 169.833 157.5 236.5s147.667 119.5 243 158.5s197 58.5 305 58.5c144 0 274.333 -33 391 -99
s207.334 -155.167 272.001 -267.5s97 -235.833 97 -370.5v-4c0 -100.667 -19.333 -196.5 -58 -287.5s-91.334 -169.833 -158.001 -236.5s-147.667 -119.667 -243 -159s-197 -59 -305 -59zM872 265.999c82.667 0 157.164 20.166 223.497 60.499s117.5 94.5 153.5 162.5
s54 142.667 54 224v4c0 124.667 -41.167 230.834 -123.5 318.501s-186.166 131.5 -311.499 131.5c-82.667 0 -157 -20 -223 -60s-117 -94 -153 -162s-54 -142.667 -54 -224v-4c0 -81.333 18.333 -156.333 55 -225s88.334 -123.5 155.001 -164.5s141.334 -61.5 224.001 -61.5
zM536.997 1567l247 321l258 -116l-278 -205h-227zM925.997 1567l248 321l258 -116l-279 -205h-227z" />
    <glyph glyph-name="ohungarumlaut" unicode="&#x151;" horiz-adv-x="1359" 
d="M678 -25c-111.333 0 -212.333 25.3311 -303 75.998s-161.5 119.334 -212.5 206.001s-76.5 182 -76.5 286v4c0 78 15.167 152 45.5 222s71.666 130.667 123.999 182s115.5 92 189.5 122s153 45 237 45c111.333 0 212.333 -25.167 303 -75.5s161.5 -118.833 212.5 -205.5
s76.5 -182 76.5 -286v-4c0 -104 -25.667 -199.667 -77 -287s-122.666 -156.666 -213.999 -207.999s-193 -77 -305 -77zM682 243.998c86 0 155 28.833 207 86.5s78 128.5 78 212.5v4c0 83.333 -27.167 154.666 -81.5 213.999s-123.5 89 -207.5 89
c-86 0 -155 -28.833 -207 -86.5s-78 -128.5 -78 -212.5v-4c0 -83.333 27.167 -154.666 81.5 -213.999s123.5 -89 207.5 -89zM735 1219l228 362l262 -117l-271 -245h-219zM356 1219l224 362l262 -117l-267 -245h-219z" />
    <glyph glyph-name="OE" unicode="&#x152;" horiz-adv-x="2201" 
d="M870 0c-110.667 0 -213.5 18.333 -308.5 55s-175.5 86.667 -241.5 150s-117.667 138.833 -155 226.5s-56 181.5 -56 281.5v4c0 100 18.667 194 56 282s89 164 155 228s146.5 114.5 241.5 151.5s197.833 55.5 308.5 55.5h1213v-281h-717v-291h625v-280h-625v-301h727v-281
h-1223zM870 285l183 -0.000976562v864h-183c-128.667 0 -232.834 -39.5 -312.501 -118.5s-119.5 -182.167 -119.5 -309.5v-4c0 -127.333 39.833 -231.166 119.5 -311.499s183.834 -120.5 312.501 -120.5z" />
    <glyph glyph-name="oe" unicode="&#x153;" horiz-adv-x="2115" 
d="M659 -25c-76.667 0 -150.333 15.001 -221 45.001s-131.667 70.167 -183 120.5s-92.333 110.666 -123 180.999s-46 144.166 -46 221.499v4c0 103.333 26 198.833 78 286.5s123 157 213 208s188.333 76.5 295 76.5c83.333 0 160.5 -16 231.5 -48s131.5 -76.667 181.5 -134
c48.667 57.333 107.834 102 177.501 134s145.167 48 226.5 48c88.667 0 167.834 -16.333 237.501 -49s125.667 -77 168 -133s74.333 -119.167 96 -189.5s32.5 -145.166 32.5 -224.499c0 -16 -1.33301 -43.333 -4 -82h-764c15.333 -70 46.5 -123.333 93.5 -160
s105.5 -55 175.5 -55c52 0 98.5 8.83301 139.5 26.5s83.167 46.5 126.5 86.5l178 -158c-110 -136.667 -259.333 -205 -448 -205c-88.667 0 -170.834 16.333 -246.501 49s-139.834 78.667 -192.501 138c-50.667 -58.667 -112.5 -104.5 -185.5 -137.5
s-151.833 -49.5 -236.5 -49.5zM1251 635.001h468.998c-9.33301 71.333 -34.166 128 -74.499 170s-92.5 63 -156.5 63c-63.333 0 -115.666 -20.833 -156.999 -62.5s-68.333 -98.5 -81 -170.5zM671.999 244.001c83.333 0 149.834 28.833 199.501 86.5s74.5 128.5 74.5 212.5v4
c0 83.333 -26 154.666 -78 213.999s-118.667 89 -200 89c-82.667 0 -149.167 -29.167 -199.5 -87.5s-75.5 -128.833 -75.5 -211.5v-4c0 -83.333 26.167 -154.666 78.5 -213.999s119.166 -89 200.499 -89z" />
    <glyph glyph-name="Racute" unicode="&#x154;" horiz-adv-x="1480" 
d="M172 0l0.000976562 1434h655c181.333 0 320.666 -48.667 417.999 -146c82 -82 123 -191 123 -327v-5c0 -111.333 -27.333 -204.333 -82 -279s-129.667 -129.667 -225 -165l350 -512h-369l-307 459h-248v-459h-315zM487.001 737h320c76 0 135.333 18.5 178 55.5
s64 86.167 64 147.5v4c0 66.667 -21.833 117.5 -65.5 152.5s-104.5 52.5 -182.5 52.5h-314v-412zM596.001 1546l248 322l268 -117l-278 -205h-238z" />
    <glyph glyph-name="racute" unicode="&#x155;" horiz-adv-x="856" 
d="M139 0v1098h312v-221c69.333 168 186 248.333 350 241v-325h-17c-106 0 -188 -32.333 -246 -97s-87 -161.334 -87 -290.001v-406h-312zM346 1219l227 362l269 -117l-267 -245h-229z" />
    <glyph glyph-name="Rcommaaccent" unicode="&#x156;" horiz-adv-x="1480" 
d="M172 0l0.000976562 1434h655c181.333 0 320.666 -48.667 417.999 -146c82 -82 123 -191 123 -327v-5c0 -111.333 -27.333 -204.333 -82 -279s-129.667 -129.667 -225 -165l350 -512h-369l-307 459h-248v-459h-315zM487.001 737h320c76 0 135.333 18.5 178 55.5
s64 86.167 64 147.5v4c0 66.667 -21.833 117.5 -65.5 152.5s-104.5 52.5 -182.5 52.5h-314v-412zM573.001 -588l-16 94.001c54 4.66699 94.333 19.667 121 45s38.334 59.666 35.001 102.999h-131v235h282v-198c0 -96 -24.333 -166 -73 -210s-121.334 -67 -218.001 -69z" />
    <glyph glyph-name="rcommaaccent" unicode="&#x157;" horiz-adv-x="856" 
d="M139 0v1098h312v-221c69.333 168 186 248.333 350 241v-325h-17c-106 0 -188 -32.333 -246 -97s-87 -161.334 -87 -290.001v-406h-312zM158 -597.999l-17 94.001c54 4.66699 94.333 19.667 121 45s38.334 59.666 35.001 102.999h-131v235h283v-198
c0 -96 -24.333 -166 -73 -210s-121.334 -67 -218.001 -69z" />
    <glyph glyph-name="Rcaron" unicode="&#x158;" horiz-adv-x="1480" 
d="M172 0l0.000976562 1434h655c181.333 0 320.666 -48.667 417.999 -146c82 -82 123 -191 123 -327v-5c0 -111.333 -27.333 -204.333 -82 -279s-129.667 -129.667 -225 -165l350 -512h-369l-307 459h-248v-459h-315zM487.001 737h320c76 0 135.333 18.5 178 55.5
s64 86.167 64 147.5v4c0 66.667 -21.833 117.5 -65.5 152.5s-104.5 52.5 -182.5 52.5h-314v-412zM1133 1847l-263 -301h-295l-262 301h250l162 -114l162 114h246z" />
    <glyph glyph-name="rcaron" unicode="&#x159;" horiz-adv-x="856" 
d="M139 0v1098h312v-221c69.333 168 186 248.333 350 241v-325h-17c-106 0 -188 -32.333 -246 -97s-87 -161.334 -87 -290.001v-406h-312zM868 1540l-252 -321h-294l-252 321h239l162 -135l162 135h235z" />
    <glyph glyph-name="Sacute" unicode="&#x15a;" horiz-adv-x="1310" 
d="M682 -20c-110.667 0 -218.668 19.335 -324.001 58.002s-200 95.667 -284 171l186 223c141.333 -116 284 -174 428 -174c64.667 0 115.334 12 152.001 36s55 57 55 99v4c0 28 -7.33301 51.333 -22 70s-42.834 37.167 -84.501 55.5s-102.5 37.5 -182.5 57.5
c-45.333 11.333 -84.5 22.166 -117.5 32.499s-67.167 22.666 -102.5 36.999s-65 29.166 -89 44.499s-47.167 33.666 -69.5 54.999s-40.166 44.833 -53.499 70.5s-23.833 55.167 -31.5 88.5s-11.5 70 -11.5 110v4c0 129.333 46.833 233.666 140.5 312.999
s214.167 119 361.5 119c204 0 381.333 -60.667 532 -182l-164 -238c-136.667 94.667 -260.667 142 -372 142c-58.667 0 -104.167 -11.667 -136.5 -35s-48.5 -53.333 -48.5 -90v-4c0 -46 20 -81 60 -105s123.333 -52 250 -84c76.667 -20 141.5 -41.5 194.5 -64.5
s99.833 -51.167 140.5 -84.5s70.667 -73.166 90 -119.499s29 -100.166 29 -161.499v-4c0 -139.333 -48.167 -248.166 -144.5 -326.499s-223.5 -117.5 -381.5 -117.5zM536.999 1567l247 321l269 -116l-279 -205h-237z" />
    <glyph glyph-name="sacute" unicode="&#x15b;" horiz-adv-x="1028" 
d="M524 -20c-80.667 0 -161.832 13.665 -243.499 40.998s-157.5 68.666 -227.5 123.999l133 205c120.667 -87.333 236 -131 346 -131c44 0 77 7.33301 99 22s33 34.667 33 60v4c0 7.33301 -1.16699 14.333 -3.5 21s-6.16602 12.834 -11.499 18.501
s-10.833 10.834 -16.5 15.501s-13.667 9.33398 -24 14.001l-27.5 12c-8 3.33301 -18.833 7.33301 -32.5 12s-25.167 8.33398 -34.5 11.001l-38.5 11.5c-16.333 5 -29.5 8.83301 -39.5 11.5c-36 10.667 -67.333 21.167 -94 31.5s-55.5 24.666 -86.5 42.999
s-56.5 38.5 -76.5 60.5s-36.667 49.833 -50 83.5s-20 70.834 -20 111.501v4c0 108 38.167 193 114.5 255s171.833 93 286.5 93c69.333 0 140.166 -11.167 212.499 -33.5s138.166 -53.5 197.499 -93.5l-119 -215c-117.333 68 -216.333 102 -297 102c-36.667 0 -65 -7 -85 -21
s-30 -32 -30 -54v-4c0 -17.333 9.5 -33.5 28.5 -48.5s40 -27 63 -36s55.833 -20.833 98.5 -35.5c14.667 -4.66699 25.667 -8.33398 33 -11.001c36.667 -12 68.167 -23.333 94.5 -34s55.666 -25.5 87.999 -44.5s58.333 -39.167 78 -60.5s36.5 -48.166 50.5 -80.499
s21 -67.833 21 -106.5v-4c0 -116.667 -38.667 -204.834 -116 -264.501s-178.666 -89.5 -303.999 -89.5zM397.002 1219l228 362l268 -117l-266 -245h-230z" />
    <glyph glyph-name="Scedilla" unicode="&#x15e;" horiz-adv-x="1310" 
d="M645 -354l-260.001 108.003l160 236c-183.333 26.667 -340.333 99.667 -471 219l186 223c141.333 -116 284 -174 428 -174c64.667 0 115.334 12 152.001 36s55 57 55 99v4c0 28 -7.33301 51.333 -22 70s-42.834 37.167 -84.501 55.5s-102.5 37.5 -182.5 57.5
c-45.333 11.333 -84.5 22.166 -117.5 32.499s-67.167 22.666 -102.5 36.999s-65 29.166 -89 44.499s-47.167 33.666 -69.5 54.999s-40.166 44.833 -53.499 70.5s-23.833 55.167 -31.5 88.5s-11.5 70 -11.5 110v4c0 129.333 46.833 233.666 140.5 312.999
s214.167 119 361.5 119c204 0 381.333 -60.667 532 -182l-164 -238c-136.667 94.667 -260.667 142 -372 142c-58.667 0 -104.167 -11.667 -136.5 -35s-48.5 -53.333 -48.5 -90v-4c0 -46 20 -81 60 -105s123.333 -52 250 -84c76.667 -20 141.5 -41.5 194.5 -64.5
s99.833 -51.167 140.5 -84.5s70.667 -73.166 90 -119.499s29 -100.166 29 -161.499v-4c0 -124 -38.5 -224 -115.5 -300s-180.5 -122 -310.5 -138z" />
    <glyph glyph-name="scedilla" unicode="&#x15f;" horiz-adv-x="1028" 
d="M483 -354l-259.998 107.996l164 240c-124.667 21.333 -236 71.666 -334 150.999l133 205c120.667 -87.333 236 -131 346 -131c44 0 77 7.33301 99 22s33 34.667 33 60v4c0 7.33301 -1.16699 14.333 -3.5 21s-6.16602 12.834 -11.499 18.501s-10.833 10.834 -16.5 15.501
s-13.667 9.33398 -24 14.001l-27.5 12c-8 3.33301 -18.833 7.33301 -32.5 12s-25.167 8.33398 -34.5 11.001l-38.5 11.5c-16.333 5 -29.5 8.83301 -39.5 11.5c-36 10.667 -67.333 21.167 -94 31.5s-55.5 24.666 -86.5 42.999s-56.5 38.5 -76.5 60.5s-36.667 49.833 -50 83.5
s-20 70.834 -20 111.501v4c0 108 38.167 193 114.5 255s171.833 93 286.5 93c69.333 0 140.166 -11.167 212.499 -33.5s138.166 -53.5 197.499 -93.5l-119 -215c-117.333 68 -216.333 102 -297 102c-36.667 0 -65 -7 -85 -21s-30 -32 -30 -54v-4
c0 -17.333 9.5 -33.5 28.5 -48.5s40 -27 63 -36s55.833 -20.833 98.5 -35.5c14.667 -4.66699 25.667 -8.33398 33 -11.001c36.667 -12 68.167 -23.333 94.5 -34s55.666 -25.5 87.999 -44.5s58.333 -39.167 78 -60.5s36.5 -48.166 50.5 -80.499s21 -67.833 21 -106.5v-4
c0 -101.333 -29.167 -181.166 -87.5 -239.499s-136.833 -94.5 -235.5 -108.5z" />
    <glyph glyph-name="Scaron" unicode="&#x160;" horiz-adv-x="1310" 
d="M682 -20c-110.667 0 -218.668 19.335 -324.001 58.002s-200 95.667 -284 171l186 223c141.333 -116 284 -174 428 -174c64.667 0 115.334 12 152.001 36s55 57 55 99v4c0 28 -7.33301 51.333 -22 70s-42.834 37.167 -84.501 55.5s-102.5 37.5 -182.5 57.5
c-45.333 11.333 -84.5 22.166 -117.5 32.499s-67.167 22.666 -102.5 36.999s-65 29.166 -89 44.499s-47.167 33.666 -69.5 54.999s-40.166 44.833 -53.499 70.5s-23.833 55.167 -31.5 88.5s-11.5 70 -11.5 110v4c0 129.333 46.833 233.666 140.5 312.999
s214.167 119 361.5 119c204 0 381.333 -60.667 532 -182l-164 -238c-136.667 94.667 -260.667 142 -372 142c-58.667 0 -104.167 -11.667 -136.5 -35s-48.5 -53.333 -48.5 -90v-4c0 -46 20 -81 60 -105s123.333 -52 250 -84c76.667 -20 141.5 -41.5 194.5 -64.5
s99.833 -51.167 140.5 -84.5s70.667 -73.166 90 -119.499s29 -100.166 29 -161.499v-4c0 -139.333 -48.167 -248.166 -144.5 -326.499s-223.5 -117.5 -381.5 -117.5zM1073 1868l-262 -301h-295l-262 301h250l162 -115l161 115h246z" />
    <glyph glyph-name="scaron" unicode="&#x161;" horiz-adv-x="1028" 
d="M524 -20c-80.667 0 -161.832 13.665 -243.499 40.998s-157.5 68.666 -227.5 123.999l133 205c120.667 -87.333 236 -131 346 -131c44 0 77 7.33301 99 22s33 34.667 33 60v4c0 7.33301 -1.16699 14.333 -3.5 21s-6.16602 12.834 -11.499 18.501
s-10.833 10.834 -16.5 15.501s-13.667 9.33398 -24 14.001l-27.5 12c-8 3.33301 -18.833 7.33301 -32.5 12s-25.167 8.33398 -34.5 11.001l-38.5 11.5c-16.333 5 -29.5 8.83301 -39.5 11.5c-36 10.667 -67.333 21.167 -94 31.5s-55.5 24.666 -86.5 42.999
s-56.5 38.5 -76.5 60.5s-36.667 49.833 -50 83.5s-20 70.834 -20 111.501v4c0 108 38.167 193 114.5 255s171.833 93 286.5 93c69.333 0 140.166 -11.167 212.499 -33.5s138.166 -53.5 197.499 -93.5l-119 -215c-117.333 68 -216.333 102 -297 102c-36.667 0 -65 -7 -85 -21
s-30 -32 -30 -54v-4c0 -17.333 9.5 -33.5 28.5 -48.5s40 -27 63 -36s55.833 -20.833 98.5 -35.5c14.667 -4.66699 25.667 -8.33398 33 -11.001c36.667 -12 68.167 -23.333 94.5 -34s55.666 -25.5 87.999 -44.5s58.333 -39.167 78 -60.5s36.5 -48.166 50.5 -80.499
s21 -67.833 21 -106.5v-4c0 -116.667 -38.667 -204.834 -116 -264.501s-178.666 -89.5 -303.999 -89.5zM920.002 1540l-252 -321h-295l-252 321h239l162 -135l162 135h236z" />
    <glyph glyph-name="Tcommaaccent" unicode="&#x162;" horiz-adv-x="1327" 
d="M506 0v1143h-436v291h1187v-291h-436v-1143h-315zM514 -598l-15.999 94c109.333 10 161 59.333 155 148h-131v235h283v-198c0 -96 -24.333 -166 -73 -210s-121.334 -67 -218.001 -69z" />
    <glyph glyph-name="tcommaaccent" unicode="&#x163;" horiz-adv-x="849" 
d="M510 -18c-102.667 0 -181.667 24.833 -237 74.5s-83 134.5 -83 254.5v520h-131v267h131v280h312v-280h258v-267h-258v-469c0 -36 8 -62.667 24 -80s41.333 -26 76 -26c56 0 107.333 13 154 39v-250c-71.333 -42 -153.333 -63 -246 -63zM305 -598l-15.999 94
c109.333 10 161 59.333 155 148h-131v235h283v-198c0 -96 -24.333 -166 -73 -210s-121.334 -67 -218.001 -69z" />
    <glyph glyph-name="Tcaron" unicode="&#x164;" horiz-adv-x="1327" 
d="M506 0v1143h-436v291h1187v-291h-436v-1143h-315zM1073 1847l-262 -301h-295l-262 301h250l162 -114l161 114h246z" />
    <glyph glyph-name="tcaron" unicode="&#x165;" horiz-adv-x="849" 
d="M510 -18c-102.667 0 -181.667 24.833 -237 74.5s-83 134.5 -83 254.5v520h-131v267h131v280h312v-280h258v-267h-258v-469c0 -36 8 -62.667 24 -80s41.333 -26 76 -26c56 0 107.333 13 154 39v-250c-71.333 -42 -153.333 -63 -246 -63zM633 1212l20 426h224v-6l-121 -420
h-123z" />
    <glyph glyph-name="Umacron" unicode="&#x16a;" horiz-adv-x="1548" 
d="M770 -23c-196 0 -348.333 54.168 -457 162.501s-163 266.5 -163 474.5v820h315v-811c0 -115.333 27 -203.333 81 -264s130 -91 228 -91s174 29.333 228 88s81 144 81 256v822h316v-809c0 -212.667 -55.5 -373.834 -166.5 -483.501s-265.167 -164.5 -462.5 -164.5z
M385 1556v220h778v-220h-778z" />
    <glyph glyph-name="umacron" unicode="&#x16b;" horiz-adv-x="1275" 
d="M504 -20c-117.333 0 -208.832 36.167 -274.499 108.5s-98.5 171.833 -98.5 298.5v711h311v-613c0 -72.667 16.5 -128 49.5 -166s79.5 -57 139.5 -57c60.667 0 108.167 19.167 142.5 57.5s51.5 93.5 51.5 165.5v613h312v-1098h-312v156
c-42.667 -54.667 -88.834 -97.667 -138.501 -129s-110.5 -47 -182.5 -47zM264.001 1229v215h737v-215h-737z" />
    <glyph glyph-name="Ubreve" unicode="&#x16c;" horiz-adv-x="1548" 
d="M770 -23c-196 0 -348.333 54.168 -457 162.501s-163 266.5 -163 474.5v820h315v-811c0 -115.333 27 -203.333 81 -264s130 -91 228 -91s174 29.333 228 88s81 144 81 256v822h316v-809c0 -212.667 -55.5 -373.834 -166.5 -483.501s-265.167 -164.5 -462.5 -164.5z
M774 1522c-110.667 0 -201.002 26.667 -271.002 80s-109.333 128.333 -118 225h213c26.667 -67.333 85.334 -101 176.001 -101s149.334 33.667 176.001 101h213c-8.66699 -96.667 -48 -171.667 -118 -225s-160.333 -80 -271 -80z" />
    <glyph glyph-name="ubreve" unicode="&#x16d;" horiz-adv-x="1275" 
d="M504 -20c-117.333 0 -208.832 36.167 -274.499 108.5s-98.5 171.833 -98.5 298.5v711h311v-613c0 -72.667 16.5 -128 49.5 -166s79.5 -57 139.5 -57c60.667 0 108.167 19.167 142.5 57.5s51.5 93.5 51.5 165.5v613h312v-1098h-312v156
c-42.667 -54.667 -88.834 -97.667 -138.501 -129s-110.5 -47 -182.5 -47zM633.001 1214c-109.333 0 -198.668 28.667 -268.001 86s-108.333 137.333 -117 240h209c28 -82 86.667 -123 176 -123s148 41 176 123h209c-8.66699 -102.667 -47.667 -182.667 -117 -240
s-158.666 -86 -267.999 -86z" />
    <glyph glyph-name="Uring" unicode="&#x16e;" horiz-adv-x="1548" 
d="M770 -23c-196 0 -348.333 54.168 -457 162.501s-163 266.5 -163 474.5v820h315v-811c0 -115.333 27 -203.333 81 -264s130 -91 228 -91s174 29.333 228 88s81 144 81 256v822h316v-809c0 -212.667 -55.5 -373.834 -166.5 -483.501s-265.167 -164.5 -462.5 -164.5z
M520 1716c0 65.333 24.833 119.333 74.5 162s109.5 64 179.5 64s129.833 -21.333 179.5 -64s74.5 -96.667 74.5 -162s-24.833 -119.166 -74.5 -161.499s-109.5 -63.5 -179.5 -63.5s-129.833 21.167 -179.5 63.5s-74.5 96.166 -74.5 161.499zM645 1716c0 -32 12 -59 36 -81
s55 -33 93 -33s69 11 93 33s36 49 36 81s-12 59.167 -36 81.5s-55 33.5 -93 33.5s-69 -11.167 -93 -33.5s-36 -49.5 -36 -81.5z" />
    <glyph glyph-name="uring" unicode="&#x16f;" horiz-adv-x="1275" 
d="M504 -20c-117.333 0 -208.832 36.167 -274.499 108.5s-98.5 171.833 -98.5 298.5v711h311v-613c0 -72.667 16.5 -128 49.5 -166s79.5 -57 139.5 -57c60.667 0 108.167 19.167 142.5 57.5s51.5 93.5 51.5 165.5v613h312v-1098h-312v156
c-42.667 -54.667 -88.834 -97.667 -138.501 -129s-110.5 -47 -182.5 -47zM385.001 1423c0 66.667 24.167 123.334 72.5 170.001s106.833 70 175.5 70s127.167 -23.333 175.5 -70s72.5 -103.334 72.5 -170.001s-24.167 -123.167 -72.5 -169.5s-106.833 -69.5 -175.5 -69.5
s-127.167 23.167 -175.5 69.5s-72.5 102.833 -72.5 169.5zM498.001 1423c0 -36.667 13.333 -68.334 40 -95.001s58.334 -40 95.001 -40s68.334 13.333 95.001 40s40 58.334 40 95.001c0 37.333 -13.333 69.333 -40 96s-58.334 40 -95.001 40s-68.334 -13.333 -95.001 -40
s-40 -58.667 -40 -96z" />
    <glyph glyph-name="Uhungarumlaut" unicode="&#x170;" horiz-adv-x="1548" 
d="M770 -23c-196 0 -348.333 54.168 -457 162.501s-163 266.5 -163 474.5v820h315v-811c0 -115.333 27 -203.333 81 -264s130 -91 228 -91s174 29.333 228 88s81 144 81 256v822h316v-809c0 -212.667 -55.5 -373.834 -166.5 -483.501s-265.167 -164.5 -462.5 -164.5z
M440 1546l248 322l258 -117l-278 -205h-228zM829 1546l248 322l258 -117l-278 -205h-228z" />
    <glyph glyph-name="uhungarumlaut" unicode="&#x171;" horiz-adv-x="1275" 
d="M504 -20c-117.333 0 -208.832 36.167 -274.499 108.5s-98.5 171.833 -98.5 298.5v711h311v-613c0 -72.667 16.5 -128 49.5 -166s79.5 -57 139.5 -57c60.667 0 108.167 19.167 142.5 57.5s51.5 93.5 51.5 165.5v613h312v-1098h-312v156
c-42.667 -54.667 -88.834 -97.667 -138.501 -129s-110.5 -47 -182.5 -47zM688.001 1219l227 362l263 -117l-271 -245h-219zM309.001 1219l223 362l263 -117l-267 -245h-219z" />
    <glyph glyph-name="Uogonek" unicode="&#x172;" horiz-adv-x="1548" 
d="M956 -336c-113.333 -16 -202.667 -6.83594 -268 27.4971s-98 82.5 -98 144.5c0 46.667 19 96.667 57 150c-158 20.667 -280.333 84.334 -367 191.001s-130 252.334 -130 437.001v820h315v-811c0 -115.333 27 -203.333 81 -264s130 -91 228 -91s174 29.333 228 88
s81 144 81 256v822h316v-809c0 -197.333 -48.333 -350.333 -145 -459s-232 -170 -406 -184c-23.333 -32 -35 -64.333 -35 -97c0 -29.333 12.5 -51.166 37.5 -65.499s60.167 -20.5 105.5 -18.5v-137z" />
    <glyph glyph-name="uogonek" unicode="&#x173;" horiz-adv-x="1275" 
d="M1157 -336c-113.333 -16 -202.666 -6.83496 -267.999 27.498s-98 82.5 -98 144.5c0 51.333 22.333 106 67 164h-33v156c-42.667 -54.667 -88.834 -97.667 -138.501 -129s-110.5 -47 -182.5 -47c-117.333 0 -208.833 36.167 -274.5 108.5s-98.5 171.833 -98.5 298.5v711
h311v-613c0 -72.667 16.5 -128 49.5 -166s79.5 -57 139.5 -57c60.667 0 108.167 19.167 142.5 57.5s51.5 93.5 51.5 165.5v613h312v-1098h-72c-34 -39.333 -51 -77.666 -51 -114.999c0 -29.333 12.5 -51.166 37.5 -65.499s60.167 -20.5 105.5 -18.5v-137z" />
    <glyph glyph-name="Wcircumflex" unicode="&#x174;" horiz-adv-x="2297" 
d="M551 -10l-490 1444h338l297 -971l322 975h270l322 -975l297 971h329l-489 -1444h-274l-324 938l-324 -938h-274zM739 1546l262 301h295l263 -301h-250l-162 115l-162 -115h-246z" />
    <glyph glyph-name="wcircumflex" unicode="&#x175;" horiz-adv-x="1763" 
d="M387 -8l-338 1106h316l176 -666l207 670h268l209 -672l180 668h309l-342 -1106h-280l-211 674l-215 -674h-279zM481 1219l252 321h295l252 -321h-240l-161 135l-162 -135h-236z" />
    <glyph glyph-name="Ycircumflex" unicode="&#x176;" horiz-adv-x="1466" 
d="M575 0v565l-550 869h368l342 -576l348 576h359l-551 -863v-571h-316zM324 1546l262 301h295l262 -301h-250l-162 115l-162 -115h-245z" />
    <glyph glyph-name="ycircumflex" unicode="&#x177;" horiz-adv-x="1228" 
d="M401 -334c-98 0 -189.998 25.334 -275.998 76.001l104 225c47.333 -28.667 91.666 -43 132.999 -43c26.667 0 48.167 5.16699 64.5 15.5s31.166 29.166 44.499 56.499l-430 1102h330l250 -748l239 748h324l-422 -1125c-42.667 -112.667 -90.5 -192 -143.5 -238
s-125.5 -69 -217.5 -69zM213.002 1219l252 321h295l252 -321h-240l-162 135l-161 -135h-236z" />
    <glyph glyph-name="Ydieresis" unicode="&#x178;" horiz-adv-x="1466" 
d="M575 0v565l-550 869h368l342 -576l348 576h359l-551 -863v-571h-316zM807 1546v260h299v-260h-299zM360 1546v260h299v-260h-299z" />
    <glyph glyph-name="Zacute" unicode="&#x179;" horiz-adv-x="1449" 
d="M129 0v240l789 917h-764v277h1169v-240l-788 -918h788v-276h-1194zM610 1546l248 322l268 -117l-278 -205h-238z" />
    <glyph glyph-name="zacute" unicode="&#x17a;" horiz-adv-x="1153" 
d="M102 0v219l568 627h-549v252h936v-219l-570 -627h570v-252h-955zM457 1219l227 362l268 -117l-266 -245h-229z" />
    <glyph glyph-name="Zdotaccent" unicode="&#x17b;" horiz-adv-x="1449" 
d="M129 0v240l789 917h-764v277h1169v-240l-788 -918h788v-276h-1194zM584 1546v260h307v-260h-307z" />
    <glyph glyph-name="zdotaccent" unicode="&#x17c;" horiz-adv-x="1153" 
d="M102 0v219l568 627h-549v252h936v-219l-570 -627h570v-252h-955zM426 1219v276h307v-276h-307z" />
    <glyph glyph-name="Zcaron" unicode="&#x17d;" horiz-adv-x="1449" 
d="M129 0v240l789 917h-764v277h1169v-240l-788 -918h788v-276h-1194zM1147 1847l-262 -301h-295l-262 301h250l161 -114l162 114h246z" />
    <glyph glyph-name="zcaron" unicode="&#x17e;" horiz-adv-x="1153" 
d="M102 0v219l568 627h-549v252h936v-219l-570 -627h570v-252h-955zM979 1540l-252 -321h-295l-252 321h240l162 -135l161 135h236z" />
    <glyph glyph-name="florin" unicode="&#x192;" horiz-adv-x="1097" 
d="M205 -10c-50 0 -90.334 3.33301 -121.001 10v252c27.333 -4 52.666 -6 75.999 -6c43.333 0 76 9.66699 98 29s37 51.333 45 96l57 334h-137v256h183l28 151c20.667 110 60.834 192.833 120.501 248.5s148.5 83.5 266.5 83.5c82 0 149.667 -8.33301 203 -25v-258
c-57.333 14 -103.666 21 -138.999 21c-44.667 0 -79.5 -11.333 -104.5 -34s-41.5 -58 -49.5 -106l-14 -81h235v-256h-280l-68 -383c-21.333 -119.333 -63.333 -204.5 -126 -255.5s-153.667 -76.5 -273 -76.5z" />
    <glyph glyph-name="Aringacute" unicode="&#x1fa;" horiz-adv-x="1617" 
d="M555 1520c0 65.333 24.833 119.166 74.5 161.499s109.5 63.5 179.5 63.5s129.833 -21.167 179.5 -63.5s74.5 -96.166 74.5 -161.499c0 -63.333 -24 -116.666 -72 -159.999l578 -1360h-330l-131 322h-606l-131 -322h-322l578 1360c-48 41.333 -72 94.666 -72 159.999z
M614 600h381l-190 465zM670 1802l260 281l268 -117l-291 -164h-237zM680 1520c0 -32 12 -59.167 36 -81.5s55 -33.5 93 -33.5s69 11.167 93 33.5s36 49.5 36 81.5s-12 59 -36 81s-55 33 -93 33s-69 -11 -93 -33s-36 -49 -36 -81z" />
    <glyph glyph-name="aringacute" unicode="&#x1fb;" horiz-adv-x="1212" 
d="M485 1763l244 301l264 -116l-278 -185h-230zM451 -20c-108 0 -197.833 29.6689 -269.5 89.002s-107.5 141.333 -107.5 246v4c0 116 39.833 203.5 119.5 262.5s187.167 88.5 322.5 88.5c92 0 181.333 -15 268 -45v18c0 65.333 -19.833 115.166 -59.5 149.499
s-98.167 51.5 -175.5 51.5c-94 0 -195 -20 -303 -60l-78 238c66.667 29.333 132.667 51.333 198 66s141.333 22 228 22c165.333 0 289 -41 371 -123c78.667 -78.667 118 -195.334 118 -350.001v-637h-301v119c-84 -92.667 -194.333 -139 -331 -139zM545 195.002
c72 0 130.5 17.832 175.5 53.499s67.5 81.834 67.5 138.501v55c-58 27.333 -124 41 -198 41c-67.333 0 -120 -13 -158 -39s-57 -63.333 -57 -112v-4c0 -41.333 15.667 -73.833 47 -97.5s72.333 -35.5 123 -35.5zM362 1454c0 66.667 24.167 123.334 72.5 170.001
s106.833 70 175.5 70s127.167 -23.333 175.5 -70s72.5 -103.334 72.5 -170.001s-24.167 -123.334 -72.5 -170.001s-106.833 -70 -175.5 -70s-127.167 23.333 -175.5 70s-72.5 103.334 -72.5 170.001zM475 1454c0 -37.333 13.167 -69.166 39.5 -95.499
s58.166 -39.5 95.499 -39.5s69.166 13.167 95.499 39.5s39.5 58.166 39.5 95.499s-13.167 69.166 -39.5 95.499s-58.166 39.5 -95.499 39.5s-69.166 -13.167 -95.499 -39.5s-39.5 -58.166 -39.5 -95.499z" />
    <glyph glyph-name="AEacute" unicode="&#x1fc;" horiz-adv-x="2140" 
d="M18 0l773 1434h1230v-281h-716v-291h624v-280h-624v-301h727v-281h-1041v322h-481l-170 -322h-322zM657 600h334v561h-37zM1135 1546l247 322l269 -117l-279 -205h-237z" />
    <glyph glyph-name="aeacute" unicode="&#x1fd;" horiz-adv-x="1947" 
d="M487 -20c-122 0 -221.333 29.833 -298 89.5s-115 141.5 -115 245.5v4c0 116 39.833 203.5 119.5 262.5s187.167 88.5 322.5 88.5c92 0 181.333 -15 268 -45v18c0 65.333 -19.833 115.166 -59.5 149.499s-98.167 51.5 -175.5 51.5c-94 0 -195 -20 -303 -60l-78 238
c66.667 29.333 132.667 51.333 198 66s141.333 22 228 22c172.667 0 297 -46.333 373 -139c96 98 216.667 147 362 147c86 0 163.167 -16.333 231.5 -49s123.5 -77 165.5 -133s74 -119.167 96 -189.5s33 -145.166 33 -224.499c0 -16 -1.33301 -43.333 -4 -82h-764
c15.333 -70 46.5 -123.333 93.5 -160s105.5 -55 175.5 -55c52 0 98.5 8.83301 139.5 26.5s83.167 46.5 126.5 86.5l178 -158c-110 -136.667 -259.333 -205 -448 -205c-83.333 0 -161 14.5 -233 43.5s-133.667 69.833 -185 122.5c-146 -107.333 -295 -161 -447 -161z
M1083 635h468.998c-9.33301 71.333 -34.166 128 -74.499 170s-92.5 63 -156.5 63c-63.333 0 -115.666 -20.833 -156.999 -62.5s-68.333 -98.5 -81 -170.5zM544.998 199c98 0 191.333 34.666 280 103.999c-20.667 49.333 -33.667 96.333 -39 141c-60 26 -125.333 39 -196 39
c-67.333 0 -120 -13 -158 -39s-57 -63.333 -57 -112v-4c0 -39.333 16.167 -70.666 48.5 -93.999s72.833 -35 121.5 -35zM841.998 1219l227 362l268 -117l-266 -245h-229z" />
    <glyph glyph-name="Oslashacute" unicode="&#x1fe;" horiz-adv-x="1740" 
d="M1348 1444l301.001 0.000976562l-201 -234c58.667 -65.333 104 -139.833 136 -223.5s48 -172.167 48 -265.5v-4c0 -100.667 -19.333 -196.5 -58 -287.5s-91.334 -169.833 -158.001 -236.5s-147.667 -119.667 -243 -159s-197 -59 -305 -59
c-146 0 -277.667 34.333 -395 103l-80 -88h-301l201 233c-58.667 64.667 -104 139.167 -136 223.5s-48 173.166 -48 266.499v4c0 100.667 19.167 196.5 57.5 287.5s90.833 169.833 157.5 236.5s147.667 119.5 243 158.5s197 58.5 305 58.5c142 0 274 -34 396 -102z
M872.001 260.001c126 0 230.333 43.999 313 131.999s124 195 124 321v4c0 90.667 -24 175.334 -72 254.001l-567 -662c62 -32.667 129.333 -49 202 -49zM432.001 717c0 -94 24 -178.667 72 -254l567 661c-63.333 33.333 -131 50 -203 50c-126 0 -230.167 -44 -312.5 -132
s-123.5 -195 -123.5 -321v-4zM743.001 1567l248 321l269 -116l-279 -205h-238z" />
    <glyph glyph-name="oslashacute" unicode="&#x1ff;" horiz-adv-x="1359" 
d="M1032 1108l272.999 -0.000976562l-166 -190c90 -104.667 135 -227 135 -367v-4c0 -104 -25.667 -199.667 -77 -287s-122.666 -156.666 -213.999 -207.999s-193 -77 -305 -77c-104.667 0 -203 24 -295 72l-55 -57h-273l164 188c-88.667 103.333 -133 225 -133 365v4
c0 78 15.167 152 45.5 222s71.666 130.667 123.999 182s115.5 92 189.5 122s153 45 237 45c106.667 0 204.334 -23.667 293.001 -71zM556.999 1219l227 362l269 -117l-267 -245h-229zM384.999 546.999c0 -49.333 11 -98.667 33 -148l377 435c-40 16 -79 24 -117 24
c-89.333 0 -160.5 -29.667 -213.5 -89s-79.5 -132 -79.5 -218v-4zM681.999 235.998c89.333 0 160.5 29.667 213.5 89s79.5 132 79.5 218v4c0 52.667 -11.667 101.667 -35 147l-375 -436c36.667 -14.667 75.667 -22 117 -22z" />
    <glyph glyph-name="Scommaaccent" unicode="&#x218;" horiz-adv-x="1310" 
d="M682 -20c-110.667 0 -218.668 19.335 -324.001 58.002s-200 95.667 -284 171l186 223c141.333 -116 284 -174 428 -174c64.667 0 115.334 12 152.001 36s55 57 55 99v4c0 28 -7.33301 51.333 -22 70s-42.834 37.167 -84.501 55.5s-102.5 37.5 -182.5 57.5
c-45.333 11.333 -84.5 22.166 -117.5 32.499s-67.167 22.666 -102.5 36.999s-65 29.166 -89 44.499s-47.167 33.666 -69.5 54.999s-40.166 44.833 -53.499 70.5s-23.833 55.167 -31.5 88.5s-11.5 70 -11.5 110v4c0 129.333 46.833 233.666 140.5 312.999
s214.167 119 361.5 119c204 0 381.333 -60.667 532 -182l-164 -238c-136.667 94.667 -260.667 142 -372 142c-58.667 0 -104.167 -11.667 -136.5 -35s-48.5 -53.333 -48.5 -90v-4c0 -46 20 -81 60 -105s123.333 -52 250 -84c76.667 -20 141.5 -41.5 194.5 -64.5
s99.833 -51.167 140.5 -84.5s70.667 -73.166 90 -119.499s29 -100.166 29 -161.499v-4c0 -139.333 -48.167 -248.166 -144.5 -326.499s-223.5 -117.5 -381.5 -117.5zM513.999 -607.998l-15.999 94c109.333 10 161 59 155 147h-131v236h283v-199
c0 -96 -24.333 -165.833 -73 -209.5s-121.334 -66.5 -218.001 -68.5z" />
    <glyph glyph-name="scommaaccent" unicode="&#x219;" horiz-adv-x="1028" 
d="M524 -20c-80.667 0 -161.832 13.665 -243.499 40.998s-157.5 68.666 -227.5 123.999l133 205c120.667 -87.333 236 -131 346 -131c44 0 77 7.33301 99 22s33 34.667 33 60v4c0 7.33301 -1.16699 14.333 -3.5 21s-6.16602 12.834 -11.499 18.501
s-10.833 10.834 -16.5 15.501s-13.667 9.33398 -24 14.001l-27.5 12c-8 3.33301 -18.833 7.33301 -32.5 12s-25.167 8.33398 -34.5 11.001l-38.5 11.5c-16.333 5 -29.5 8.83301 -39.5 11.5c-36 10.667 -67.333 21.167 -94 31.5s-55.5 24.666 -86.5 42.999
s-56.5 38.5 -76.5 60.5s-36.667 49.833 -50 83.5s-20 70.834 -20 111.501v4c0 108 38.167 193 114.5 255s171.833 93 286.5 93c69.333 0 140.166 -11.167 212.499 -33.5s138.166 -53.5 197.499 -93.5l-119 -215c-117.333 68 -216.333 102 -297 102c-36.667 0 -65 -7 -85 -21
s-30 -32 -30 -54v-4c0 -17.333 9.5 -33.5 28.5 -48.5s40 -27 63 -36s55.833 -20.833 98.5 -35.5c14.667 -4.66699 25.667 -8.33398 33 -11.001c36.667 -12 68.167 -23.333 94.5 -34s55.666 -25.5 87.999 -44.5s58.333 -39.167 78 -60.5s36.5 -48.166 50.5 -80.499
s21 -67.833 21 -106.5v-4c0 -116.667 -38.667 -204.834 -116 -264.501s-178.666 -89.5 -303.999 -89.5zM371.002 -598.002l-17 94.001c54 4.66699 94.333 19.667 121 45s38.334 59.666 35.001 102.999h-131v235h283v-198c0 -96 -24.333 -166 -73 -210
s-121.334 -67 -218.001 -69z" />
    <glyph glyph-name="schwa" unicode="&#x259;" horiz-adv-x="1255" 
d="M596 1122c166 0 303.002 -52.8311 411.002 -158.498s162 -241.834 162 -408.501v-4c0 -104 -22.667 -199.333 -68 -286s-109.666 -155.834 -192.999 -207.501s-177 -77.5 -281 -77.5c-88.667 0 -167.834 16.333 -237.501 49s-125.834 76.834 -168.501 132.501
s-74.834 118.667 -96.501 189s-32.5 145.166 -32.5 224.499c0 16 1.33301 43.333 4 82h764c-15.333 70 -46.333 123.333 -93 160s-105 55 -175 55c-52 0 -98.667 -8.66699 -140 -26s-83.333 -46 -126 -86l-179 158c109.333 136 259 204 449 204zM864.002 463.002
l-469 -0.000976562c9.33301 -71.333 34.333 -128.166 75 -170.499s93 -63.5 157 -63.5c63.333 0 115.5 21 156.5 63s67.833 99 80.5 171z" />
    <glyph glyph-name="circumflex" unicode="&#x2c6;" 
d="M113 1219l252 321h294l252 -321h-239l-162 135l-162 -135h-235z" />
    <glyph glyph-name="caron" unicode="&#x2c7;" 
d="M911 1540l-252 -321h-294l-252 321h239l162 -135l162 135h235z" />
    <glyph glyph-name="breve" unicode="&#x2d8;" 
d="M512 1214c-109.333 0 -198.668 28.667 -268.001 86s-108.333 137.333 -117 240h209c28 -82 86.667 -123 176 -123s148 41 176 123h209c-8.66699 -102.667 -47.667 -182.667 -117 -240s-158.666 -86 -267.999 -86z" />
    <glyph glyph-name="dotaccent" unicode="&#x2d9;" 
d="M358 1219v276h308v-276h-308z" />
    <glyph glyph-name="ring" unicode="&#x2da;" 
d="M264 1454c0 66.667 24.167 123.334 72.5 170.001s106.833 70 175.5 70s127.167 -23.333 175.5 -70s72.5 -103.334 72.5 -170.001s-24.167 -123.334 -72.5 -170.001s-106.833 -70 -175.5 -70s-127.167 23.333 -175.5 70s-72.5 103.334 -72.5 170.001zM377 1454
c0 -37.333 13.167 -69.166 39.5 -95.499s58.166 -39.5 95.499 -39.5s69.166 13.167 95.499 39.5s39.5 58.166 39.5 95.499s-13.167 69.166 -39.5 95.499s-58.166 39.5 -95.499 39.5s-69.166 -13.167 -95.499 -39.5s-39.5 -58.166 -39.5 -95.499z" />
    <glyph glyph-name="ogonek" unicode="&#x2db;" 
d="M729 -336c-113.333 -16 -202.833 -6.83301 -268.5 27.5s-98.5 82.5 -98.5 144.5c0 53.333 29 114.666 87 183.999h206c-46 -48 -69 -93 -69 -135c0 -29.333 12.5 -51.166 37.5 -65.499s60.167 -20.5 105.5 -18.5v-137z" />
    <glyph glyph-name="tilde" unicode="&#x2dc;" 
d="M256 1198l-166.002 50.999c26 94 58 164.667 96 212s90.667 71 158 71c36 0 74.333 -6.66699 115 -20s78 -26.666 112 -39.999s60.667 -20 80 -20c29.333 0 52.166 7.66699 68.499 23s32.5 41 48.5 77l166 -51c-25.333 -94 -57.166 -164.5 -95.499 -211.5
s-91.166 -70.5 -158.499 -70.5c-36 0 -74.333 6.5 -115 19.5s-78 26.167 -112 39.5s-60.667 20 -80 20c-29.333 0 -52.166 -7.66699 -68.499 -23s-32.5 -41 -48.5 -77z" />
    <glyph glyph-name="hungarumlaut" unicode="&#x2dd;" 
d="M467 1219l227 362l262 -117l-270 -245h-219zM88 1219l223 362l262 -117l-266 -245h-219z" />
    <glyph glyph-name="commaaccent" unicode="&#x326;" 
d="M362 -598l-16 94.001c54 4.66699 94.333 19.667 121 45s38.334 59.666 35.001 102.999h-131v235h282v-198c0 -96 -24.333 -166 -73 -210s-121.334 -67 -218.001 -69z" />
    <glyph glyph-name="Wgrave" unicode="&#x1e80;" horiz-adv-x="2297" 
d="M551 -10l-490 1444h338l297 -971l322 975h270l322 -975l297 971h329l-489 -1444h-274l-324 938l-324 -938h-274zM1028 1868l248 -322h-238l-278 205z" />
    <glyph glyph-name="wgrave" unicode="&#x1e81;" horiz-adv-x="1763" 
d="M387 -8l-338 1106h316l176 -666l207 670h268l209 -672l180 668h309l-342 -1106h-280l-211 674l-215 -674h-279zM774 1219l-266 245l268 117l228 -362h-230z" />
    <glyph glyph-name="Wacute" unicode="&#x1e82;" horiz-adv-x="2297" 
d="M551 -10l-490 1444h338l297 -971l322 975h270l322 -975l297 971h329l-489 -1444h-274l-324 938l-324 -938h-274zM1022 1546l248 322l268 -117l-278 -205h-238z" />
    <glyph glyph-name="wacute" unicode="&#x1e83;" horiz-adv-x="1763" 
d="M387 -8l-338 1106h316l176 -666l207 670h268l209 -672l180 668h309l-342 -1106h-280l-211 674l-215 -674h-279zM758 1219l227 362l268 -117l-266 -245h-229z" />
    <glyph glyph-name="Wdieresis" unicode="&#x1e84;" horiz-adv-x="2297" 
d="M551 -10l-490 1444h338l297 -971l322 975h270l322 -975l297 971h329l-489 -1444h-274l-324 938l-324 -938h-274zM1223 1546v260h299v-260h-299zM776 1546v260h299v-260h-299z" />
    <glyph glyph-name="wdieresis" unicode="&#x1e85;" horiz-adv-x="1763" 
d="M387 -8l-338 1106h316l176 -666l207 670h268l209 -672l180 668h309l-342 -1106h-280l-211 674l-215 -674h-279zM944 1219v276h299v-276h-299zM518 1219v276h299v-276h-299z" />
    <glyph glyph-name="Ygrave" unicode="&#x1ef2;" horiz-adv-x="1466" 
d="M575 0v565l-550 869h368l342 -576l348 576h359l-551 -863v-571h-316zM612 1868l248 -322h-237l-279 205z" />
    <glyph glyph-name="ygrave" unicode="&#x1ef3;" horiz-adv-x="1228" 
d="M401 -334c-98 0 -189.998 25.334 -275.998 76.001l104 225c47.333 -28.667 91.666 -43 132.999 -43c26.667 0 48.167 5.16699 64.5 15.5s31.166 29.166 44.499 56.499l-430 1102h330l250 -748l239 748h324l-422 -1125c-42.667 -112.667 -90.5 -192 -143.5 -238
s-125.5 -69 -217.5 -69zM506.002 1219l-266 245l268 117l227 -362h-229z" />
    <glyph glyph-name="enspace" unicode="&#x2002;" 
 />
    <glyph glyph-name="emspace" unicode="&#x2003;" horiz-adv-x="2048" 
 />
    <glyph glyph-name="threeperemspace" unicode="&#x2004;" horiz-adv-x="681" 
 />
    <glyph glyph-name="fourperemspace" unicode="&#x2005;" horiz-adv-x="512" 
 />
    <glyph glyph-name="thinspace" unicode="&#x2009;" horiz-adv-x="272" 
 />
    <glyph glyph-name="hairspace" unicode="&#x200a;" horiz-adv-x="153" 
 />
    <glyph glyph-name="endash" unicode="&#x2013;" horiz-adv-x="1081" 
d="M102 489v291h877v-291h-877z" />
    <glyph glyph-name="emdash" unicode="&#x2014;" horiz-adv-x="1839" 
d="M102 489v291h1635v-291h-1635z" />
    <glyph glyph-name="quoteleft" unicode="&#x2018;" horiz-adv-x="585" 
d="M117 784v277c0 131.333 31.833 227.5 95.5 288.5s158.167 92.5 283.5 94.5l26 -129c-70 -6.66699 -122.167 -27.5 -156.5 -62.5s-48.833 -81.833 -43.5 -140.5h127v-328h-332z" />
    <glyph glyph-name="quoteright" unicode="&#x2019;" horiz-adv-x="585" 
d="M90 774l-27.001 129c70 6.66699 122.333 27.5 157 62.5s49.334 81.833 44.001 140.5h-127v328h332v-277c0 -131.333 -31.833 -227.5 -95.5 -288.5s-158.167 -92.5 -283.5 -94.5z" />
    <glyph glyph-name="quotesinglbase" unicode="&#x201a;" horiz-adv-x="585" 
d="M80 -332l-27.001 129c70 6.66699 122.333 27.5 157 62.5s49.334 81.833 44.001 140.5h-127v328h332v-277c0 -131.333 -31.833 -227.5 -95.5 -288.5s-158.167 -92.5 -283.5 -94.5z" />
    <glyph glyph-name="quotedblleft" unicode="&#x201c;" horiz-adv-x="1105" 
d="M637 784v277c0 131.333 31.833 227.5 95.5 288.5s158.167 92.5 283.5 94.5l26 -129c-70 -6.66699 -122.167 -27.5 -156.5 -62.5s-48.833 -81.833 -43.5 -140.5h127v-328h-332zM117 784v277c0 131.333 31.833 227.5 95.5 288.5s158.167 92.5 283.5 94.5l26 -129
c-70 -6.66699 -122.167 -27.5 -156.5 -62.5s-48.833 -81.833 -43.5 -140.5h127v-328h-332z" />
    <glyph glyph-name="quotedblright" unicode="&#x201d;" horiz-adv-x="1105" 
d="M610 774l-26 129c70 6.66699 122.167 27.5 156.5 62.5s48.833 81.833 43.5 140.5h-127v328h332v-277c0 -131.333 -31.833 -227.5 -95.5 -288.5s-158.167 -92.5 -283.5 -94.5zM90 774l-27.001 129c70 6.66699 122.333 27.5 157 62.5s49.334 81.833 44.001 140.5h-127v328
h332v-277c0 -131.333 -31.833 -227.5 -95.5 -288.5s-158.167 -92.5 -283.5 -94.5z" />
    <glyph glyph-name="quotedblbase" unicode="&#x201e;" horiz-adv-x="1105" 
d="M600 -332l-27.001 129c70 6.66699 122.333 27.5 157 62.5s49.334 81.833 44.001 140.5h-127v328h332v-277c0 -131.333 -31.833 -227.5 -95.5 -288.5s-158.167 -92.5 -283.5 -94.5zM79.999 -332l-27.001 129c70 6.66699 122.333 27.5 157 62.5s49.334 81.833 44.001 140.5
h-127v328h332v-277c0 -131.333 -31.833 -227.5 -95.5 -288.5s-158.167 -92.5 -283.5 -94.5z" />
    <glyph glyph-name="dagger" unicode="&#x2020;" horiz-adv-x="839" 
d="M334 487l20 553l-245 -20v170l243 -21l-26 265h188l-27 -265l244 21v-170l-246 20l21 -553h-172z" />
    <glyph glyph-name="daggerdbl" unicode="&#x2021;" horiz-adv-x="880" 
d="M346 0l27 264l-244 -20v170l244 -21l-19 324l19 323l-244 -20v170l244 -21l-27 265h189l-27 -265l244 21v-170l-244 20l18 -323l-18 -324l244 21v-170l-244 20l27 -264h-189z" />
    <glyph glyph-name="bullet" unicode="&#x2022;" 
d="M512 416c-84 0 -155.833 29.5 -215.5 88.5s-89.5 130.5 -89.5 214.5v4c0 84 29.833 155.5 89.5 214.5s131.5 88.5 215.5 88.5s155.833 -29.5 215.5 -88.5s89.5 -130.5 89.5 -214.5v-4c0 -84 -29.833 -155.5 -89.5 -214.5s-131.5 -88.5 -215.5 -88.5z" />
    <glyph glyph-name="ellipsis" unicode="&#x2026;" horiz-adv-x="1720" 
d="M1270 0v319h323v-319h-323zM698 0v319h324v-319h-324zM127 0v319h324v-319h-324z" />
    <glyph glyph-name="perthousand" unicode="&#x2030;" horiz-adv-x="2539" 
d="M438 717c-102 0 -185.167 34.6689 -249.5 104.002s-96.5 155.333 -96.5 258v4c0 103.333 32.667 190.333 98 261s149.333 106 252 106c102 0 185.167 -34.833 249.5 -104.5s96.5 -155.834 96.5 -258.501v-4c0 -102.667 -32.667 -189.334 -98 -260.001
s-149.333 -106 -252 -106zM2097 -15.998c-102 0 -185.167 34.6689 -249.5 104.002s-96.5 155.333 -96.5 258v4c0 103.333 32.667 190.333 98 261s149.333 106 252 106c102 0 185.167 -34.833 249.5 -104.5s96.5 -155.834 96.5 -258.501v-4
c0 -102.667 -32.667 -189.334 -98 -260.001s-149.333 -106 -252 -106zM1319 -15.9961c-102 0 -185.167 34.6689 -249.5 104.002s-96.5 155.333 -96.5 258v4c0 103.333 32.667 190.333 98 261s149.333 106 252 106c102 0 185.167 -34.833 249.5 -104.5
s96.5 -155.834 96.5 -258.501v-4c0 -102.667 -32.667 -189.334 -98 -260.001s-149.333 -106 -252 -106zM442 903.006c41.333 0 73.5 17.166 96.5 51.499s34.5 75.833 34.5 124.5v4c0 50 -12.5 92.667 -37.5 128s-57.5 53 -97.5 53c-41.333 0 -73.5 -17 -96.5 -51
s-34.5 -76 -34.5 -126v-4c0 -49.333 12.5 -91.666 37.5 -126.999s57.5 -53 97.5 -53zM2101 170.005c41.333 0 73.5 17.167 96.5 51.5s34.5 75.833 34.5 124.5v4c0 49.333 -12.5 91.666 -37.5 126.999s-57.5 53 -97.5 53c-41.333 0 -73.5 -16.833 -96.5 -50.5
s-34.5 -75.5 -34.5 -125.5v-4c0 -49.333 12.5 -91.666 37.5 -126.999s57.5 -53 97.5 -53zM1323 170.005c41.333 0 73.5 17.167 96.5 51.5s34.5 75.833 34.5 124.5v4c0 49.333 -12.5 91.666 -37.5 126.999s-57.5 53 -97.5 53c-41.333 0 -73.5 -16.833 -96.5 -50.5
s-34.5 -75.5 -34.5 -125.5v-4c0 -49.333 12.5 -91.666 37.5 -126.999s57.5 -53 97.5 -53zM809 772.005l473 662h244l-574 -772l-473 -662h-243z" />
    <glyph glyph-name="guilsinglleft" unicode="&#x2039;" horiz-adv-x="763" 
d="M428 82l-344 459v16l344 459l238 -115l-267 -350l267 -350z" />
    <glyph glyph-name="guilsinglright" unicode="&#x203a;" horiz-adv-x="763" 
d="M336 82l-238 115l267 350l-267 350l238 119l344 -459v-16z" />
    <glyph glyph-name="fraction" unicode="&#x2044;" horiz-adv-x="921" 
d="M-111 0l521 752l452 682h170l-520 -752l-453 -682h-170z" />
    <glyph glyph-name="Euro" unicode="&#x20ac;" horiz-adv-x="1474" 
d="M1393 1196l-237.997 -179.998c-41.333 55.333 -82.833 96.166 -124.5 122.499s-90.834 39.5 -147.501 39.5c-118.667 0 -205.334 -60.333 -260.001 -181h376v-206h-426c-1.33301 -15.333 -2 -39.333 -2 -72c0 -32 0.666992 -54.667 2 -68h426v-207h-381
c26.667 -60.667 63.5 -107.167 110.5 -139.5s102.5 -48.5 166.5 -48.5c56 0 103.833 13 143.5 39s83.834 69 132.501 129l226 -166c-65.333 -92 -137.5 -162.167 -216.5 -210.5s-174.167 -72.5 -285.5 -72.5c-152.667 0 -281.5 42.167 -386.5 126.5
s-178.167 198.5 -219.5 342.5h-189v207h154c-1.33301 13.333 -2 34.666 -2 63.999c0 34 0.666992 59.333 2 76h-154v206h193c43.333 140 116.666 251.833 219.999 335.5s228.666 125.5 375.999 125.5c81.333 0 154.5 -11.833 219.5 -35.5s118.833 -53.667 161.5 -90
s83.667 -81.833 123 -136.5z" />
    <glyph glyph-name="published" unicode="&#x2117;" horiz-adv-x="1699" 
d="M848 -25c-102 0 -198.833 19.667 -290.5 59s-170.167 92.166 -235.5 158.499s-117.166 144.833 -155.499 235.5s-57.5 185.667 -57.5 285v4c0 99.333 19.333 194.5 58 285.5s91 169.833 157 236.5s145 119.834 237 159.501s189 59.5 291 59.5s198.833 -19.667 290.5 -59
s170.167 -92 235.5 -158s117.166 -144.333 155.499 -235s57.5 -185.667 57.5 -285v-4c0 -99.333 -19.333 -194.5 -58 -285.5s-91 -170 -157 -237s-145 -120.333 -237 -160s-189 -59.5 -291 -59.5zM848 57c92 0 178.835 17.502 260.502 52.502s151.334 82.167 209.001 141.5
s103.334 129.5 137.001 210.5s50.5 166.167 50.5 255.5v4c0 119.333 -28.167 229 -84.5 329s-134.666 179.333 -234.999 238s-211.5 88 -333.5 88c-92 0 -178.833 -17.5 -260.5 -52.5s-151.334 -82 -209.001 -141s-103.334 -129 -137.001 -210s-50.5 -166.167 -50.5 -255.5
v-4c0 -89.333 16.667 -174.333 50 -255s78.666 -150.334 135.999 -209.001s126.666 -105.334 207.999 -140.001s167.666 -52 258.999 -52zM578.002 336.002l0.000976562 788h323c93.333 0 167.166 -24.833 221.499 -74.5s81.5 -115.5 81.5 -197.5v-4
c0 -86.667 -30.167 -154.167 -90.5 -202.5s-136.5 -72.5 -228.5 -72.5h-131v-237h-176zM754.003 727.002h134.999c42 0 75.333 11.167 100 33.5s37 50.833 37 85.5v4c0 37.333 -12.667 66.5 -38 87.5s-59.666 31.5 -102.999 31.5h-131v-242z" />
    <glyph glyph-name="servicemark" unicode="&#x2120;" horiz-adv-x="1439" 
d="M733 803v631h152l166 -267l166 267h147v-631h-135v426l-174 -277h-13l-174 277v-426h-135zM348 791c-50.667 0 -102.335 9.5 -155.002 28.5s-98 44.167 -136 75.5l76 94c74 -57.333 148.333 -86 223 -86c35.333 0 62.666 6.16699 81.999 18.5s29 28.833 29 49.5
s-9.66699 36.834 -29 48.501s-56.666 24.167 -111.999 37.5c-39.333 9.33301 -71.166 18.333 -95.499 27s-48.333 20.167 -72 34.5s-41 32 -52 53s-16.5 46.167 -16.5 75.5c0 59.333 21.5 107.333 64.5 144s101.5 55 175.5 55c103.333 0 188 -28.667 254 -86l-74 -98
c-62.667 44.667 -124 67 -184 67c-32.667 0 -57.667 -6 -75 -18s-26 -27.667 -26 -47c0 -20.667 10.333 -37 31 -49s58.334 -24.333 113.001 -37c76 -17.333 133.833 -40.333 173.5 -69s59.5 -69.334 59.5 -122.001c0 -60.667 -23.167 -108.5 -69.5 -143.5
s-107.833 -52.5 -184.5 -52.5z" />
    <glyph glyph-name="trademark" unicode="&#x2122;" horiz-adv-x="1413" 
d="M707 803v631h151l166 -267l166 267h147v-631h-135v426l-174 -277h-12l-174 277v-426h-135zM242 803v504h-189v127h520v-127h-188v-504h-143z" />
    <glyph glyph-name="minus" unicode="&#x2212;" horiz-adv-x="1310" 
d="M1171 578h-1032v286h1032v-286z" />
    <glyph glyph-name=".null" horiz-adv-x="0" 
 />
    <glyph glyph-name="nonmarkingreturn" horiz-adv-x="682" 
 />
    <glyph glyph-name="Q.alt" horiz-adv-x="1740" 
d="M1300 -207l-215.003 210.999c-73.333 -19.333 -145.666 -29 -216.999 -29c-108 0 -209.5 19.333 -304.5 58s-175.5 91.167 -241.5 157.5s-118 144.833 -156 235.5s-57 186.334 -57 287.001v4c0 100.667 19.167 196.5 57.5 287.5s90.833 169.833 157.5 236.5
s147.667 119.5 243 158.5s197 58.5 305 58.5c144 0 274.333 -33 391 -99s207.334 -155.167 272.001 -267.5s97 -235.833 97 -370.5v-4c0 -104.667 -20.167 -203.667 -60.5 -297s-97.166 -174 -170.499 -242l373 -375v-10h-474zM871.997 265.999
c82.667 0 157.164 20.166 223.497 60.499s117.5 94.5 153.5 162.5s54 142.667 54 224v4c0 124.667 -41.167 230.834 -123.5 318.501s-186.166 131.5 -311.499 131.5c-82.667 0 -157 -20 -223 -60s-117 -94 -153 -162s-54 -142.667 -54 -224v-4
c0 -81.333 18.333 -156.333 55 -225s88.334 -123.5 155.001 -164.5s141.334 -61.5 224.001 -61.5z" />
    <glyph glyph-name="a.alt" horiz-adv-x="1382" 
d="M590 -20c-64.667 0 -126.668 12.5 -186.001 37.5s-112.5 60.833 -159.5 107.5s-84.5 106.5 -112.5 179.5s-42 153.833 -42 242.5v4c0 88.667 13.833 169.5 41.5 242.5s64.834 132.833 111.501 179.5s99.667 82.5 159 107.5s122 37.5 188 37.5c136 0 250 -54.667 342 -164
v144h311v-1098h-311v158c-88.667 -118.667 -202.667 -178 -342 -178zM669.999 244c74 0 136.833 28.1689 188.5 84.502s77.5 129.166 77.5 218.499v4c0 89.333 -25.833 162.166 -77.5 218.499s-114.5 84.5 -188.5 84.5c-74.667 0 -138.167 -28.167 -190.5 -84.5
s-78.5 -129.166 -78.5 -218.499v-4c0 -88.667 26.167 -161.334 78.5 -218.001s115.833 -85 190.5 -85z" />
    <glyph glyph-name="aacute.alt" horiz-adv-x="1382" 
d="M590 -20c-64.667 0 -126.668 12.5 -186.001 37.5s-112.5 60.833 -159.5 107.5s-84.5 106.5 -112.5 179.5s-42 153.833 -42 242.5v4c0 88.667 13.833 169.5 41.5 242.5s64.834 132.833 111.501 179.5s99.667 82.5 159 107.5s122 37.5 188 37.5c136 0 250 -54.667 342 -164
v144h311v-1098h-311v158c-88.667 -118.667 -202.667 -178 -342 -178zM669.999 244c74 0 136.833 28.1689 188.5 84.502s77.5 129.166 77.5 218.499v4c0 89.333 -25.833 162.166 -77.5 218.499s-114.5 84.5 -188.5 84.5c-74.667 0 -138.167 -28.167 -190.5 -84.5
s-78.5 -129.166 -78.5 -218.499v-4c0 -88.667 26.167 -161.334 78.5 -218.001s115.833 -85 190.5 -85zM583.999 1219l227 362l268 -117l-266 -245h-229z" />
    <glyph glyph-name="abreve.alt" horiz-adv-x="1382" 
d="M590 -20c-64.667 0 -126.668 12.5 -186.001 37.5s-112.5 60.833 -159.5 107.5s-84.5 106.5 -112.5 179.5s-42 153.833 -42 242.5v4c0 88.667 13.833 169.5 41.5 242.5s64.834 132.833 111.501 179.5s99.667 82.5 159 107.5s122 37.5 188 37.5c136 0 250 -54.667 342 -164
v144h311v-1098h-311v158c-88.667 -118.667 -202.667 -178 -342 -178zM669.999 244c74 0 136.833 28.1689 188.5 84.502s77.5 129.166 77.5 218.499v4c0 89.333 -25.833 162.166 -77.5 218.499s-114.5 84.5 -188.5 84.5c-74.667 0 -138.167 -28.167 -190.5 -84.5
s-78.5 -129.166 -78.5 -218.499v-4c0 -88.667 26.167 -161.334 78.5 -218.001s115.833 -85 190.5 -85zM706.999 1214c-109.333 0 -198.668 28.667 -268.001 86s-108.333 137.333 -117 240h208c28 -82 87 -123 177 -123c89.333 0 148 41 176 123h209
c-8.66699 -102.667 -47.667 -182.667 -117 -240s-158.666 -86 -267.999 -86z" />
    <glyph glyph-name="acircumflex.alt" horiz-adv-x="1382" 
d="M590 -20c-64.667 0 -126.668 12.5 -186.001 37.5s-112.5 60.833 -159.5 107.5s-84.5 106.5 -112.5 179.5s-42 153.833 -42 242.5v4c0 88.667 13.833 169.5 41.5 242.5s64.834 132.833 111.501 179.5s99.667 82.5 159 107.5s122 37.5 188 37.5c136 0 250 -54.667 342 -164
v144h311v-1098h-311v158c-88.667 -118.667 -202.667 -178 -342 -178zM669.999 244c74 0 136.833 28.1689 188.5 84.502s77.5 129.166 77.5 218.499v4c0 89.333 -25.833 162.166 -77.5 218.499s-114.5 84.5 -188.5 84.5c-74.667 0 -138.167 -28.167 -190.5 -84.5
s-78.5 -129.166 -78.5 -218.499v-4c0 -88.667 26.167 -161.334 78.5 -218.001s115.833 -85 190.5 -85zM306.999 1219l252 321h295l252 -321h-240l-161 135l-162 -135h-236z" />
    <glyph glyph-name="adieresis.alt" horiz-adv-x="1382" 
d="M590 -20c-64.667 0 -126.668 12.5 -186.001 37.5s-112.5 60.833 -159.5 107.5s-84.5 106.5 -112.5 179.5s-42 153.833 -42 242.5v4c0 88.667 13.833 169.5 41.5 242.5s64.834 132.833 111.501 179.5s99.667 82.5 159 107.5s122 37.5 188 37.5c136 0 250 -54.667 342 -164
v144h311v-1098h-311v158c-88.667 -118.667 -202.667 -178 -342 -178zM669.999 244c74 0 136.833 28.1689 188.5 84.502s77.5 129.166 77.5 218.499v4c0 89.333 -25.833 162.166 -77.5 218.499s-114.5 84.5 -188.5 84.5c-74.667 0 -138.167 -28.167 -190.5 -84.5
s-78.5 -129.166 -78.5 -218.499v-4c0 -88.667 26.167 -161.334 78.5 -218.001s115.833 -85 190.5 -85zM769.999 1219v276h299v-276h-299zM343.999 1219v276h299v-276h-299z" />
    <glyph glyph-name="agrave.alt" horiz-adv-x="1382" 
d="M590 -20c-64.667 0 -126.668 12.5 -186.001 37.5s-112.5 60.833 -159.5 107.5s-84.5 106.5 -112.5 179.5s-42 153.833 -42 242.5v4c0 88.667 13.833 169.5 41.5 242.5s64.834 132.833 111.501 179.5s99.667 82.5 159 107.5s122 37.5 188 37.5c136 0 250 -54.667 342 -164
v144h311v-1098h-311v158c-88.667 -118.667 -202.667 -178 -342 -178zM669.999 244c74 0 136.833 28.1689 188.5 84.502s77.5 129.166 77.5 218.499v4c0 89.333 -25.833 162.166 -77.5 218.499s-114.5 84.5 -188.5 84.5c-74.667 0 -138.167 -28.167 -190.5 -84.5
s-78.5 -129.166 -78.5 -218.499v-4c0 -88.667 26.167 -161.334 78.5 -218.001s115.833 -85 190.5 -85zM599.999 1219l-266 245l268 117l227 -362h-229z" />
    <glyph glyph-name="amacron.alt" horiz-adv-x="1382" 
d="M590 -20c-64.667 0 -126.668 12.5 -186.001 37.5s-112.5 60.833 -159.5 107.5s-84.5 106.5 -112.5 179.5s-42 153.833 -42 242.5v4c0 88.667 13.833 169.5 41.5 242.5s64.834 132.833 111.501 179.5s99.667 82.5 159 107.5s122 37.5 188 37.5c136 0 250 -54.667 342 -164
v144h311v-1098h-311v158c-88.667 -118.667 -202.667 -178 -342 -178zM669.999 244c74 0 136.833 28.1689 188.5 84.502s77.5 129.166 77.5 218.499v4c0 89.333 -25.833 162.166 -77.5 218.499s-114.5 84.5 -188.5 84.5c-74.667 0 -138.167 -28.167 -190.5 -84.5
s-78.5 -129.166 -78.5 -218.499v-4c0 -88.667 26.167 -161.334 78.5 -218.001s115.833 -85 190.5 -85zM337.999 1229v215h737v-215h-737z" />
    <glyph glyph-name="aogonek.alt" horiz-adv-x="1382" 
d="M1264 -336c-113.333 -16 -202.833 -6.83594 -268.5 27.4971s-98.5 82.5 -98.5 144.5c0 50.667 22.667 105.334 68 164.001h-33v158c-88.667 -118.667 -202.667 -178 -342 -178c-64.667 0 -126.667 12.5 -186 37.5s-112.5 60.833 -159.5 107.5s-84.5 106.5 -112.5 179.5
s-42 153.833 -42 242.5v4c0 88.667 13.833 169.5 41.5 242.5s64.834 132.833 111.501 179.5s99.667 82.5 159 107.5s122 37.5 188 37.5c136 0 250 -54.667 342 -164v144h311v-1098h-72c-34 -39.333 -51 -77.666 -51 -114.999c0 -29.333 12.667 -51.166 38 -65.499
s60.666 -20.5 105.999 -18.5v-137zM670 243.997c74 0 136.833 28.1689 188.5 84.502s77.5 129.166 77.5 218.499v4c0 89.333 -25.833 162.166 -77.5 218.499s-114.5 84.5 -188.5 84.5c-74.667 0 -138.167 -28.167 -190.5 -84.5s-78.5 -129.166 -78.5 -218.499v-4
c0 -88.667 26.167 -161.334 78.5 -218.001s115.833 -85 190.5 -85z" />
    <glyph glyph-name="aring.alt" horiz-adv-x="1382" 
d="M590 -20c-64.667 0 -126.668 12.5 -186.001 37.5s-112.5 60.833 -159.5 107.5s-84.5 106.5 -112.5 179.5s-42 153.833 -42 242.5v4c0 88.667 13.833 169.5 41.5 242.5s64.834 132.833 111.501 179.5s99.667 82.5 159 107.5s122 37.5 188 37.5c136 0 250 -54.667 342 -164
v144h311v-1098h-311v158c-88.667 -118.667 -202.667 -178 -342 -178zM669.999 244c74 0 136.833 28.1689 188.5 84.502s77.5 129.166 77.5 218.499v4c0 89.333 -25.833 162.166 -77.5 218.499s-114.5 84.5 -188.5 84.5c-74.667 0 -138.167 -28.167 -190.5 -84.5
s-78.5 -129.166 -78.5 -218.499v-4c0 -88.667 26.167 -161.334 78.5 -218.001s115.833 -85 190.5 -85zM458.999 1454c0 66.667 24.167 123.334 72.5 170.001s106.833 70 175.5 70s127 -23.333 175 -70s72 -103.334 72 -170.001s-24 -123.334 -72 -170.001
s-106.333 -70 -175 -70s-127.167 23.333 -175.5 70s-72.5 103.334 -72.5 170.001zM570.999 1454c0 -36.667 13.333 -68.3301 40 -94.9971s58.667 -40 96 -40c36.667 0 68.334 13.167 95.001 39.5s40 58.166 40 95.499s-13.333 69.166 -40 95.499s-58.334 39.5 -95.001 39.5
c-37.333 0 -69.333 -13.333 -96 -40s-40 -58.334 -40 -95.001z" />
    <glyph glyph-name="aring.alt2" horiz-adv-x="1212" 
d="M362 1247c0 66.667 24.167 123.335 72.5 170.002s106.833 70 175.5 70s127.167 -23.333 175.5 -70s72.5 -103.334 72.5 -170.001c0 -62 -24 -116 -72 -162c71.333 -19.333 131 -52 179 -98c78.667 -78.667 118 -195.334 118 -350.001v-637h-301v119
c-84 -92.667 -194.333 -139 -331 -139c-108 0 -197.833 29.667 -269.5 89s-107.5 141.333 -107.5 246v4c0 116 39.833 203.5 119.5 262.5s187.167 88.5 322.5 88.5c92 0 181.333 -15 268 -45v18c0 65.333 -19.833 115.166 -59.5 149.499s-98.167 51.5 -175.5 51.5
c-94 0 -195 -20 -303 -60l-78 238c86.667 38.667 170.667 64 252 76c-38.667 42.667 -58 92.334 -58 149.001zM545 195.001c72 0 130.5 17.832 175.5 53.499s67.5 81.834 67.5 138.501v55c-58 27.333 -124 41 -198 41c-67.333 0 -120 -13 -158 -39s-57 -63.333 -57 -112v-4
c0 -41.333 15.667 -73.833 47 -97.5s72.333 -35.5 123 -35.5zM475 1247c0 -36.667 13.167 -68.334 39.5 -95.001s58.166 -40 95.499 -40s69.166 13.333 95.499 40s39.5 58.334 39.5 95.001s-13.167 68.334 -39.5 95.001s-58.166 40 -95.499 40s-69.166 -13.333 -95.499 -40
s-39.5 -58.334 -39.5 -95.001z" />
    <glyph glyph-name="aringacute.alt" horiz-adv-x="1382" 
d="M582 1763l243 301l265 -116l-279 -185h-229zM590 -20c-64.667 0 -126.668 12.5 -186.001 37.5s-112.5 60.833 -159.5 107.5s-84.5 106.5 -112.5 179.5s-42 153.833 -42 242.5v4c0 88.667 13.833 169.5 41.5 242.5s64.834 132.833 111.501 179.5s99.667 82.5 159 107.5
s122 37.5 188 37.5c136 0 250 -54.667 342 -164v144h311v-1098h-311v158c-88.667 -118.667 -202.667 -178 -342 -178zM669.999 244c74 0 136.833 28.1689 188.5 84.502s77.5 129.166 77.5 218.499v4c0 89.333 -25.833 162.166 -77.5 218.499s-114.5 84.5 -188.5 84.5
c-74.667 0 -138.167 -28.167 -190.5 -84.5s-78.5 -129.166 -78.5 -218.499v-4c0 -88.667 26.167 -161.334 78.5 -218.001s115.833 -85 190.5 -85zM458.999 1454c0 66.667 24.167 123.334 72.5 170.001s106.833 70 175.5 70s127 -23.333 175 -70s72 -103.334 72 -170.001
s-24 -123.334 -72 -170.001s-106.333 -70 -175 -70s-127.167 23.333 -175.5 70s-72.5 103.334 -72.5 170.001zM570.999 1454c0 -36.667 13.333 -68.3301 40 -94.9971s58.667 -40 96 -40c36.667 0 68.334 13.167 95.001 39.5s40 58.166 40 95.499s-13.333 69.166 -40 95.499
s-58.334 39.5 -95.001 39.5c-37.333 0 -69.333 -13.333 -96 -40s-40 -58.334 -40 -95.001z" />
    <glyph glyph-name="aringacute.alt2" horiz-adv-x="1212" 
d="M485 1559l244 301l264 -117l-278 -184h-230zM362 1247c0 66.667 24.167 123.335 72.5 170.002s106.833 70 175.5 70s127.167 -23.333 175.5 -70s72.5 -103.334 72.5 -170.001c0 -62 -24 -116 -72 -162c71.333 -19.333 131 -52 179 -98
c78.667 -78.667 118 -195.334 118 -350.001v-637h-301v119c-84 -92.667 -194.333 -139 -331 -139c-108 0 -197.833 29.667 -269.5 89s-107.5 141.333 -107.5 246v4c0 116 39.833 203.5 119.5 262.5s187.167 88.5 322.5 88.5c92 0 181.333 -15 268 -45v18
c0 65.333 -19.833 115.166 -59.5 149.499s-98.167 51.5 -175.5 51.5c-94 0 -195 -20 -303 -60l-78 238c86.667 38.667 170.667 64 252 76c-38.667 42.667 -58 92.334 -58 149.001zM545 195.001c72 0 130.5 17.832 175.5 53.499s67.5 81.834 67.5 138.501v55
c-58 27.333 -124 41 -198 41c-67.333 0 -120 -13 -158 -39s-57 -63.333 -57 -112v-4c0 -41.333 15.667 -73.833 47 -97.5s72.333 -35.5 123 -35.5zM475 1247c0 -36.667 13.167 -68.334 39.5 -95.001s58.166 -40 95.499 -40s69.166 13.333 95.499 40s39.5 58.334 39.5 95.001
s-13.167 68.334 -39.5 95.001s-58.166 40 -95.499 40s-69.166 -13.333 -95.499 -40s-39.5 -58.334 -39.5 -95.001z" />
    <glyph glyph-name="atilde.alt" horiz-adv-x="1382" 
d="M590 -20c-64.667 0 -126.668 12.5 -186.001 37.5s-112.5 60.833 -159.5 107.5s-84.5 106.5 -112.5 179.5s-42 153.833 -42 242.5v4c0 88.667 13.833 169.5 41.5 242.5s64.834 132.833 111.501 179.5s99.667 82.5 159 107.5s122 37.5 188 37.5c136 0 250 -54.667 342 -164
v144h311v-1098h-311v158c-88.667 -118.667 -202.667 -178 -342 -178zM669.999 244c74 0 136.833 28.1689 188.5 84.502s77.5 129.166 77.5 218.499v4c0 89.333 -25.833 162.166 -77.5 218.499s-114.5 84.5 -188.5 84.5c-74.667 0 -138.167 -28.167 -190.5 -84.5
s-78.5 -129.166 -78.5 -218.499v-4c0 -88.667 26.167 -161.334 78.5 -218.001s115.833 -85 190.5 -85zM460.999 1198l-166.002 50.999c26 94 58 164.667 96 212s90.667 71 158 71c36 0 74.333 -6.66699 115 -20s78 -26.666 112 -39.999s60.667 -20 80 -20
c29.333 0 52.166 7.66699 68.499 23s32.5 41 48.5 77l166 -51c-25.333 -94 -57.166 -164.5 -95.499 -211.5s-91.166 -70.5 -158.499 -70.5c-36 0 -74.333 6.5 -115 19.5s-78 26.167 -112 39.5s-60.667 20 -80 20c-29.333 0 -52.166 -7.66699 -68.499 -23
s-32.5 -41 -48.5 -77z" />
    <glyph glyph-name="three.alt" horiz-adv-x="1257" 
d="M643 -25c-115.333 0 -221 21.333 -317 64s-179.333 102.667 -250 180l211 205c106 -110.667 226 -166 360 -166c66.667 0 118.5 15 155.5 45s55.5 71 55.5 123v4c0 52.667 -23.5 92.834 -70.5 120.501s-113.5 41.5 -199.5 41.5h-158v262h166
c70.667 0 125.5 15.333 164.5 46s58.5 70.667 58.5 120v4c0 44.667 -18.5 81.167 -55.5 109.5s-87.5 42.5 -151.5 42.5c-56 0 -106.5 -14 -151.5 -42s-92.167 -69.333 -141.5 -124l-217 184c70 88 144.167 154 222.5 198s175.5 66 291.5 66
c154 0 277.833 -35.833 371.5 -107.5s140.5 -164.167 140.5 -277.5v-4c0 -152.667 -62.667 -263.334 -188 -332.001c72 -31.333 127.833 -71.333 167.5 -120s59.5 -112.334 59.5 -191.001v-4c0 -131.333 -46.5 -238.666 -139.5 -321.999s-221.167 -125 -384.5 -125z" />
    <glyph glyph-name="registered.alt" horiz-adv-x="1699" 
d="M848 -25c-102 0 -198.833 19.667 -290.5 59s-170.167 92.166 -235.5 158.499s-117.166 144.833 -155.499 235.5s-57.5 185.667 -57.5 285v4c0 99.333 19.333 194.5 58 285.5s91 169.833 157 236.5s145 119.834 237 159.501s189 59.5 291 59.5s198.833 -19.667 290.5 -59
s170.167 -92 235.5 -158s117.166 -144.333 155.499 -235s57.5 -185.667 57.5 -285v-4c0 -99.333 -19.333 -194.5 -58 -285.5s-91 -170 -157 -237s-145 -120.333 -237 -160s-189 -59.5 -291 -59.5zM848 57c92 0 178.835 17.502 260.502 52.502s151.334 82.167 209.001 141.5
s103.334 129.5 137.001 210.5s50.5 166.167 50.5 255.5v4c0 119.333 -28.167 229 -84.5 329s-134.666 179.333 -234.999 238s-211.5 88 -333.5 88c-92 0 -178.833 -17.5 -260.5 -52.5s-151.334 -82 -209.001 -141s-103.334 -129 -137.001 -210s-50.5 -166.167 -50.5 -255.5
v-4c0 -89.333 16.667 -174.333 50 -255s78.666 -150.334 135.999 -209.001s126.666 -105.334 207.999 -140.001s167.666 -52 258.999 -52zM545.002 344.002l0.000976562 789h350c105.333 0 186.666 -28.667 243.999 -86c43.333 -43.333 65 -101 65 -173v-4
c0 -61.333 -15.167 -112.333 -45.5 -153s-71.833 -70.667 -124.5 -90l193 -283h-203l-168 254h-137v-254h-174zM719.003 748.002h174.001c43.333 0 76.666 10.167 99.999 30.5s35 47.5 35 81.5v4c0 37.333 -12.167 65.833 -36.5 85.5s-58.5 29.5 -102.5 29.5h-170v-231z" />
    <glyph glyph-name="NUL" horiz-adv-x="0" 
 />
    <glyph glyph-name="hfjslug" horiz-adv-x="1421" 
d="M1319 -410h-426.001l-16 29h-334l-17 -29h-424v621c18.667 0 34.334 6.16699 47.001 18.5s19 27.833 19 46.5c0 18 -6.5 33.5 -19.5 46.5s-28.5 19.5 -46.5 19.5v1135h205l62 161h684l59 -161h207v-1887zM818.999 1153v-352h31v160h78v28h-78v135h88v29h-119z
M376.999 1153v-352h31v162h96v-162h31v352h-31v-162h-96v162h-31zM941.999 807c13.333 -5.33301 27.668 -8 43.001 -8c42.667 0 64 24.333 64 73v281h-33v-281c0 -30 -11 -45 -33 -45c-8.66699 0 -22.334 3.66699 -41.001 11v-31zM760.001 952l-26.999 5.99805
c-6 -26 -11.333 -46.333 -16 -61h-2l-33 64c31.333 29.333 47 58 47 86c0 18.667 -4.66699 33.834 -14 45.501s-23 17.5 -41 17.5c-17.333 0 -31.333 -6 -42 -18s-16 -27 -16 -45c0 -6 0.333008 -11.5 1 -16.5s2.16699 -10.5 4.5 -16.5s4.33301 -10.5 6 -13.5l9 -16.5
c4.33301 -8 7.16602 -13.667 8.49902 -17c-31.333 -25.333 -47 -57.666 -47 -96.999c0 -22.667 5.5 -40.834 16.5 -54.501s25.167 -20.5 42.5 -20.5c27.333 0 47.333 16.333 60 49h2l24 -49l25 12l-35 65c10.667 26.667 19.667 53.334 27 80.001zM1071 661.998v-95h16v25
l17 16l31 -41h20l-41 54l37 41h-21l-40 -50h-3v50h-16zM999.002 597.998l21 -31h18l-24 35c13.333 5.33301 20 15 20 29c0 8.66699 -3.33301 16 -10 22s-15 9 -25 9h-41v-95h17v31h24zM872.002 564.998c14.667 0 26.667 4.83301 36 14.5s14 21.167 14 34.5
c0 12.667 -4.83301 24.167 -14.5 34.5s-21.5 15.5 -35.5 15.5s-25.667 -5 -35 -15s-14 -21.667 -14 -35c0 -14 4.66699 -25.667 14 -35s21 -14 35 -14zM758.002 615.998l-27 46h-18l37 -60v-35h16v35l37 60h-19zM395.002 661.998v-95h70v15h-53v26h47v15h-47v24h53v15h-70z
M270.002 661.998v-95h17v66l51 -66h14v95h-16v-66l-51 66h-15zM494.002 661.998l28 -97h17l22 70h2l23 -70h16l29 97h-17l-20 -72h-2l-23 72h-14l-23 -72h-2l-20 72h-16zM670.002 980.998c-16.667 32 -25 54 -25 66c0 11.333 2.83301 20.5 8.5 27.5s12.5 10.5 20.5 10.5
c17.333 0 26 -12.667 26 -38c0 -20.667 -10 -42.667 -30 -66zM700.002 865.998c-10.667 -28.667 -24.333 -42.999 -41 -42.999c-9.33301 0 -17 4.66699 -23 14s-9 21.666 -9 36.999c0 26.667 10.667 50.667 32 72zM997.003 611.999h-22v35h22c14 0 21 -5.33301 21 -16
c0 -5.33301 -2 -9.83301 -6 -13.5s-9 -5.5 -15 -5.5zM872.003 579.999c-9.33301 0 -16.999 3.33301 -22.999 10s-9 14.667 -9 24c0 8.66699 3 16.667 9 24s13.667 11 23 11s17.166 -3.66699 23.499 -11s9.5 -15.333 9.5 -24c0 -9.33301 -3 -17.333 -9 -24s-14 -10 -24 -10z
" />
    <glyph glyph-name="i.dot" horiz-adv-x="618" 
d="M145 1219v276h328v-276h-328zM154 0v1098h311v-1098h-311z" />
    <glyph glyph-name="caron.alt" 
d="M408 1069l20 426h223v-6l-121 -420h-122z" />
    <glyph glyph-name="acute.cap" 
d="M291 1546l248 322l268 -117l-279 -205h-237z" />
    <glyph glyph-name="hungarumlaut.cap" 
d="M70 1546l247 322l258 -117l-278 -205h-227zM459 1546l248 322l258 -117l-279 -205h-227z" />
    <glyph glyph-name="grave.cap" 
d="M481 1868l248 -322h-237l-279 205z" />
    <glyph glyph-name="circumflex.cap" 
d="M102 1546l263 301h294l263 -301h-250l-162 115l-162 -115h-246z" />
    <glyph glyph-name="caron.cap" 
d="M922 1847l-263 -301h-294l-263 301h250l162 -114l162 114h246z" />
    <glyph glyph-name="breve.cap" 
d="M512 1542c-110.667 0 -200.996 26.667 -270.996 80s-109.333 128.333 -118 225h213c13.333 -33.333 33.666 -58.333 60.999 -75s65.666 -25 114.999 -25s87.666 8.33301 114.999 25s47.666 41.667 60.999 75h213c-8.66699 -96.667 -48 -171.667 -118 -225
s-160.333 -80 -271 -80z" />
    <glyph glyph-name="tilde.cap" 
d="M248 1526l-166 51c25.333 93.333 57.5 163.833 96.5 211.5s92.167 71.5 159.5 71.5c36 0 75.333 -6.66699 118 -20s82 -26.666 118 -39.999s63.667 -20 83 -20c30 0 53.5 7.83301 70.5 23.5s33.167 41.167 48.5 76.5l166 -51
c-25.333 -93.333 -57.5 -163.833 -96.5 -211.5s-92.167 -71.5 -159.5 -71.5c-36 0 -75.333 6.66699 -118 20s-82 26.666 -118 39.999s-63.667 20 -83 20c-30 0 -53.5 -7.83301 -70.5 -23.5s-33.167 -41.167 -48.5 -76.5z" />
    <glyph glyph-name="macron.cap" 
d="M123 1556v220h778v-220h-778z" />
    <glyph glyph-name="dieresis.cap" 
d="M586 1546v260h299v-260h-299zM139 1546v260h299v-260h-299z" />
    <glyph glyph-name="dotaccent.cap" 
d="M358 1546v260h308v-260h-308z" />
    <glyph glyph-name="ring.cap" 
d="M258 1767c0 65.333 24.833 119.333 74.5 162s109.5 64 179.5 64s129.833 -21.333 179.5 -64s74.5 -96.667 74.5 -162s-24.833 -119.166 -74.5 -161.499s-109.5 -63.5 -179.5 -63.5s-129.833 21.167 -179.5 63.5s-74.5 96.166 -74.5 161.499zM383 1767
c0 -32 12 -59 36 -81s55 -33 93 -33s69 11 93 33s36 49 36 81s-12 59.167 -36 81.5s-55 33.5 -93 33.5s-69 -11.167 -93 -33.5s-36 -49.5 -36 -81.5z" />
    </font>
</defs>
</svg>
